<svg xmlns="http://www.w3.org/2000/svg" version="1.1" xmlns:xlink="http://www.w3.org/1999/xlink" xmlns:svgjs="http://svgjs.dev/svgjs" viewBox="0 0 1422 800"><defs><linearGradient x1="50%" y1="0%" x2="50%" y2="100%" id="ccchaos-grad"><stop stop-color="hsl(206, 75%, 49%)" stop-opacity="1" offset="0%"></stop><stop stop-color="hsl(331, 90%, 56%)" stop-opacity="1" offset="100%"></stop></linearGradient></defs><g stroke-width="2.5" stroke="url(#ccchaos-grad)" fill="none" stroke-linecap="round"><path d="M699.93 -441.52Q705.67 -433.05 712.4 -424.8 720.55 -416.93 730.44 -409.52 742.27 -402.61 756.1 -396.18 771.84 -390.2 789.24 -384.55 807.89 -379.12 827.29 -373.79 846.85 -368.42 865.93 -362.9 883.92 -357.14 900.25 -351.1 914.49 -344.75 926.32 -338.11 935.62 -331.24 942.45 -324.2 949.32 -309.98 952.77 -295.95 957.7 -282.64 967.85 -269.74 977.36 -263.42 989.91 -257.07 1005.51 -250.64 1023.93 -244.07 1044.71 -237.34 1067.22 -230.44 1090.64 -223.39 1114.09 -216.26 1136.64 -209.1 1157.43 -201.99 1175.67 -195.04 1190.79 -188.3 1202.4 -181.84 1210.4 -175.7 1212.93 -156.31 1208.33 -142.72 1211.41 -130.41 1224.29 -116.71 1237.64 -108.99 1255.09 -100.86 1276.25 -92.43 1300.47 -83.86 1326.84 -75.35 1354.29 -67.08 1381.61 -59.23 1407.6 -51.96 1431.12 -45.37 1451.2 -39.51 1467.11 -34.35 1478.43 -29.8 1485.05 -25.71 1487.26 -21.86 1457.98 -8.81 1423.16 4.23 1392.96 17.28 1376.21 30.33 1377.8 43.39 1397.27 56.44 1428.92 69.49 1463.52 82.54 1490.95 95.59 1503.21 108.64 1496.71 121.69 1473.35 134.75 1439.96 147.8 1406.28 160.85 1382.17 173.9 1374.65 186.95 1385.92 200 1412.7 213.05 1447.16 226.11 1479.24 239.16 1499.56 252.21 1502.18 265.26 1486.35 278.31 1456.69 291.36 1421.86 304.42 1392.03 317.47 1375.92 330.52 1378.24 343.57 1398.3 356.62 1430.25 369.67 1464.76 382.73 1491.74 395.78 1503.31 408.83 1496.09 421.88 1472.2 434.93 1438.61 447.98 1405.13 461.04 1381.54 474.09 1374.74 487.14 1386.7 500.19 1413.95 513.24 1448.51 526.29 1480.29 539.35 1500.01 552.4 1501.9 565.45 1485.42 578.5 1455.38 591.55 1420.55 604.61 1391.11 617.66 1375.66 630.71 1378.71 643.76 1399.37 656.81 1431.6 669.87 1466 682.92 1492.51 695.97 1503.38 709.02 1495.45 722.07 1471.02 735.12 1437.24 748.18 1403.97 761.23 1380.93 774.28 1374.86 787.33 1387.52 800.38 1415.21 813.44 1420.98 832.19 1426.89 850.61 1431.67 867.64 1434.15 882.32 1433.33 893.9 1428.52 901.88 1419.31 906.11 1405.62 906.74 1387.73 904.27 1366.2 899.47 1341.87 893.33 1315.76 886.98 1289 881.57 1262.75 878.18 1238.08 877.72 1215.96 880.87 1197.12 887.96 1182.03 898.99 1170.89 913.61 1163.57 931.14 1159.7 950.61 1158.62 970.91 1159.5 990.81 1161.39 1009.1 1163.28 1024.73 1164.19 1036.86 1158.12 1046.81 1142.99 1045.06 1129.59 1038.86 1113.06 1031.19 1093.87 1023.32 1072.68 1016.52 1050.27 1012.01 1027.5 1010.8 1005.22 1013.62 984.23 1020.84 965.2 1032.46 948.64 1048.06 934.86 1066.86 923.94 1087.82 915.75 1109.66 909.97 1131.03 906.09 1150.59 903.51 1167.17 892.4 1185.75 877.41 1178.22 866.66 1169.03 853.63 1159.63 838.54 1151.45 821.76 1145.83 803.75 1143.87 785.07 1146.37 766.3 1153.74 747.99 1165.94 730.64 1182.52 714.65 1202.62 700.3 1225.06 687.74 1248.45 678.72 1257.94 671.12 1265.17 658.75 1265.95 646.94 1252.64 640.29 1237.81 632.68 1219.23 623.88 1197.99 613.76 1175.43 602.33 1152.97 589.67 1132.02 575.98 1113.84 561.52 1099.43 546.59 1089.46 531.5 1084.18 516.57 1083.43 502.05 1086.67 488.18 1092.98 475.08 1101.19 462.82 1109.97 451.38 1117.97 440.69 1123.89 430.58 1126.65 420.88 1125.45 411.39 1119.87 401.9 1109.84 392.22 1095.73 382.22 1078.23 371.8 1058.36 360.92 1037.32 349.61 1016.39 337.93 996.86 325.98 979.85 313.92 966.26 301.88 956.68 290 951.34 278.38 950.09 267.11 952.41 256.19 957.47 245.6 964.22 235.26 971.46 225.05 977.97 214.81 982.58 204.38 984.34 193.59 982.54 182.32 976.78 170.45 967.05 157.95 953.67 144.84 937.27 131.21 918.77 117.21 899.25 103.04 879.85 88.94 861.73 75.19 845.88 62.02 833.1 49.65 823.92 38.27 818.51 27.95 816.73 18.71 818.12 10.46 821.93 3.02 827.22 -3.46 828.76 0.36 811.24 -1.27 797.89 -7.51 784.55 -16.52 771.2 -25.67 757.85 -32.28 744.5 -34.43 731.15 -31.48 717.81 -24.31 704.46 -14.99 691.11 -6.27 677.76 -0.67 664.41 0.14 651.07 -4.03 637.72 -12 624.37 -21.43 611.02 -29.57 597.67 -34.03 584.33 -33.51 570.98 -28.18 557.63 -19.57 544.28 -10.21 530.94 -2.84 517.59 0.39 504.24 -1.44 490.89 -7.83 477.54 -16.89 464.2 -25.99 450.85 -32.45 437.5 -34.41 424.15 -31.27 410.8 -23.97 397.46 -14.63 384.11 -5.98 370.76 -0.54 357.41 0.07 344.07 -4.28 330.72 -12.35 317.37 -21.79 304.02 -29.82 290.68 -34.1 277.33 -33.39 263.98 -27.89 250.63 -19.21 237.28 -9.88 223.94 -2.63 210.59 0.42 197.24 -1.61 183.89 -8.14 170.55 -17.26 157.2 -26.3 143.85 -32.62 130.5 -34.38 117.16 -31.06 103.81 -23.63 90.46 -14.27 77.11 -5.7 63.77 -0.43 50.42 0 37.07 -4.53 23.72 -12.71 10.38 -22.13 -2.96 -30.06 -16.31 -20.75 -25.55 -10.16 -34.76 1.66 -43.71 14.61 -52.2 28.47 -60.08 42.97 -67.28 57.81 -73.77 72.68 -79.6 87.32 -84.89 101.46 -89.78 114.94 -94.45 127.65 -99.09 139.57 -103.88 150.73 -108.97 161.25 -114.47 171.28 -120.44 181.01 -126.91 190.65 -133.83 200.36 -141.14 210.32 -148.73 220.64 -156.47 231.38 -164.23 242.55 -171.9 254.1 -179.38 265.93 -186.59 277.93 -193.52 289.95 -200.15 301.86 -206.52 313.53 -212.7 324.87 -218.76 335.84 -224.79 346.45 -230.85 356.77 -237.02 366.89 -243.33 376.96 -249.81 387.15 -256.43 397.64 -263.18 408.59 -269.98 420.11 -276.79 432.29 -283.52 445.15 -290.14 458.62 -296.6 472.58 -302.89 486.86 -309.02 501.21 -315.02 515.38 -320.97 529.09 -326.94 542.09 -333.01 554.17 -339.28 565.19 -345.82 575.07 -352.66 583.85 -359.82 591.65 -367.28 598.7 -374.98 605.29 -382.82 611.8 -390.68 618.6 -398.42 626.1 -405.92 634.65 -413.06 644.56 -419.73 656.01 -425.89 669.11 -431.54 691.87 -439.12 699.93 -441.52" stroke-dasharray="4 5" transform="rotate(0, 711, 400)" opacity="1.00"></path><path d="M688.32 -409.01Q701.12 -401.21 715.51 -393.6 731.33 -386.28 748.28 -379.32 765.99 -372.73 783.99 -366.5 801.8 -360.59 818.9 -354.92 834.81 -349.42 849.14 -343.98 861.56 -338.5 871.89 -332.92 885.4 -321.12 893.77 -308.72 898.14 -295.58 903.63 -282.34 908.55 -275.79 915.53 -269.36 924.92 -263.06 936.91 -256.9 951.52 -250.83 968.56 -244.83 987.68 -238.84 1008.36 -232.78 1029.97 -226.61 1051.77 -220.27 1073.01 -213.73 1092.94 -206.99 1110.88 -200.05 1126.29 -192.97 1138.77 -185.81 1148.15 -178.65 1156.69 -164.84 1158.24 -151.82 1156.21 -132.98 1163.31 -120.64 1172.75 -115.75 1185.82 -110.6 1202.45 -105.05 1222.31 -99.03 1244.87 -92.45 1269.36 -85.31 1294.88 -77.64 1320.42 -69.52 1344.98 -61.09 1367.57 -52.52 1387.33 -43.99 1403.59 -35.71 1415.9 -27.86 1424.08 -20.59 1427.28 -8.62 1421.79 1.15 1389.22 14.03 1362.54 26.92 1348.97 39.8 1352.19 52.68 1371.31 65.57 1401.18 78.45 1433.7 91.33 1460.08 104.22 1473.17 117.1 1469.45 129.99 1449.9 142.87 1419.83 155.75 1387.37 168.64 1361.3 181.52 1348.68 194.41 1352.92 207.29 1372.87 220.17 1403.14 233.06 1435.54 245.94 1461.29 258.83 1473.44 271.71 1468.69 284.59 1448.33 297.48 1417.87 310.36 1385.55 323.25 1360.11 336.13 1348.44 349.01 1353.7 361.9 1374.46 374.78 1405.11 387.67 1437.35 400.55 1462.45 413.43 1473.64 426.32 1467.87 439.2 1446.72 452.09 1415.89 464.97 1383.75 477.85 1358.97 490.74 1348.27 503.62 1354.55 516.51 1376.09 529.39 1407.08 542.27 1439.13 555.16 1463.57 568.04 1473.78 580.93 1467 593.81 1445.07 606.69 1413.92 619.58 1381.98 632.46 1357.89 645.35 1348.17 658.23 1355.45 671.11 1377.76 684 1409.06 696.88 1440.89 709.76 1464.63 722.65 1473.85 735.53 1466.07 748.42 1443.39 761.3 1411.94 774.18 1380.23 787.07 1356.85 799.95 1348.12 812.84 1356.4 825.72 1355.89 840.94 1358.2 853.74 1357.27 857.29 1327.48 846.77 1307.12 846.46 1284.34 849.36 1260.02 855.8 1235.11 865.8 1210.59 879.11 1187.36 895.17 1166.25 913.21 1147.9 932.27 1132.76 951.32 1121.04 969.3 1112.7 985.22 1107.49 998.28 1098.27 993.86 1081.03 980.22 1067.63 979.71 1051.6 982.89 1033.38 990.06 1013.54 1001.19 992.72 1015.91 971.65 1033.57 951.02 1053.25 931.49 1073.87 913.62 1094.25 897.82 1113.22 884.36 1129.74 873.34 1142.92 852.97 1152.27 844.2 1141.53 836.16 1125.18 824.02 1113.45 814.85 1112.89 803.73 1116.5 790.77 1124.55 776.19 1136.92 760.31 1153.16 743.54 1172.47 726.32 1193.81 709.12 1215.95 698.25 1230.07 684.62 1235.26 675.59 1230.83 665.12 1221.94 653.26 1208.85 640.18 1192.16 626.08 1172.73 611.26 1151.68 596.04 1130.22 580.76 1109.6 565.73 1090.98 551.22 1075.37 537.45 1063.48 524.58 1055.74 512.66 1052.24 501.7 1052.71 491.62 1056.54 482.26 1062.88 473.44 1070.67 464.95 1078.73 456.56 1085.89 448.07 1091.06 439.28 1093.3 430.06 1091.94 420.32 1086.62 410.03 1077.28 399.2 1064.23 387.9 1048.03 376.24 1029.54 364.36 1009.78 352.39 989.86 340.48 970.89 328.74 953.91 317.28 939.76 306.13 929.07 295.3 922.16 284.76 919.03 274.43 919.39 264.2 922.65 253.95 928 243.54 934.47 232.87 940.99 221.82 946.5 210.34 950.06 198.42 950.88 186.08 948.39 173.42 942.32 160.57 932.69 147.67 919.81 134.93 904.24 122.52 886.79 110.64 868.38 99.42 850.02 88.97 832.68 79.33 817.27 70.48 804.5 62.33 794.88 54.72 788.64 40.09 787.07 24.77 792.68 26.86 780.19 24.66 767.69 18.75 755.2 10.75 742.71 2.81 730.21 -2.91 717.72 -4.88 705.22 -2.55 692.73 3.44 680.23 11.47 667.74 19.38 655.25 25.01 642.75 26.85 630.26 24.39 617.76 18.31 605.27 10.25 592.77 2.38 580.28 -3.15 567.79 -4.86 555.29 -2.28 542.8 3.88 530.3 11.97 517.81 19.8 505.31 25.24 492.82 26.82 480.33 24.12 467.83 17.87 455.34 9.75 442.84 1.97 430.35 -3.37 417.85 -4.82 405.36 -2 392.87 4.33 380.37 12.47 367.88 20.21 355.38 25.45 342.89 26.78 330.39 23.83 317.9 17.41 305.4 9.25 292.91 1.56 280.42 -3.57 267.92 -4.77 255.43 -1.7 242.93 4.79 230.44 12.97 217.94 20.61 205.45 25.65 192.96 26.72 180.46 23.53 167.97 16.95 155.47 8.75 142.98 1.16 130.48 -3.76 117.99 -4.7 105.5 -1.4 93 5.25 80.51 13.46 68.01 21 55.52 25.83 43.02 26.65 30.53 23.22 18.04 16.48 5.54 8.26 -6.94 15.48 -15.69 23.44 -23.9 32.29 -31.43 42.11 -38.22 52.92 -44.26 64.62 -49.63 77.1 -54.42 90.15 -58.81 103.58 -62.96 117.14 -67.09 130.62 -71.36 143.82 -75.95 156.61 -80.97 168.87 -86.51 180.56 -92.6 191.69 -99.21 202.33 -106.3 212.57 -113.74 222.55 -121.43 232.41 -129.23 242.31 -136.99 252.35 -144.6 262.65 -151.95 273.26 -158.98 284.2 -165.66 295.44 -171.99 306.91 -178.01 318.52 -183.78 330.14 -189.37 341.63 -194.89 352.89 -200.42 363.8 -206.04 374.31 -211.8 384.38 -217.75 394.04 -223.89 403.37 -230.22 412.47 -236.7 421.52 -243.27 430.68 -249.88 440.14 -256.46 450.08 -262.97 460.65 -269.37 471.97 -275.63 484.07 -281.76 496.96 -287.79 510.55 -293.75 524.69 -299.71 539.17 -305.72 553.75 -311.85 568.13 -318.16 582.05 -324.68 595.21 -331.42 607.4 -338.37 618.45 -345.49 628.25 -352.72 636.83 -359.96 644.26 -367.12 650.74 -374.11 662.03 -387.02 673.49 -398.82 684.31 -406.54 688.32 -409.01" stroke-dasharray="7 6" transform="rotate(4.04, 711, 400)" opacity="0.96"></path><path d="M712 -376.51Q728.51 -369.35 744.86 -362.36 760.63 -355.58 775.47 -349.07 789.02 -342.83 801.03 -336.84 811.32 -331.07 819.84 -325.45 831.28 -314.4 839.04 -303.25 844.8 -291.51 852.31 -279.37 858.28 -273.12 866.11 -266.83 876.06 -260.56 888.23 -254.35 902.59 -248.25 918.96 -242.27 937.02 -236.44 956.33 -230.74 976.35 -225.13 996.49 -219.58 1016.11 -214.02 1034.6 -208.4 1051.42 -202.64 1066.09 -196.68 1078.29 -190.5 1087.83 -184.06 1097.96 -170.36 1101.71 -156.18 1100.27 -142.03 1099.84 -128.48 1107.9 -116.69 1124.15 -106.14 1137.65 -101.51 1154.17 -97.12 1173.41 -92.86 1194.85 -88.57 1217.85 -84.12 1241.62 -79.35 1265.33 -74.15 1288.11 -68.41 1309.17 -62.07 1327.77 -55.13 1343.34 -47.62 1355.49 -39.62 1364.04 -31.27 1369.04 -22.73 1368.7 -6.04 1362.25 9.48 1357.58 16.18 1353.56 22.1 1331.21 34.66 1321.8 47.22 1327.68 59.79 1347.37 72.35 1375.97 84.91 1406.32 97.47 1430.84 110.04 1443.41 122.6 1440.89 135.16 1423.9 147.72 1396.7 160.29 1366.07 172.85 1339.67 185.41 1324.1 197.97 1323.23 210.54 1337.3 223.1 1362.78 235.66 1393.31 248.23 1421.27 260.79 1439.66 273.35 1443.9 285.91 1432.92 298.48 1409.47 311.04 1379.41 323.6 1350.24 336.17 1329.25 348.73 1321.7 361.29 1329.45 373.85 1350.58 386.42 1379.81 398.98 1409.84 411.54 1433.15 424.11 1443.94 436.67 1439.5 449.23 1420.95 461.79 1392.91 474.36 1362.4 486.92 1337.03 499.48 1323.14 512.05 1324.21 524.61 1339.96 537.17 1366.47 549.73 1397.1 562.3 1424.21 574.86 1441.02 587.42 1443.34 599.99 1430.58 612.55 1405.93 625.11 1375.56 637.67 1347.04 650.24 1327.5 662.8 1321.83 675.36 1331.44 687.93 1353.93 700.49 1383.68 713.05 1413.26 725.61 1435.28 738.18 1444.24 750.74 1437.89 763.3 1417.84 775.87 1389.08 788.43 1358.8 800.99 1334.56 813.56 1322.43 826.12 1314.19 819.93 1309.31 818.61 1300.11 824.99 1287.5 834.56 1271.7 847.08 1253.1 862.11 1232.28 878.97 1209.95 896.87 1186.88 914.9 1163.9 932.17 1141.78 947.8 1121.24 961.04 1102.88 971.33 1087.15 978.31 1065.86 980.76 1052.94 974.88 1040.33 962.48 1022.84 985.07 1010.35 1001.8 995.6 1020.35 978.93 1039.8 960.79 1059.11 941.71 1077.29 922.26 1093.4 903.03 1106.64 884.56 1116.46 867.33 1122.52 851.73 1124.8 838.02 1123.55 826.35 1119.3 816.71 1112.8 808.98 1104.99 793 1086.46 783.47 1086.91 778.66 1095.5 772.65 1107.94 765.19 1123.77 756.16 1142.27 745.54 1162.52 733.41 1183.46 723.36 1191.63 711.85 1198.05 699.01 1201.77 685.05 1202.08 670.27 1198.53 654.99 1190.96 639.53 1179.52 624.24 1164.65 609.42 1147.04 595.31 1127.6 582.12 1107.34 569.96 1087.36 558.87 1068.69 548.82 1052.29 539.7 1038.9 531.36 1029.07 516.22 1022.5 501.41 1026.01 493.65 1032.13 485.4 1039.39 476.56 1046.77 467.06 1053.25 456.9 1057.88 446.13 1059.89 434.83 1058.69 423.14 1053.92 411.2 1045.55 399.15 1033.76 387.15 1019.03 375.33 1002.04 363.77 983.64 352.56 964.77 341.7 946.42 331.18 929.49 320.96 914.8 310.94 902.98 301.02 894.43 291.1 889.32 281.06 887.53 270.82 888.71 260.29 892.27 249.44 897.48 238.28 903.46 226.83 909.29 215.18 914.07 203.42 917.01 191.69 917.42 180.13 914.86 168.86 909.09 158.02 900.12 147.7 888.2 137.96 873.82 128.8 857.62 120.2 840.39 112.05 822.98 104.23 806.26 96.55 791.02 88.81 777.95 80.8 767.53 72.31 760.09 63.13 755.68 53.11 754.14 50.28 742.4 44.63 730.67 37.57 718.93 30.86 707.2 26.18 695.46 24.7 683.73 26.79 671.99 31.93 660.26 38.83 648.52 45.77 636.79 51.01 625.05 53.25 613.31 51.93 601.58 47.37 589.84 40.72 578.11 33.63 566.37 27.88 554.64 24.91 542.9 25.45 531.17 29.37 519.43 35.69 507.7 42.84 495.96 49.02 484.22 52.7 472.49 52.95 460.75 49.71 449.02 43.79 437.28 36.67 425.55 30.13 413.81 25.8 402.08 24.77 390.34 27.28 378.61 32.72 366.87 39.73 355.14 46.55 343.4 51.48 331.66 53.29 319.93 51.52 308.19 46.63 296.46 39.82 284.72 32.81 272.99 27.34 261.25 24.78 249.52 25.77 237.78 30.06 226.05 36.58 214.31 43.7 202.58 49.65 190.84 52.93 179.11 52.73 167.37 49.09 155.64 42.93 143.9 35.79 132.16 29.44 120.43 25.48 108.69 24.89 96.96 27.82 85.22 33.54 73.49 40.62 61.75 47.3 50.02 51.89 38.28 53.26 26.55 51.06 14.81 45.85 3.08 52.85 -3.89 59.93 -10.09 67.3 -15.54 75.16 -20.3 83.65 -24.52 92.85 -28.36 102.78 -32.01 113.42 -35.65 124.68 -39.48 136.44 -43.66 148.55 -48.31 160.84 -53.52 173.16 -59.32 185.34 -65.69 197.28 -72.59 208.87 -79.91 220.07 -87.53 230.87 -95.31 241.3 -103.11 251.44 -110.78 261.37 -118.22 271.22 -125.33 281.08 -132.05 291.07 -138.36 301.27 -144.28 311.76 -149.84 322.54 -155.13 333.62 -160.22 344.94 -165.22 356.42 -170.23 367.95 -175.33 379.42 -180.59 390.67 -186.08 401.61 -191.8 412.12 -197.76 422.13 -203.94 431.62 -210.29 440.6 -216.77 449.14 -223.3 457.34 -229.82 465.35 -236.28 473.36 -242.64 481.55 -248.87 490.14 -254.96 499.31 -260.94 509.21 -266.82 519.96 -272.66 531.61 -278.5 544.16 -284.39 557.52 -290.38 571.57 -296.5 586.09 -302.78 600.83 -309.2 615.51 -315.76 629.84 -322.4 643.52 -329.07 656.29 -335.71 667.94 -342.24 678.32 -348.59 687.36 -354.72 706.57 -371.26 712 -376.51" stroke-dasharray="7 3" transform="rotate(8.08, 711, 400)" opacity="0.92"></path><path d="M734.1 -344.02Q745.07 -337.47 754.61 -331.06 768.78 -318.86 779.28 -307.19 786.34 -296.1 793.51 -285.1 798.17 -279.53 804.04 -273.87 811.41 -268.1 820.51 -262.21 831.45 -256.23 844.25 -250.17 858.81 -244.08 874.92 -238.01 892.26 -232 910.45 -226.09 929 -220.33 947.44 -214.73 965.24 -209.3 981.92 -204.03 997.05 -198.88 1010.28 -193.81 1021.36 -188.75 1030.16 -183.64 1040.19 -172.85 1044.82 -161.33 1044.9 -148.36 1045.65 -134.63 1047.89 -127.46 1052.03 -120.28 1058.47 -113.17 1067.49 -106.24 1079.21 -99.61 1093.6 -93.35 1110.47 -87.53 1129.47 -82.17 1150.12 -77.28 1171.83 -72.81 1193.93 -68.68 1215.71 -64.8 1236.47 -61.03 1255.55 -57.22 1272.38 -53.23 1286.5 -48.91 1304.07 -38.47 1312.61 -26.22 1309.5 -11.04 1302.99 5.36 1298.55 22.14 1299.91 38.03 1295.5 50.04 1304.77 62.05 1325.58 74.05 1353.15 86.06 1381.15 98.07 1403.14 110.08 1414.06 122.09 1411.4 134.09 1395.78 146.1 1370.79 158.11 1342.16 170.12 1316.49 182.12 1299.66 194.13 1295.56 206.14 1305.11 218.15 1326.13 230.15 1353.79 242.16 1381.72 254.17 1403.51 266.18 1414.15 278.19 1411.19 290.19 1395.32 302.2 1370.18 314.21 1341.55 326.22 1316.01 338.22 1299.43 350.23 1295.62 362.24 1305.46 374.25 1326.69 386.25 1354.42 398.26 1382.28 410.27 1403.87 422.28 1414.23 434.28 1410.97 446.29 1394.85 458.3 1369.57 470.31 1340.93 482.31 1315.53 494.32 1299.2 506.33 1295.69 518.34 1305.82 530.35 1327.24 542.35 1355.05 554.36 1382.84 566.37 1404.23 578.38 1414.31 590.38 1410.75 602.39 1394.38 614.4 1368.96 626.41 1340.32 638.41 1315.06 650.42 1298.98 662.43 1295.77 674.44 1306.18 686.44 1327.8 698.45 1355.68 710.46 1383.39 722.47 1404.58 734.47 1414.38 746.48 1410.52 758.49 1393.91 770.5 1368.35 782.5 1339.72 794.51 1314.6 806.52 1295.64 806.66 1279.71 804.7 1267.08 801.16 1257.85 796.68 1254.8 791.1 1259.89 805.18 1259.8 817.38 1257.42 831.74 1252.38 847.69 1244.42 864.54 1233.5 881.52 1219.73 897.84 1203.38 912.77 1184.89 925.64 1164.79 935.95 1143.7 943.34 1122.29 947.69 1101.22 949.06 1081.13 947.73 1062.58 944.18 1046.02 939.04 1031.78 933.07 1020.05 927.08 1010.85 921.9 997.43 924.61 994.01 941.78 993.18 955.51 991.48 971.5 988.44 989.06 983.7 1007.38 976.99 1025.6 968.18 1042.83 957.26 1058.27 944.33 1071.24 929.65 1081.19 913.52 1087.83 896.35 1091.05 878.6 1091.01 860.72 1088.1 843.19 1082.89 826.42 1076.14 810.79 1068.72 796.57 1061.54 783.96 1055.53 764.61 1051.81 749.87 1057.56 744.67 1066.58 740.23 1079 736.18 1094.36 732.16 1112.04 727.81 1131.21 722.8 1150.96 707.37 1158.51 691.82 1164.52 676.48 1168.17 661.66 1168.83 647.62 1166.06 634.55 1159.7 622.58 1149.8 611.76 1136.68 602.08 1120.88 593.44 1103.11 585.71 1084.22 578.68 1065.13 572.13 1046.76 565.81 1029.99 559.48 1015.55 552.92 1004.03 537.97 992.65 520.96 991.03 511.14 995.01 500.62 1000.76 489.47 1007.44 477.83 1014.18 465.85 1020.12 453.7 1024.44 441.52 1026.45 429.48 1025.64 417.7 1021.67 406.26 1014.46 395.24 1004.13 384.65 991.02 374.47 975.67 364.65 958.75 355.12 941.07 345.78 923.44 336.53 906.69 327.25 891.57 317.85 878.72 308.26 868.59 298.41 861.47 288.3 857.41 277.93 856.26 267.33 857.67 256.58 861.12 245.76 865.93 234.98 871.36 224.33 876.62 213.93 880.95 203.85 883.64 194.15 884.13 184.86 882 175.98 877.02 167.46 869.17 159.21 858.61 151.14 845.71 143.1 830.98 134.93 815.06 126.48 798.66 117.59 782.54 108.14 767.39 98.02 753.86 87.18 742.47 75.59 733.58 70.24 722.39 64.14 711.2 58.69 700 55.15 688.81 54.33 677.62 56.42 666.43 60.93 655.24 66.84 644.05 72.78 632.86 77.39 621.66 79.6 610.47 78.92 599.28 75.49 588.09 70.11 576.9 64.01 565.71 58.59 554.52 55.11 543.32 54.35 532.13 56.49 520.94 61.05 509.75 66.97 498.56 72.9 487.37 77.46 476.18 79.62 464.98 78.87 453.79 75.39 442.6 69.98 431.41 63.88 420.22 58.49 409.03 55.06 397.84 54.36 386.64 56.57 375.45 61.17 364.26 67.11 353.07 73.02 341.88 77.54 330.69 79.64 319.49 78.82 308.3 75.29 297.11 69.85 285.92 63.75 274.73 58.39 263.54 55.01 252.35 54.38 241.15 56.65 229.96 61.29 218.77 67.24 207.58 73.13 196.39 77.61 185.2 79.65 174 78.77 162.81 75.19 151.62 69.72 140.43 63.62 129.24 58.29 118.05 54.97 106.85 54.4 95.66 56.73 84.47 61.41 73.28 67.38 62.09 73.25 50.9 77.69 39.7 79.66 28.51 78.72 17.32 94.38 8.82 109.37 1.74 116.94 -1.41 124.8 -4.64 133.07 -8.12 141.82 -12.01 151.11 -16.42 160.91 -21.43 171.2 -27.06 181.88 -33.3 192.86 -40.09 204.02 -47.33 215.24 -54.89 226.41 -62.64 237.43 -70.43 248.21 -78.12 258.72 -85.57 268.94 -92.69 278.88 -99.4 288.59 -105.66 298.14 -111.47 307.63 -116.86 317.14 -121.89 326.78 -126.64 336.64 -131.2 346.77 -135.69 357.23 -140.2 368.03 -144.83 379.15 -149.66 390.52 -154.75 402.06 -160.11 413.66 -165.77 425.19 -171.71 436.51 -177.88 447.49 -184.23 458.02 -190.69 467.99 -197.2 477.35 -203.69 486.1 -210.11 494.24 -216.4 501.87 -222.54 509.11 -228.53 516.11 -234.36 523.07 -240.06 530.19 -245.67 537.68 -251.23 545.75 -256.79 554.57 -262.39 564.28 -268.07 574.96 -273.85 586.64 -279.75 599.29 -285.76 612.79 -291.86 626.99 -298.02 641.65 -304.19 656.53 -310.32 671.31 -316.35 685.71 -322.25 699.43 -327.98 712.2 -333.51 728.96 -341.43 734.1 -344.02" stroke-dasharray="0 10" transform="rotate(12.12, 711, 400)" opacity="0.89"></path><path d="M720.22 -311.52Q728.7 -299.78 736.69 -288.41 746.97 -277.55 760.36 -266.82 769.41 -261.44 779.98 -256 792.09 -250.45 805.66 -244.8 820.52 -239.03 836.43 -233.16 853.07 -227.21 870.08 -221.22 887.06 -215.22 903.61 -209.27 919.32 -203.42 933.84 -197.71 946.86 -192.18 958.14 -186.85 974.06 -176.88 984.49 -167.41 989.19 -151 992.01 -138.43 1000.4 -126.59 1014.63 -113.75 1025.64 -106.83 1038.94 -99.74 1054.39 -92.57 1071.72 -85.43 1090.55 -78.43 1110.43 -71.67 1130.8 -65.27 1151.11 -59.29 1170.76 -53.79 1189.19 -48.79 1205.9 -44.28 1220.47 -40.22 1232.57 -36.52 1242.02 -33.08 1249.83 -12.61 1244.93 1.47 1245.01 15.82 1251.66 31.63 1259.82 40.05 1271.06 48.49 1284.06 59.75 1306.1 71.02 1332.54 82.28 1357.82 93.54 1376.6 104.8 1384.93 116.06 1381.06 127.33 1365.8 138.59 1342.37 149.85 1315.7 161.11 1291.41 172.37 1274.61 183.64 1268.85 194.9 1275.34 206.16 1292.7 217.42 1317.29 228.68 1343.92 239.95 1366.99 251.21 1381.63 262.47 1384.77 273.73 1375.73 284.99 1356.43 296.26 1330.93 307.52 1304.6 318.78 1282.99 330.04 1270.64 341.3 1270.17 352.57 1281.66 363.83 1302.71 375.09 1328.87 386.35 1354.63 397.61 1374.58 408.88 1384.5 420.14 1382.31 431.4 1368.46 442.66 1345.89 453.93 1319.33 465.19 1294.39 476.45 1276.31 487.71 1268.92 498.97 1273.75 510.24 1289.8 521.5 1313.69 532.76 1340.37 544.02 1364.24 555.28 1380.27 566.55 1385.07 577.81 1377.64 589.07 1359.54 600.33 1334.59 611.6 1308.03 622.86 1285.47 634.12 1271.66 645.38 1269.5 656.64 1279.46 667.91 1299.42 679.17 1325.2 690.43 1351.35 701.69 1372.37 712.96 1383.84 724.22 1383.33 735.48 1370.95 746.74 1349.32 758 1322.98 769.27 1300.31 765.43 1278.79 761.22 1259.03 757.26 1241.53 754.17 1226.67 752.5 1214.69 752.74 1200.76 761.53 1194.52 777.82 1194.93 790.01 1196.53 803.99 1198.68 819.23 1200.75 835.13 1202.13 851.02 1202.24 866.25 1200.58 880.18 1196.78 892.26 1190.56 902.06 1181.81 909.28 1170.53 913.79 1156.86 915.63 1141.08 915.01 1123.57 912.31 1104.78 908.03 1085.23 902.79 1065.47 897.28 1046.05 892.2 1027.48 888.24 1010.22 886.02 994.64 886.07 981.01 888.74 969.5 894.26 960.15 902.64 952.89 913.75 947.54 927.24 943.82 942.62 941.37 959.29 939.77 976.55 938.57 993.64 937.29 1009.82 935.51 1024.41 932.82 1036.81 928.87 1046.57 915.34 1055.67 896.58 1056.09 884.24 1051.99 870.46 1046.27 855.51 1039.63 839.72 1032.85 823.45 1026.71 807.06 1021.99 790.93 1019.34 775.4 1019.3 760.77 1022.27 747.26 1028.43 735.04 1037.77 724.21 1050.07 714.78 1064.93 706.66 1081.77 699.74 1099.87 693.8 1118.46 681.43 1125.42 670.24 1131.02 652.02 1134.01 636.97 1128.17 630.9 1119.7 625.32 1108.25 619.98 1094.21 614.63 1078.15 609.03 1060.75 602.99 1042.77 596.32 1025.02 588.9 1008.26 580.66 993.21 571.56 980.44 561.64 970.39 550.97 963.34 539.66 959.35 527.85 958.29 515.72 959.85 503.42 963.56 491.13 968.81 479 974.89 467.17 981.06 455.75 986.57 444.81 990.73 434.38 992.93 424.46 992.69 415.01 989.69 405.96 983.81 397.24 975.08 388.73 963.73 380.33 950.16 371.93 934.9 363.42 918.58 354.73 901.89 345.8 885.55 336.59 870.23 327.11 856.56 317.37 845.02 307.42 835.99 297.32 829.65 287.16 826.03 277.02 824.98 266.99 826.19 257.13 829.21 247.51 833.47 238.18 838.33 229.13 843.14 211.92 849.06 195.17 849.57 186.85 845.77 178.39 839.4 169.67 830.55 160.59 819.44 151.06 806.45 141.02 792.08 130.45 776.89 119.34 761.52 107.75 746.59 95.75 732.68 90.7 721.82 86.56 710.95 84.18 700.09 84.09 689.23 86.28 678.36 90.31 667.5 95.33 656.63 100.27 645.77 104.1 634.9 106.01 624.04 105.6 613.17 102.95 602.31 98.62 591.44 93.53 580.58 88.74 569.72 85.27 558.85 83.85 547.99 84.77 537.12 87.84 526.26 92.42 515.39 97.54 504.53 102.12 493.66 105.19 482.8 106.12 471.94 104.7 461.07 101.24 450.21 96.45 439.34 91.36 428.48 87.03 417.61 84.38 406.75 83.96 395.88 85.86 385.02 89.69 374.16 94.63 363.29 99.64 352.43 103.68 341.56 105.88 330.7 105.79 319.83 103.42 308.97 99.28 298.11 94.23 287.24 89.34 276.38 85.64 265.51 83.91 254.65 84.51 243.78 87.32 232.92 91.74 222.06 96.85 211.19 101.56 200.33 104.89 189.46 106.13 178.6 105.03 167.73 101.81 156.87 97.15 146.01 92.04 135.14 87.54 124.28 84.62 113.41 83.88 102.55 85.47 91.68 89.08 80.82 93.92 69.96 98.99 59.09 103.22 48.23 105.71 37.36 115.21 34.45 124.13 31.71 140.53 25.87 156.23 19.02 164.02 14.68 171.96 9.71 180.14 4.1 188.65 -2.12 197.52 -8.9 206.75 -16.12 216.34 -23.66 226.22 -31.38 236.34 -39.13 246.6 -46.77 256.92 -54.16 267.21 -61.21 277.38 -67.83 287.37 -73.97 297.14 -79.62 306.66 -84.81 315.93 -89.57 324.99 -94 333.9 -98.17 342.73 -102.2 351.56 -106.2 360.49 -110.27 369.61 -114.5 379.02 -118.98 388.77 -123.75 398.9 -128.85 409.45 -134.28 420.38 -140.03 431.65 -146.06 443.18 -152.31 454.86 -158.72 466.57 -165.21 478.16 -171.7 489.49 -178.14 500.42 -184.45 510.82 -190.61 520.6 -196.58 529.69 -202.35 538.07 -207.93 545.75 -213.34 559.15 -223.8 571.47 -234.13 583.91 -244.68 597.69 -255.53 605.84 -261.14 614.96 -266.84 625.12 -272.59 636.36 -278.37 648.63 -284.12 661.85 -289.82 675.84 -295.43 690.41 -300.93 712.76 -308.9 720.22 -311.52" stroke-dasharray="7 5" transform="rotate(16.16, 711, 400)" opacity="0.85"></path><path d="M691.97 -279.02Q698.12 -273.62 705.25 -268.32 713.51 -263.12 723 -257.98 733.75 -252.9 745.74 -247.84 758.86 -242.76 772.95 -237.62 787.82 -232.4 803.19 -227.07 818.78 -221.61 834.25 -216.02 849.3 -210.29 863.6 -204.45 876.88 -198.53 888.89 -192.58 899.46 -186.63 908.45 -180.74 920.93 -169.45 929.15 -158.76 934.85 -142.76 939.76 -132.17 950.01 -123.81 965.47 -114.93 976.55 -110.02 989.55 -104.75 1004.32 -99.1 1020.62 -93.08 1038.16 -86.7 1056.52 -80 1075.29 -73.07 1094 -65.98 1112.16 -58.85 1129.32 -51.78 1145.05 -44.89 1159.01 -38.28 1170.92 -32.05 1180.58 -26.27 1193.85 -4.81 1191.38 3.93 1195.06 16.54 1207.86 28.12 1218.66 34.2 1232.1 40.92 1248.01 48.24 1266.11 56.03 1288.96 66.49 1313.74 76.96 1335.69 87.42 1350.58 97.89 1355.56 108.35 1349.66 118.81 1334.02 129.28 1311.65 139.74 1286.84 150.21 1264.38 160.67 1248.56 171.13 1242.44 181.6 1247.2 192.06 1261.91 202.53 1283.75 212.99 1308.52 223.45 1331.46 233.92 1348.16 244.38 1355.41 254.85 1351.81 265.31 1338.06 275.77 1316.8 286.24 1292.12 296.7 1268.76 307.16 1251.21 317.63 1242.85 328.09 1245.28 338.56 1258.04 349.02 1278.67 359.48 1303.21 369.95 1326.94 380.41 1345.3 390.88 1354.75 401.34 1353.49 411.8 1341.75 422.27 1321.8 432.73 1297.46 443.19 1273.41 453.66 1254.28 464.12 1243.75 474.59 1243.84 485.05 1254.53 495.51 1273.77 505.98 1297.86 516.44 1322.16 526.9 1342.01 537.37 1353.6 547.83 1354.68 558.3 1345.07 568.76 1326.59 579.22 1302.81 589.69 1278.3 600.15 1257.76 610.61 1245.15 621.08 1242.9 631.54 1251.42 642.01 1269.09 652.47 1292.51 662.93 1317.18 673.4 1338.35 683.86 1351.95 694.32 1355.38 704.79 1347.96 715.25 1331.14 725.71 1310.77 722.89 1289.59 721.27 1268.2 721.25 1247.19 723.18 1227.13 727.27 1208.53 733.62 1191.83 742.18 1177.33 752.79 1165.28 765.15 1155.74 778.88 1148.7 793.49 1143.99 808.45 1141.36 823.2 1140.44 837.17 1140.8 849.85 1141.94 860.81 1137.04 877.2 1122.66 871.32 1112.01 866.35 1099.33 861.62 1084.84 857.71 1068.83 855.18 1051.68 854.5 1033.8 856.03 1015.63 860.02 997.62 866.56 980.19 875.61 963.73 886.96 948.56 900.3 934.95 915.15 923.06 930.99 912.99 947.19 904.73 963.13 898.18 978.19 893.16 991.78 889.44 1003.4 876.43 1018.11 865.83 1009.64 859.03 1003.42 850.77 997.49 841.04 992.51 829.93 989.08 817.58 987.73 804.19 988.87 789.99 992.76 775.27 999.51 760.32 1009.05 745.43 1021.16 730.87 1035.46 716.91 1051.45 703.74 1068.51 691.54 1085.96 674.58 1098.67 662.89 1096.39 657.45 1089.23 651.29 1079.34 644.31 1067.01 636.42 1052.66 627.62 1036.83 617.93 1020.15 607.43 1003.28 596.23 986.9 584.48 971.64 572.33 958.07 559.96 946.66 547.56 937.74 535.28 931.5 523.29 927.98 511.7 927.04 500.62 928.41 490.11 931.69 480.19 936.36 470.86 941.83 462.07 947.46 445.96 955.93 430.67 959.66 423.22 957.75 415.7 953.3 408.03 946.29 400.12 936.83 391.91 925.2 383.38 911.78 374.53 897.06 365.37 881.59 355.94 865.97 346.31 850.79 336.55 836.64 326.72 824.01 316.92 813.31 307.21 804.84 297.65 798.76 288.3 795.09 279.16 793.71 270.26 794.38 261.56 796.73 253.03 800.29 244.61 804.55 236.23 808.94 227.81 812.89 219.26 815.88 210.51 817.44 201.48 817.17 192.12 814.81 182.39 810.21 172.28 803.35 161.81 794.34 151.02 783.42 139.98 770.93 128.79 757.31 117.54 743.05 114.7 732.41 113.44 721.76 114.02 711.11 116.32 700.47 119.91 689.82 124.08 679.17 128.05 668.53 131.04 657.88 132.48 647.23 132.1 636.59 129.96 625.94 126.49 615.3 122.34 604.65 118.31 594 115.19 583.36 113.56 572.71 113.74 562.06 115.7 551.42 119.06 540.77 123.18 530.12 127.25 519.48 130.51 508.83 132.32 498.18 132.33 487.54 130.55 476.89 127.32 466.24 123.25 455.6 119.13 444.95 115.75 434.3 113.76 423.66 113.55 413.01 115.15 402.36 118.26 391.72 122.27 381.07 126.43 370.42 129.92 359.78 132.08 349.13 132.49 338.48 131.07 327.84 128.1 317.19 124.15 306.54 119.97 295.9 116.37 285.25 114.05 274.6 113.44 263.96 114.66 253.31 117.49 242.66 121.37 232.02 125.57 221.37 129.26 210.72 131.75 200.08 132.56 189.43 131.52 178.78 128.84 168.14 125.04 157.49 120.84 146.84 117.06 136.2 114.41 125.55 113.41 114.9 114.25 104.26 116.77 93.61 120.49 82.96 124.68 72.32 128.55 61.67 138.93 59.19 148.82 56.39 158.24 53.13 167.23 49.31 175.83 44.86 184.13 39.75 192.23 34 200.21 27.65 208.17 20.78 216.21 13.51 224.4 5.97 232.79 -1.7 241.44 -9.37 250.34 -16.89 259.5 -24.14 268.88 -31.01 278.43 -37.42 288.09 -43.34 297.79 -48.75 307.45 -53.66 317.01 -58.12 326.4 -62.2 335.56 -66 344.48 -69.6 353.13 -73.13 361.54 -76.7 369.74 -80.4 377.78 -84.32 385.75 -88.54 393.73 -93.1 401.82 -98.02 410.11 -103.31 418.71 -108.95 427.68 -114.9 437.08 -121.08 446.96 -127.44 457.32 -133.9 468.13 -140.37 479.35 -146.8 490.88 -153.09 502.62 -159.22 514.44 -165.14 526.18 -170.82 537.71 -176.27 548.86 -181.49 559.5 -186.52 569.51 -191.39 578.8 -196.16 587.32 -200.86 595.06 -205.56 608.03 -215.16 619.32 -225.07 629.5 -235.58 640.24 -246.4 646.47 -251.91 653.5 -257.44 661.49 -262.94 670.53 -268.38 686.33 -276.38 691.97 -279.02" stroke-dasharray="10 3" transform="rotate(20.200000000000003, 711, 400)" opacity="0.81"></path><path d="M693.31 -246.52Q705.39 -241.66 718.27 -236.88 731.78 -232.16 745.74 -227.48 759.92 -222.81 774.07 -218.1 787.93 -213.33 801.28 -208.46 813.86 -203.46 825.49 -198.3 835.98 -192.98 845.23 -187.5 859.16 -176.05 869.35 -164.31 874.8 -152.58 878.81 -141.19 883.42 -130.81 890.2 -121.24 903.13 -112.98 920.72 -105.33 932.35 -101.7 945.51 -98.07 960.05 -94.37 975.74 -90.49 992.29 -86.38 1009.37 -81.96 1026.62 -77.18 1043.66 -72 1060.1 -66.42 1075.58 -60.44 1089.78 -54.09 1102.42 -47.44 1113.29 -40.55 1122.26 -33.52 1133.44 -19.55 1139.3 -6.14 1137.27 12.48 1135.54 23.14 1140.02 28.98 1150.02 34.12 1158.77 36.61 1169.81 39.26 1183.06 42.22 1198.38 45.61 1215.5 49.54 1234.08 54.08 1253.72 59.27 1273.93 65.14 1296.12 74.91 1313.92 84.67 1324.22 94.43 1325.23 104.2 1316.77 113.96 1300.32 123.73 1278.74 133.49 1255.81 143.25 1235.54 153.02 1221.45 162.78 1216.02 172.55 1220.18 182.31 1233.22 192.07 1252.86 201.84 1275.66 211.6 1297.65 221.37 1314.98 231.13 1324.63 240.9 1324.92 250.66 1315.79 260.42 1298.84 270.19 1277.02 279.95 1254.16 289.72 1234.23 299.48 1220.72 309.24 1216 319.01 1220.87 328.77 1234.5 338.54 1254.5 348.3 1277.38 358.07 1299.15 367.83 1316 377.59 1324.99 387.36 1324.55 397.12 1314.76 406.89 1297.33 416.65 1275.3 426.41 1252.51 436.18 1232.96 445.94 1220.04 455.71 1216.03 465.47 1221.61 475.24 1235.82 485 1256.17 494.76 1279.11 504.53 1300.63 514.29 1316.98 524.06 1325.29 533.82 1324.13 543.59 1313.69 553.35 1295.79 563.11 1273.56 572.88 1250.89 582.64 1231.72 592.41 1219.42 602.17 1216.12 611.94 1222.4 621.7 1237.17 631.46 1257.85 641.23 1280.82 650.99 1302.08 660.76 1317.91 670.52 1317.77 686.16 1294.32 695.91 1276.99 701.76 1258.39 709.58 1238.99 719.22 1219.28 730.47 1199.73 743.01 1180.83 756.45 1163.01 770.36 1146.64 784.28 1132.04 797.73 1119.43 810.25 1108.95 821.46 1100.61 830.99 1080.22 828.08 1067.01 824.18 1057.7 827.28 1046.62 832.63 1033.93 840.22 1019.83 849.94 1004.59 861.55 988.54 874.74 972.01 889.07 955.37 904.08 938.95 919.22 923.11 933.98 908.12 947.83 894.26 960.29 881.71 970.96 870.6 979.53 853.64 988.5 840.91 990.55 829.65 975.55 823.06 962.75 806.85 960.7 789.88 970.77 780.42 980.41 769.86 992.25 758.31 1005.96 745.94 1021.09 732.95 1037.12 719.54 1053.46 709.11 1063.34 696.16 1068.73 688.05 1067.78 678.99 1064.37 669.03 1058.41 658.28 1049.98 646.86 1039.27 634.93 1026.6 622.66 1012.39 610.22 997.13 597.79 981.37 585.54 965.67 573.63 950.59 562.18 936.67 551.28 924.34 541.01 913.99 531.4 905.88 522.44 900.15 506.59 896.79 492.14 899.49 478.96 908.48 465.82 918.3 451.75 924.38 436.68 925.59 428.48 922.62 419.9 917.39 410.97 909.92 401.74 900.37 392.28 888.98 382.65 876.11 372.95 862.18 363.24 847.67 353.59 833.08 344.08 818.92 334.74 805.65 325.6 793.71 316.68 783.44 307.98 775.11 299.46 768.87 291.09 764.75 274.58 763.34 257.97 766.67 249.46 770.2 240.75 774.1 231.8 777.9 222.59 781.14 213.12 783.38 203.41 784.25 193.5 783.44 183.44 780.77 173.3 776.11 163.18 769.47 153.16 760.95 143.32 750.75 143.05 740.36 144.16 729.98 146.46 719.59 149.56 709.21 152.9 698.83 155.91 688.44 158.05 678.06 158.97 667.68 158.49 657.29 156.7 646.91 153.91 636.52 150.61 626.14 147.38 615.76 144.77 605.37 143.26 594.99 143.09 584.61 144.3 574.22 146.67 563.84 149.81 553.45 153.14 543.07 156.1 532.69 158.17 522.3 158.98 511.92 158.4 501.54 156.52 491.15 153.67 480.77 150.36 470.38 147.15 460 144.62 449.62 143.19 439.23 143.13 428.85 144.44 418.47 146.89 408.08 150.06 397.7 153.38 387.32 156.29 376.93 158.28 366.55 158.99 356.16 158.3 345.78 156.33 335.4 153.43 325.01 150.11 314.63 146.93 304.25 144.47 293.86 143.14 283.48 143.18 273.1 144.59 262.71 147.11 252.33 150.31 241.95 153.62 231.56 156.48 221.18 158.38 210.79 158.98 200.41 158.19 190.03 156.14 179.64 153.19 169.26 149.86 158.88 146.72 148.49 144.33 138.11 143.1 127.73 143.24 117.34 144.74 106.96 147.33 96.58 150.56 86.19 160.91 82.7 171.01 78.59 180.8 73.81 190.26 68.39 199.39 62.35 208.21 55.76 216.74 48.74 225.04 41.38 233.18 33.84 241.21 26.24 249.23 18.72 257.28 11.41 265.44 4.43 273.76 -2.13 282.26 -8.22 290.96 -13.8 299.87 -18.84 308.97 -23.38 318.21 -27.46 327.55 -31.15 336.93 -34.54 346.29 -37.73 355.55 -40.82 364.64 -43.93 373.52 -47.16 382.13 -50.6 390.45 -54.33 398.46 -58.41 406.18 -62.86 413.63 -67.72 420.88 -72.96 427.97 -78.56 435.02 -84.47 442.1 -90.62 449.32 -96.95 456.79 -103.36 464.6 -109.8 472.83 -116.17 481.55 -122.4 490.8 -128.45 500.6 -134.26 510.94 -139.82 521.78 -145.1 533.05 -150.13 544.65 -154.91 556.45 -159.48 568.33 -163.88 580.13 -168.18 591.69 -172.42 602.86 -176.65 613.5 -180.92 623.48 -185.29 632.72 -189.77 641.14 -194.4 655.06 -204.2 666.7 -214.43 675.68 -225.11 684.09 -235.88 690.89 -243.88 693.31 -246.52" stroke-dasharray="0 3" transform="rotate(24.24, 711, 400)" opacity="0.77"></path><path d="M722.17 -214.01Q734.66 -209.66 746.69 -205.37 758.07 -201.13 768.65 -196.89 778.31 -192.63 786.96 -188.3 800.54 -179.21 811.07 -169.64 817.59 -159.12 822.76 -148.07 827.94 -136.43 834.58 -124.73 845.78 -113.46 860.64 -102.79 870.4 -97.9 881.49 -93.32 893.85 -89.04 907.33 -85.05 921.75 -81.34 936.89 -77.86 952.48 -74.55 968.25 -71.34 983.88 -68.16 999.07 -64.93 1013.54 -61.56 1027.01 -57.98 1039.24 -54.12 1050.06 -49.9 1066.12 -40.07 1077.33 -28.98 1081.42 -16.11 1082.47 -2.52 1081.53 11.28 1081.48 24.6 1086.28 36.16 1095.67 46.25 1103.51 50.37 1113.27 53.95 1124.95 57.06 1138.44 59.75 1153.56 62.12 1170.08 64.27 1187.67 66.34 1206 68.45 1224.66 70.74 1243.24 73.33 1261.33 76.34 1278.51 79.87 1291.25 89.13 1296.37 98.38 1293.07 107.63 1281.86 116.88 1264.52 126.13 1243.79 135.39 1222.93 144.64 1205.23 153.89 1193.5 163.14 1189.58 172.4 1194.08 181.65 1206.31 190.9 1224.33 200.15 1245.29 209.4 1265.89 218.66 1282.88 227.91 1293.57 237.16 1296.28 246.41 1290.58 255.66 1277.37 264.92 1258.73 274.17 1237.61 283.42 1217.34 292.67 1201.12 301.92 1191.51 311.18 1190.02 320.43 1196.89 329.68 1211.04 338.93 1230.23 348.18 1251.44 357.44 1271.31 366.69 1286.72 375.94 1295.22 385.19 1295.48 394.44 1287.46 403.7 1272.42 412.95 1252.74 422.2 1231.51 431.45 1212.11 440.7 1197.57 449.96 1190.21 459.21 1191.17 468.46 1200.32 477.71 1216.2 486.96 1236.31 496.22 1257.47 505.47 1276.35 514.72 1289.97 523.97 1296.17 533.22 1293.98 542.48 1283.75 551.73 1267.08 560.98 1246.61 570.23 1225.57 579.48 1207.28 588.73 1194.63 597.99 1189.61 607.24 1193.02 616.49 1204.31 625.74 1221.71 634.99 1242.46 644.25 1263.31 653.5 1280.94 662.75 1292.59 672 1286.77 679.64 1278.85 688.86 1268.84 699.45 1256.84 711.16 1243.04 723.67 1227.69 736.61 1211.1 749.59 1193.62 762.23 1175.63 774.14 1157.53 784.98 1139.71 794.44 1122.53 802.29 1106.36 808.37 1091.46 812.61 1078.1 815 1066.42 815.65 1049.38 812.05 1037.58 805.57 1029.63 801.11 1024.61 815.5 1020.1 825.82 1014.11 837.63 1006.59 850.6 997.55 864.36 987.05 878.48 975.22 892.51 962.23 906.02 948.29 918.58 933.66 929.81 918.61 939.4 903.41 947.1 888.35 952.75 873.69 956.3 859.68 957.79 846.53 957.36 834.4 955.25 823.42 951.77 813.67 947.32 798.44 937.43 786.59 928.72 774.35 930.42 766.64 942.2 763.12 951.83 759.01 963.33 754.16 976.41 748.45 990.68 741.82 1005.69 734.22 1020.95 724.31 1026.26 713.6 1030.69 702.23 1033.81 690.33 1035.27 678.08 1034.76 665.66 1032.11 653.24 1027.24 640.98 1020.15 629.05 1010.97 617.57 999.94 606.66 987.35 596.4 973.6 586.83 959.11 577.97 944.36 569.81 929.82 562.31 915.94 555.39 903.16 548.97 891.85 537.25 875.78 525.96 865.88 514.21 865.82 501.6 870.4 494.62 874.54 487.19 879.1 479.31 883.61 471 887.64 462.28 890.78 453.22 892.64 443.88 892.94 434.34 891.43 424.68 887.98 414.97 882.54 405.29 875.16 395.72 865.97 386.3 855.2 377.09 843.16 368.12 830.18 359.39 816.68 350.9 803.07 342.64 789.76 334.56 777.17 326.63 765.65 318.79 755.51 310.98 747 303.16 740.28 295.27 735.42 279 731.92 262.19 733.03 253.46 735.62 244.56 738.84 235.52 742.3 226.39 745.61 217.22 748.38 208.07 750.26 199.02 750.94 190.12 750.17 177.93 740.73 176.54 723.74 179.05 713.78 181.55 703.82 183.64 693.86 185 683.9 185.41 673.95 184.8 663.99 183.28 654.03 181.08 644.07 178.55 634.11 176.09 624.16 174.08 614.2 172.85 604.24 172.59 594.28 173.34 584.32 174.97 574.37 177.24 564.41 179.79 554.45 182.21 544.49 184.12 534.53 185.22 524.57 185.33 514.62 184.45 504.66 182.7 494.7 180.37 484.74 177.81 474.78 175.45 464.83 173.64 454.87 172.67 444.91 172.7 434.95 173.73 424.99 175.58 415.03 177.97 405.08 180.52 395.12 182.83 385.16 184.53 375.2 185.36 365.24 185.18 355.28 184.02 345.33 182.07 335.37 179.63 325.41 177.09 315.45 174.85 305.49 173.26 295.54 172.58 285.58 172.9 275.62 174.19 265.66 176.23 255.7 178.71 245.74 181.23 235.79 183.4 225.83 184.87 215.87 185.41 205.91 184.94 195.95 183.53 185.99 181.4 176.04 178.89 166.08 176.4 156.12 174.31 146.16 172.96 136.2 172.57 126.24 173.18 116.29 174.71 106.33 184.3 101.04 193.85 95.14 203.28 88.72 212.57 81.85 221.65 74.65 230.51 67.24 239.14 59.76 247.54 52.33 255.75 45.08 263.78 38.12 271.7 31.54 279.55 25.42 287.38 19.81 295.25 14.73 303.22 10.18 311.33 6.12 319.61 2.51 328.08 -0.71 336.75 -3.66 345.62 -6.42 354.65 -9.09 363.81 -11.79 373.06 -14.61 382.33 -17.65 391.56 -20.97 400.68 -24.64 409.62 -28.71 418.32 -33.18 426.73 -38.07 434.8 -43.34 442.53 -48.97 449.89 -54.88 456.9 -61.03 463.6 -67.32 470.04 -73.69 476.29 -80.04 488.61 -92.33 501.23 -104.01 507.97 -109.38 515.12 -114.46 522.74 -119.25 530.92 -123.76 539.69 -128.03 549.06 -132.09 559.03 -136 569.56 -139.81 580.58 -143.58 592.01 -147.37 603.72 -151.22 615.59 -155.18 627.47 -159.28 639.19 -163.56 650.61 -168.01 661.58 -172.66 671.97 -177.48 681.64 -182.47 690.52 -187.59 698.55 -192.81 716.87 -208.71 722.17 -214.01" stroke-dasharray="1 3" transform="rotate(28.28, 711, 400)" opacity="0.73"></path><path d="M733.62 -181.51Q745.73 -173.83 755.49 -166.22 766.64 -152.03 774.06 -141.05 782.02 -131.02 792.23 -120.36 798.98 -114.74 806.8 -109 815.72 -103.21 825.75 -97.4 836.83 -91.65 848.87 -86.02 861.74 -80.55 875.29 -75.3 889.32 -70.31 903.61 -65.62 917.94 -61.25 932.07 -57.21 945.76 -53.47 958.79 -50.04 970.95 -46.85 982.07 -43.87 999.94 -38.26 1013.79 -32.62 1023.57 -20.29 1026.16 -9.66 1026.53 1.34 1028.08 13.48 1034.19 26.87 1044.31 40.51 1052.04 47.23 1061.4 53.73 1072.36 59.93 1084.84 65.73 1098.71 71.07 1113.77 75.91 1129.77 80.21 1146.45 83.98 1163.5 87.23 1180.58 90 1197.36 92.37 1213.51 94.41 1228.73 96.23 1242.71 97.95 1260.48 105.07 1258.15 119.37 1244.46 128.29 1226.59 137.2 1207.08 146.11 1188.69 155.02 1174.03 163.94 1165.18 172.85 1163.39 181.76 1168.93 190.68 1181 199.59 1197.89 208.5 1217.21 217.41 1236.22 226.33 1252.21 235.24 1262.92 244.15 1266.84 253.06 1263.4 261.98 1253.1 270.89 1237.39 279.8 1218.51 288.72 1199.12 297.63 1181.99 306.54 1169.54 315.45 1163.54 324.37 1164.83 333.28 1173.24 342.19 1187.58 351.1 1205.8 360.02 1225.33 368.93 1243.39 377.84 1257.42 386.76 1265.44 395.67 1266.3 404.58 1259.88 413.49 1247.1 422.41 1229.76 431.32 1210.33 440.23 1191.56 449.15 1176.11 458.06 1166.18 466.97 1163.18 475.88 1167.52 484.8 1178.6 493.71 1194.84 502.62 1213.94 511.54 1233.19 520.45 1249.86 529.36 1261.58 538.27 1266.7 547.19 1264.48 556.1 1255.24 565.01 1240.29 573.93 1221.76 582.84 1202.26 591.75 1184.58 600.66 1171.2 609.58 1164.04 618.49 1164.11 627.4 1171.39 636.32 1184.86 645.23 1202.61 654.14 1222.11 663.05 1240.6 671.97 1240.47 683.13 1239.02 694.89 1236.04 706.94 1231.39 718.97 1224.97 730.63 1216.77 741.64 1206.83 751.7 1195.25 760.57 1182.2 768.05 1167.89 774 1152.57 778.34 1136.53 781.08 1120.07 782.27 1103.51 782.05 1087.15 780.6 1071.31 778.18 1056.26 775.07 1042.23 771.6 1029.43 768.12 1018.01 764.96 1000.41 761.56 987.28 761.83 980.65 769.98 976.89 783.23 976.1 792.65 975.52 803.41 974.89 815.26 973.96 827.88 972.46 840.93 970.21 854.06 966.99 866.9 962.69 879.08 957.18 890.27 950.42 900.18 942.39 908.57 933.14 915.25 922.74 920.13 911.31 923.17 899.01 924.43 886.03 924.03 872.55 922.18 858.8 919.12 845 915.2 831.36 910.75 818.09 906.17 805.37 901.84 793.35 898.15 782.17 895.46 771.93 894.09 762.67 894.3 747.64 901.16 735.39 913.77 730.66 923.3 726.53 934.41 722.84 946.83 719.42 960.23 716.11 974.24 712.73 988.46 700.46 993.25 688.45 997.31 676.85 1000.25 665.76 1001.78 655.3 1001.65 645.53 999.67 636.49 995.75 628.2 989.88 620.63 982.13 613.75 972.66 607.5 961.67 601.77 949.47 596.48 936.38 591.49 922.78 586.7 909.06 581.97 895.61 577.18 882.81 572.23 871 567 860.5 561.42 851.53 548.69 839.78 534.48 833.49 526.52 833.35 518.1 834.67 509.28 837.18 500.13 840.58 490.71 844.51 481.11 848.61 471.41 852.51 461.7 855.85 452.05 858.3 442.53 859.56 433.2 859.41 424.12 857.66 415.3 854.2 406.77 849.01 398.52 842.13 390.56 833.67 382.84 823.81 375.34 812.79 368.01 800.89 360.8 788.44 353.66 775.79 346.53 763.27 339.36 751.22 332.1 739.97 324.72 729.79 317.2 720.92 309.51 713.51 301.65 707.7 285.4 701.66 268.81 700.05 252.08 703.9 235.54 709.42 213.03 711.42 208.14 698.93 209.8 689.58 211.06 680.24 211.75 670.89 211.75 661.54 211.08 652.2 209.83 642.85 208.18 633.5 206.35 624.16 204.62 614.81 203.22 605.46 202.36 596.12 202.15 586.77 202.63 577.43 203.72 568.08 205.28 558.73 207.08 549.39 208.87 540.04 210.39 530.69 211.43 521.35 211.83 512 211.55 502.65 210.62 493.31 209.18 483.96 207.42 474.62 205.6 465.27 203.98 455.92 202.79 446.58 202.19 437.23 202.27 427.88 203.02 418.54 204.33 409.19 206.02 399.85 207.85 390.5 209.55 381.15 210.89 371.81 211.68 362.46 211.8 353.11 211.24 343.77 210.07 334.42 208.47 325.07 206.66 315.73 204.89 306.38 203.42 297.04 202.46 287.69 202.13 278.34 202.5 269 203.5 259.65 205 250.31 206.78 240.96 208.58 231.61 210.17 222.27 211.29 212.92 211.81 203.57 211.65 194.23 210.82 184.88 209.45 175.54 207.73 166.19 205.9 156.84 204.23 147.5 202.95 138.15 202.24 128.8 202.2 119.46 210.73 112.65 219.35 105.54 228.01 98.25 236.64 90.92 245.21 83.64 253.66 76.55 261.98 69.75 270.13 63.32 278.12 57.33 285.93 51.85 301.08 42.7 315.95 35.06 330.8 29.4 345.91 24.47 361.85 19.78 378.44 14.66 387.13 11.65 396.01 8.28 405.06 4.52 414.23 0.33 423.46 -4.26 432.7 -9.27 441.87 -14.64 450.91 -20.33 459.74 -26.28 468.3 -32.42 476.53 -38.67 484.4 -44.95 491.87 -51.19 498.92 -57.31 511.65 -68.83 523.35 -79.53 534.02 -88.71 544.61 -97.02 556.12 -104.21 568.79 -111.03 576.01 -114.37 583.84 -117.74 592.32 -121.21 601.44 -124.82 611.19 -128.6 621.53 -132.58 632.4 -136.76 643.69 -141.16 655.3 -145.76 667.09 -150.55 678.93 -155.5 690.67 -160.59 702.15 -165.77 713.22 -171.01 728.69 -178.89 733.62 -181.51" stroke-dasharray="10 10" transform="rotate(32.32, 711, 400)" opacity="0.70"></path><path d="M709.84 -149.02Q716.24 -142.21 723.31 -135.47 732.17 -128.47 743.75 -120.89 758.66 -112.5 777.1 -103.17 798.82 -92.93 823.09 -81.96 848.81 -70.59 874.6 -59.24 899.03 -48.38 920.76 -38.41 938.73 -29.65 952.36 -22.2 965.57 -10.94 970.83 -0.99 972.54 4.61 976.43 11.44 984.02 19.85 996.42 29.95 1014.16 41.61 1037.08 54.43 1064.32 67.8 1094.45 81 1125.58 93.28 1155.62 104.03 1182.57 112.82 1204.75 119.53 1221.02 124.35 1231.02 127.8 1204.3 145.09 1169.09 162.38 1142.65 179.67 1137.97 196.96 1157.34 214.25 1191.25 231.54 1223.07 248.83 1237.18 266.12 1226.67 283.41 1196.68 300.7 1161.93 317.99 1139.48 335.28 1140.34 352.57 1164.08 369.87 1199.07 387.16 1228.12 404.45 1236.99 421.74 1221.32 439.03 1188.8 456.32 1155.39 473.61 1137.48 490.9 1143.86 508.19 1171.4 525.48 1206.59 542.77 1232.15 560.07 1235.56 577.36 1215.12 594.65 1180.88 611.94 1149.64 629.23 1136.72 646.52 1148.46 663.81 1179.11 681.1 1181.96 702.64 1182.99 721.48 1180.25 735.99 1172.36 745.2 1158.61 748.91 1139.07 747.77 1114.54 743.2 1086.4 737.13 1056.45 731.78 1026.67 729.3 998.92 731.42 974.73 739.22 955.14 752.9 940.55 771.79 930.72 794.39 924.8 818.63 921.51 842.15 919.26 862.64 916.42 878.24 911.51 887.82 903.36 891.11 891.3 888.84 875.15 882.57 855.29 874.52 832.55 867.19 808.07 863.03 783.16 864.02 759.11 871.41 737.04 885.47 717.73 905.46 701.57 929.74 688.52 955.96 673.49 963.96 661.29 968.28 651.37 967.04 642.95 959.2 635.07 944.74 626.81 924.66 617.34 900.75 606.07 875.37 592.7 851.08 577.22 830.22 559.93 814.58 541.32 805.14 522.04 801.94 502.74 804.07 484.03 809.84 466.36 817.03 449.96 823.25 434.88 826.28 420.94 824.44 407.81 816.78 395.08 803.26 382.33 784.72 369.19 762.74 355.43 739.38 340.95 716.89 325.83 697.35 310.27 682.34 294.55 672.76 279 668.66 263.89 669.27 249.37 673.13 235.5 678.3 237.49 661.06 238.26 643.82 237.42 626.58 235.38 609.34 233.15 592.1 231.82 574.86 232.04 557.62 233.71 540.38 236 523.14 237.79 505.9 238.21 488.66 237.04 471.42 234.87 454.18 232.75 436.94 231.73 419.7 232.3 402.46 234.2 385.22 236.48 367.98 238.02 350.75 238.08 333.51 236.62 316.27 234.35 299.03 232.4 281.79 231.71 264.55 232.63 247.31 234.71 230.07 236.92 212.83 238.18 195.59 237.87 178.35 236.15 161.11 233.86 143.87 232.12 126.63 247.45 112.45 263.17 99.13 278.97 87.34 294.53 77.49 309.62 69.69 324.11 63.72 338.03 59.09 351.56 55.15 364.98 51.17 378.65 46.46 392.93 40.47 408.09 32.88 424.3 23.64 441.51 12.94 459.51 1.18 477.91 -11.08 496.21 -23.28 513.82 -34.87 530.23 -45.44 545.03 -54.76 558.04 -62.81 569.29 -69.76 579.14 -75.96 588.15 -81.82 597.07 -87.79 606.75 -94.25 617.98 -101.5 631.42 -109.65 647.45 -118.68 666.13 -128.44 687.15 -138.65 709.84 -149.02 709.84 -149.02 709.84 -149.02" stroke-dasharray="5 0" transform="rotate(36.36, 711, 400)" opacity="0.66"></path><path d="M687.84 -116.52Q701.01 -110.55 716.96 -104.62 735.63 -98.4 756.64 -91.59 779.28 -83.94 802.64 -75.31 825.64 -65.7 847.19 -55.26 866.33 -44.26 882.32 -33.08 894.76 -22.16 903.66 -11.91 912.33 4.57 917.65 17.28 921.58 21.8 928.23 25.88 938.59 30.06 953.23 34.89 972.26 40.85 995.26 48.32 1021.35 57.44 1049.25 68.17 1077.41 80.19 1104.21 93.04 1128.11 106.08 1147.88 118.63 1162.68 130.04 1172.27 139.81 1176.96 147.64 1177.68 153.47 1145.55 170.12 1119.28 186.77 1110.36 203.41 1122.68 220.06 1150.86 236.71 1182.59 253.36 1204 270 1205.76 286.65 1187.08 303.3 1156.13 319.94 1126.43 336.59 1110.95 353.24 1116.45 369.88 1140.53 386.53 1172.68 403.18 1198.84 419.82 1207.59 436.47 1195.11 453.12 1166.85 469.77 1135.15 486.41 1113.87 503.06 1112.29 519.71 1131.11 536.35 1162.1 553 1191.74 569.65 1207.07 586.29 1201.39 602.94 1177.2 619.59 1145.05 636.23 1118.98 652.88 1110.39 669.53 1123.03 686.17 1123.24 710.11 1115.81 707.68 1104.13 702.47 1087.58 698.77 1066.62 698.2 1042.19 701.98 1015.57 710.76 988.27 724.54 961.8 742.62 937.51 763.72 916.46 786.11 899.32 807.88 886.26 827.17 877.01 842.42 861.16 850.4 847.55 838.89 836.98 833.42 823.14 831.44 806.16 834.37 786.57 842.98 765.13 857.27 742.78 876.49 720.52 899.2 699.27 923.46 685.86 932.45 669.94 928.11 658.94 916.2 645.71 899.1 630.34 878.08 613.16 854.94 594.68 831.7 575.53 810.39 556.37 792.75 537.8 780.01 520.29 772.7 504.15 770.65 489.49 772.97 476.22 778.22 464.07 784.55 452.68 790.05 441.61 792.9 430.45 791.7 418.83 785.58 406.49 774.36 393.34 758.54 379.39 739.23 364.79 717.98 349.79 696.58 334.67 676.8 319.7 660.18 305.1 647.81 291 640.18 277.42 637.16 264.24 637.99 264.68 622.18 264.38 606.38 263.47 590.58 262.35 574.77 261.5 558.97 261.31 543.16 261.84 527.36 262.88 511.55 263.96 495.75 264.62 479.94 264.56 464.14 263.82 448.33 262.71 432.53 261.72 416.72 261.29 400.92 261.59 385.11 262.51 369.31 263.63 353.5 264.47 337.7 264.66 321.89 264.12 306.09 263.08 290.28 262 274.47 261.35 258.67 261.41 242.86 262.16 227.06 263.27 211.25 264.25 195.45 264.68 179.64 264.37 163.84 263.45 148.03 262.33 132.23 276.38 120.58 290.88 110.76 305.64 102.91 320.41 96.93 334.94 92.45 349 88.94 362.43 85.74 375.23 82.2 387.48 77.71 399.4 71.86 411.29 64.39 423.53 55.32 436.46 44.84 450.38 33.36 465.47 21.38 481.75 9.44 499.08 -1.93 517.13 -12.35 535.45 -21.54 553.51 -29.44 570.72 -36.14 586.59 -41.91 600.73 -47.12 612.96 -52.19 623.31 -57.54 632.08 -63.52 639.77 -70.36 647.08 -78.16 654.8 -86.88 663.73 -96.36 681.21 -111.43 687.84 -116.52" stroke-dasharray="7 1" transform="rotate(40.400000000000006, 711, 400)" opacity="0.62"></path><path d="M701.86 -84.02Q722.1 -78.84 742.99 -73.68 763.76 -68.22 783.6 -62.18 801.75 -55.31 817.58 -47.47 830.7 -38.61 840.96 -28.85 848.51 -18.38 853.78 -7.53 857.5 3.3 860.54 13.72 863.92 23.36 868.67 31.9 875.7 39.16 885.74 45.13 899.23 49.93 916.3 53.85 936.67 57.29 959.73 60.74 984.59 64.71 1010.1 69.66 1035.03 75.97 1058.15 83.84 1078.38 93.31 1094.89 104.21 1107.2 116.19 1115.25 128.77 1119.41 141.35 1120.46 153.33 1119.53 164.14 1117.97 173.36 1093.75 189.08 1083.88 204.8 1092.18 220.52 1115.45 236.24 1144.71 251.97 1168.67 267.69 1178.11 283.41 1169.36 299.13 1145.82 314.85 1116.56 330.57 1092.86 346.29 1083.86 362.02 1093.04 377.74 1116.85 393.46 1146.12 409.18 1169.55 424.9 1178.1 440.62 1168.48 456.35 1144.41 472.07 1115.15 487.79 1092 503.51 1083.89 519.23 1093.94 534.96 1118.28 550.68 1147.52 566.4 1170.38 582.12 1178.05 597.84 1167.56 613.56 1142.97 629.29 1113.76 645.01 1091.18 660.73 1083.96 676.45 1068.15 671.53 1061.14 668.32 1052.24 674.07 1039.34 684.16 1022.56 698.35 1002.41 715.91 979.69 735.72 955.46 756.33 930.86 776.22 907.04 793.9 885.02 808.13 865.6 818.08 849.29 823.39 836.28 824.28 820.2 815.63 809.87 804.1 800.4 802.97 786.47 814.85 775.55 829.15 762.05 847.48 746.14 868.61 728.25 890.96 718.55 897.38 706.61 901.26 692.46 901.3 676.34 896.65 658.68 887.03 640.04 872.75 621.05 854.66 602.32 834.04 584.41 812.46 567.72 791.58 552.53 772.96 538.92 757.85 526.79 747.1 515.9 741.01 505.9 739.35 496.37 741.35 486.87 745.83 477.02 751.35 466.49 756.35 455.09 759.36 442.73 759.16 429.47 754.94 415.45 746.37 400.92 733.62 386.13 717.38 371.37 698.7 356.88 678.94 342.81 659.54 329.26 641.88 316.2 627.12 303.54 616.06 291.11 609.04 291.09 594.44 291.03 579.84 290.95 565.24 290.89 550.64 290.86 536.05 290.88 521.45 290.94 506.85 291.02 492.25 291.08 477.65 291.11 463.06 291.09 448.46 291.03 433.86 290.95 419.26 290.89 404.66 290.86 390.07 290.88 375.47 290.94 360.87 291.02 346.27 291.09 331.67 291.11 317.08 291.09 302.48 291.02 287.88 290.95 273.28 290.88 258.69 290.86 244.09 290.88 229.49 290.95 214.89 291.03 200.29 291.09 185.7 291.11 171.1 291.08 156.5 291.02 141.9 304.13 134.48 317.7 128.85 331.65 124.72 345.84 121.64 360.04 119.03 374.03 116.3 387.58 112.89 400.5 108.32 412.68 102.3 424.13 94.7 434.95 85.59 445.35 75.22 455.63 63.96 466.15 52.29 477.27 40.71 489.32 29.68 502.55 19.59 517.09 10.68 532.93 3.06 549.89 -3.34 567.65 -8.73 585.76 -13.41 603.71 -17.77 620.93 -22.2 636.91 -27.07 651.25 -32.67 663.67 -39.2 674.11 -46.72 682.7 -55.16 689.81 -64.36 698.91 -79.05 701.86 -84.02" stroke-dasharray="10 10" transform="rotate(44.44, 711, 400)" opacity="0.58"></path><path d="M730.08 -51.52Q746.13 -47.07 760.35 -42.63 772.43 -37.92 782.28 -32.64 790 -26.58 795.89 -19.58 800.43 -11.57 804.25 -2.61 808.09 7.14 812.7 17.46 818.81 28.01 827.04 38.43 837.85 48.35 851.48 57.44 867.92 65.44 886.92 72.21 907.97 77.72 930.38 82.09 953.28 85.55 975.74 88.46 996.84 91.24 1015.74 94.34 1031.76 98.19 1044.47 103.17 1053.71 109.53 1059.63 117.42 1062.67 126.79 1063.56 137.46 1063.24 149.09 1062.77 161.23 1063.29 173.36 1065.85 184.94 1057.45 199.45 1064.42 213.96 1084.4 228.46 1110.65 242.97 1134.31 257.48 1147.41 271.99 1145.51 286.5 1129.26 301 1104.15 315.51 1078.64 330.02 1061.35 344.53 1058.11 359.03 1070.01 373.54 1093.04 388.05 1119.42 402.56 1140.26 417.06 1148.52 431.57 1141.42 446.08 1121.34 460.59 1095.07 475.09 1071.48 489.6 1058.51 504.11 1060.55 518.62 1076.91 533.12 1102.07 547.63 1127.54 562.14 1144.72 576.65 1147.82 591.15 1135.79 605.66 1112.7 620.17 1086.32 634.68 1065.57 649.18 1048.04 647.44 1034.32 644.09 1016.01 639.15 1012.15 648.45 1010.71 659.94 1007.37 674.61 1001.43 691.72 992.43 710.27 980.2 729.08 964.86 746.94 946.8 762.71 926.6 775.45 905.04 784.54 882.98 789.71 861.27 791.11 840.72 789.27 822 785.07 805.58 779.66 791.72 774.31 780.45 770.32 765.4 772.84 754.52 787 749.91 801.09 744.71 818.42 738.34 837.97 730.36 858.46 712.98 864.14 694.69 867.75 676.06 868.23 657.67 864.85 640.05 857.26 623.61 845.59 608.64 830.35 595.3 812.43 583.55 792.97 573.23 773.28 564.08 754.63 555.71 738.21 547.72 724.95 539.69 715.43 531.25 709.85 522.07 708.01 511.96 709.32 500.8 712.88 488.61 717.56 475.49 722.14 461.63 725.44 447.29 726.4 432.73 724.24 418.23 718.5 404.02 709.09 390.26 696.31 377.07 680.8 364.45 663.46 352.35 645.37 340.66 627.67 329.2 611.44 317.79 597.6 318.45 583.91 319.29 570.22 320.03 556.53 320.41 542.84 320.31 529.15 319.77 515.46 318.96 501.77 318.16 488.08 317.63 474.39 317.57 460.7 317.98 447.01 318.73 433.32 319.57 419.63 320.21 405.94 320.43 392.25 320.17 378.56 319.51 364.87 318.67 351.18 317.94 337.48 317.56 323.79 317.66 310.1 318.21 296.41 319.02 282.72 319.82 269.03 320.34 255.34 320.4 241.65 319.98 227.96 319.23 214.27 318.39 200.58 317.76 186.89 317.54 173.2 317.8 159.51 329.93 156.03 342.48 153.51 355.49 151.45 368.93 149.34 382.67 146.64 396.55 142.95 410.35 137.95 423.85 131.47 436.82 123.51 449.09 114.2 460.54 103.83 471.13 92.78 480.95 81.48 490.14 70.37 498.97 59.86 507.73 50.28 516.8 41.84 526.53 34.65 537.23 28.65 549.15 23.68 562.44 19.49 577.12 15.73 593.08 12.05 610.05 8.1 627.67 3.56 645.48 -1.78 662.96 -8.08 679.6 -15.35 694.94 -23.53 708.59 -32.45 725.2 -46.7 730.08 -51.52" stroke-dasharray="1 8" transform="rotate(48.48, 711, 400)" opacity="0.54"></path><path d="M728.59 -19.02Q740.61 -11.36 750.09 -2.95 754.56 2.29 759.72 8.41 766.09 15.5 774.12 23.54 784.14 32.45 796.36 42.04 810.79 52.07 827.31 62.23 845.59 72.19 865.17 81.64 885.47 90.29 905.83 97.91 925.55 104.37 943.97 109.64 960.49 113.79 974.66 117 993.57 121.81 1004.71 126.84 1007.15 135.8 1008.48 148.63 1010.53 157.48 1014.6 167.54 1021.31 178.54 1031.09 190.09 1038.78 203.24 1057.05 216.38 1080.57 229.52 1102.45 242.66 1116.32 255.8 1118.11 268.95 1107.31 282.09 1087.07 295.23 1063.31 308.37 1042.95 321.51 1031.96 334.66 1033.54 347.8 1047.23 360.94 1069.03 374.08 1092.57 387.22 1110.98 400.37 1118.88 413.51 1113.96 426.65 1097.66 439.79 1074.73 452.93 1051.89 466.08 1035.79 479.22 1031.15 492.36 1039.31 505.5 1057.9 518.65 1081.48 531.79 1103.17 544.93 1116.62 558.07 1117.92 571.22 1106.68 584.36 1086.18 597.5 1062.41 610.64 1040.46 607.42 1020.52 604.89 1003.18 603.87 988.79 605.07 977.5 609.01 969.2 615.95 963.57 625.91 960.1 638.63 958.14 653.59 956.93 670.07 955.71 687.21 953.7 704.07 950.25 719.71 944.82 733.31 937.03 744.21 926.7 751.98 913.85 756.47 898.68 757.82 881.56 756.47 862.99 753.08 843.57 748.52 823.93 743.78 804.7 739.86 786.44 737.72 769.63 738.16 754.62 741.76 741.58 748.83 730.56 759.37 721.44 773.06 713.95 789.31 707.73 807.27 702.32 825.95 685.76 830.93 670.5 834.25 656.76 835.06 644.66 832.72 634.13 826.91 625.03 817.61 617.1 805.08 610.01 789.92 603.36 772.9 596.78 754.98 589.89 737.17 582.36 720.48 573.94 705.77 564.48 693.74 553.91 684.85 542.24 679.26 529.61 676.83 516.19 677.17 502.23 679.61 487.98 683.34 473.71 687.43 459.66 690.92 446.04 692.94 432.99 692.74 420.58 689.8 408.82 683.83 397.67 674.82 387.01 663.03 376.69 648.96 366.55 633.32 356.41 616.92 346.13 600.64 347.76 587.65 349.17 574.66 349.95 561.66 349.86 548.67 348.93 535.68 347.44 522.69 345.82 509.69 344.54 496.7 343.98 483.71 344.3 470.72 345.41 457.72 346.98 444.73 348.55 431.74 349.68 418.75 350.01 405.75 349.47 392.76 348.2 379.77 346.58 366.78 345.08 353.79 344.14 340.79 344.03 327.8 344.79 314.81 346.19 301.82 347.83 288.82 349.22 275.83 349.96 262.84 349.84 249.85 348.88 236.86 347.38 223.86 345.76 210.87 344.5 197.88 343.97 184.89 354.79 183.37 365.95 181.7 377.55 179.45 389.66 176.24 402.28 171.83 415.35 166.04 428.76 158.85 442.34 150.36 455.89 140.78 469.18 130.42 482.01 119.63 494.16 108.81 505.49 98.32 515.9 88.51 525.4 79.64 534.04 71.89 541.99 65.3 549.47 59.85 564.5 51.95 581.01 45.46 590.9 42.27 602.09 38.62 614.69 34.29 628.7 29.1 644 22.97 660.35 15.9 677.42 7.98 694.79 -0.63 712.01 -9.71 728.59 -19.02 728.59 -19.02 728.59 -19.02" stroke-dasharray="8 11" transform="rotate(52.52, 711, 400)" opacity="0.51"></path><path d="M699.71 13.46Q711.73 19.87 727.18 26.92 737.53 31.36 749.59 36.59 763.33 42.71 778.59 49.75 795.14 57.66 812.62 66.34 830.61 75.6 848.63 85.22 866.18 94.93 882.79 104.44 898.01 113.49 911.47 121.81 922.92 129.22 932.23 135.57 950.83 152.26 956.53 158.34 967.7 166.09 985.81 177.36 999.36 185.24 1015.39 194.29 1033.02 206.12 1054.14 217.94 1073.47 229.77 1086.19 241.59 1089.12 253.41 1081.52 265.24 1065.3 277.06 1044.5 288.89 1024.33 300.71 1009.82 312.53 1004.6 324.36 1009.96 336.18 1024.58 348 1044.8 359.83 1065.57 371.65 1081.69 383.48 1089.15 395.3 1086.08 407.12 1073.24 418.95 1053.85 430.77 1032.74 442.59 1015.2 454.42 1005.6 466.24 1006.34 478.06 1017.23 489.89 1035.57 501.71 1056.75 513.54 1075.5 525.36 1087.13 537.18 1088.73 549.01 1079.91 560.83 1062.86 572.65 1041.96 572.72 1020.99 574.8 1000.64 579.21 981.51 586.12 964.11 595.5 948.82 607.13 935.89 620.6 925.4 635.39 917.28 650.83 911.3 666.23 907.11 680.86 904.25 694.05 895.61 718.62 885.09 723.26 877.31 720.37 867.55 716.52 855.84 712.44 842.33 708.91 827.28 706.67 811.04 706.37 794.02 708.53 776.68 713.46 759.46 721.29 742.78 731.93 727.03 745.04 712.49 760.13 699.37 776.52 687.78 793.45 672.83 799.78 660.65 800.32 655.36 796.02 649.97 788.81 644.17 778.8 637.67 766.33 630.24 751.9 621.75 736.18 612.13 719.92 601.39 703.88 589.63 688.81 576.99 675.4 563.68 664.16 549.93 655.48 536 649.5 522.14 646.19 508.56 645.32 495.45 646.45 482.96 649.01 471.16 652.35 460.08 655.73 449.69 658.44 439.91 659.83 430.62 659.36 421.68 656.62 412.91 651.4 404.17 643.66 395.29 633.57 386.17 621.47 376.72 607.83 378.57 595.51 379.52 583.19 379.35 570.87 378.09 558.55 376.05 546.23 373.76 533.91 371.77 521.6 370.58 509.28 370.5 496.96 371.55 484.64 373.45 472.32 375.74 460 377.84 447.68 379.24 435.36 379.57 423.04 378.76 410.72 377.01 398.4 374.76 386.08 372.56 373.77 370.98 361.45 370.4 349.13 370.96 336.81 372.54 324.49 374.72 312.17 376.98 299.85 378.74 287.53 379.57 275.21 379.25 262.89 377.87 250.57 375.77 238.25 377.18 218.71 390.36 208.38 400.13 204.11 410.3 198.57 420.99 191.75 432.24 183.74 444.06 174.73 456.42 164.96 469.23 154.73 482.34 144.37 495.6 134.22 508.79 124.57 521.71 115.68 534.15 107.74 545.91 100.86 556.84 95.08 566.85 90.34 575.88 86.5 590.9 80.79 603.98 75.65 616.31 68.87 629.99 59.9 638.33 53.9 647.9 47.02 658.82 39.37 671.14 31.09 692.27 17.92 699.71 13.46" stroke-dasharray="9 0" transform="rotate(56.56, 711, 400)" opacity="0.47"></path><path d="M688.39 45.96Q699.62 48.55 712.09 51.12 725.7 53.87 740.27 56.99 755.57 60.65 771.3 65.01 787.14 70.15 802.75 76.13 817.78 82.96 831.91 90.57 844.85 98.85 856.38 107.64 866.34 116.76 874.64 125.97 881.31 135.03 886.46 143.72 892.68 158.67 896.83 170.95 908.51 181.58 923.67 186.05 933.89 187.38 946.15 189.07 960.35 191.37 976.31 194.51 993.71 198.67 1012.18 203.95 1030.88 214.65 1047.07 225.35 1057.36 236.05 1059.56 246.75 1053.21 257.45 1039.66 268.15 1021.76 278.85 1003.27 289.55 988.1 300.25 979.43 310.95 979.1 321.65 987.17 332.35 1001.94 343.05 1020.31 353.75 1038.4 364.45 1052.4 375.15 1059.37 385.85 1057.83 396.54 1048.11 407.24 1032.26 417.94 1013.61 428.64 996.1 439.34 983.41 450.04 978.22 460.74 981.62 471.45 992.89 482.15 1009.66 492.85 1028.39 503.55 1045.15 514.25 1056.4 524.95 1059.77 535.65 1054.55 546.35 1038.97 551.81 1021.98 559.31 1004.01 568.73 985.54 579.86 967.04 592.36 948.99 605.8 931.83 619.69 915.93 633.49 901.61 646.67 889.05 658.74 878.36 669.25 869.56 677.88 847.33 686.26 839.06 680.39 829.13 676.16 815.2 676.33 805.65 679.93 794.66 685.88 782.34 694.16 768.9 704.64 754.58 717.03 739.68 730.9 724.51 745.73 709.37 760.95 700.01 766.57 688.62 767.67 681.29 764.64 672.86 759.24 663.33 751.49 652.73 741.56 641.19 729.75 628.86 716.47 615.93 702.25 602.62 687.63 589.15 673.2 575.75 659.52 562.63 647.1 549.96 636.36 537.88 627.61 526.5 621.03 515.86 616.66 505.97 614.39 488.47 615.66 472.49 620.1 457.64 624.72 442.58 626.44 434.63 624.6 426.31 620.8 417.56 614.95 408.37 607.1 409.16 595.6 408.65 584.1 406.95 572.6 404.42 561.1 401.58 549.6 399.05 538.1 397.34 526.6 396.83 515.1 397.61 503.6 399.53 492.1 402.18 480.6 405 469.11 407.4 457.61 408.87 446.11 409.1 434.61 408.05 423.11 405.93 411.61 403.19 400.11 400.42 388.61 398.18 377.11 396.96 365.61 397.01 354.11 398.32 342.61 400.62 331.11 403.41 319.61 406.12 308.11 408.17 296.61 409.13 285.11 408.8 273.62 407.24 262.12 407.4 242.59 417.96 228.84 425.95 222.01 434.09 214.15 442.5 205.45 451.32 196.12 460.64 186.42 470.53 176.62 481.03 167 492.15 157.8 503.85 149.26 516.03 141.53 528.6 134.75 541.38 128.96 554.21 124.15 566.9 120.25 579.24 117.12 591.05 114.6 602.16 112.47 612.44 110.5 629.7 105.89 644.15 99.84 655 90.13 664.83 77.99 669.78 70.63 675.19 62.73 684.85 50.2 688.39 45.96" stroke-dasharray="1 9" transform="rotate(60.599999999999994, 711, 400)" opacity="0.43"></path><path d="M712.25 78.46Q726 80.54 739.68 82.59 753.04 84.78 765.87 87.27 777.95 90.21 789.1 93.72 799.16 97.9 808.05 102.82 815.71 108.51 822.15 114.94 827.43 122.07 831.67 129.8 835.05 138 837.77 146.52 842.42 163.63 847.63 179.99 856.58 193.46 869.18 204.47 878 208.43 888.37 211.52 900.26 213.85 913.57 215.53 928.13 216.74 943.71 217.67 960.02 218.54 976.75 219.57 993.53 220.98 1010.02 222.97 1022.39 232.77 1029.27 242.56 1029.48 252.36 1022.96 262.16 1010.86 271.95 995.29 281.75 978.98 291.54 964.76 301.34 955.12 311.14 951.75 320.93 955.23 330.73 964.95 340.52 979.23 350.32 995.55 360.12 1011.09 369.91 1023.11 379.71 1029.53 389.5 1029.22 399.3 1022.23 409.1 1009.79 418.89 994.07 428.69 977.81 438.48 963.85 448.28 954.64 458.08 951.77 467.87 955.75 477.67 965.89 487.47 980.41 497.26 996.78 507.06 1012.14 516.85 1023.81 526.65 1029.74 536.45 1020.95 546.19 1010.46 557.07 998.39 568.81 984.93 581.05 970.33 593.42 954.86 605.54 938.85 617.01 922.64 627.5 906.57 636.69 890.94 644.37 876.07 650.36 862.19 654.6 849.5 657.11 838.15 658.01 820.37 655.47 806.64 650.62 788.02 648.8 778.44 658.93 773.57 667.37 767.72 677.47 760.8 688.99 752.78 701.59 743.66 714.89 733.49 728.45 725.17 731.58 715.83 733.94 705.52 735.12 694.36 734.82 682.5 732.81 670.11 728.94 657.37 723.16 644.49 715.54 631.66 706.23 619.05 695.48 606.85 683.59 595.18 670.95 584.14 657.95 573.82 645.02 564.24 632.57 555.4 620.99 547.27 610.62 539.76 601.71 526.39 589.83 513.86 583.12 501.43 583.65 488.32 586.91 473.31 591.06 456.93 593.49 442.73 586.65 435.17 569.94 432.14 559.48 428.91 549.02 426.04 538.56 424.04 528.1 423.25 517.64 423.82 507.18 425.64 496.72 428.39 486.26 431.6 475.8 434.71 465.34 437.16 454.88 438.54 444.42 438.6 433.96 437.34 423.5 434.96 413.04 431.9 402.58 428.67 392.12 425.85 381.66 423.93 371.2 423.25 360.74 423.91 350.28 425.81 339.82 428.62 329.36 431.84 318.9 434.92 308.44 437.31 297.99 438.59 287.53 438.55 277.07 437.19 266.61 434.75 256.15 442.15 249 449.24 241.07 456.09 232.52 462.79 223.56 469.44 214.39 476.15 205.23 483.03 196.32 490.2 187.83 497.77 179.94 505.83 172.8 514.45 166.49 523.69 161.06 533.56 156.51 544.06 152.8 555.12 149.83 566.68 147.48 578.63 145.6 590.83 144 603.14 142.49 615.37 140.89 627.37 139.02 638.96 136.71 649.98 133.83 660.29 130.29 669.78 126.01 678.38 120.98 686.05 115.22 692.8 108.78 698.68 101.75 703.78 94.26 710.25 82.45 712.25 78.46" stroke-dasharray="3 4" transform="rotate(64.64, 711, 400)" opacity="0.39"></path><path d="M734.16 110.96Q750.16 114.22 763.53 117.79 777.82 128.78 785.48 139.71 791.06 152.33 797.77 166.56 802.25 174.36 807.61 182.34 813.97 190.38 821.42 198.3 830.01 205.97 839.75 213.25 850.59 220 862.45 226.11 875.22 231.52 888.74 236.17 902.82 240.03 917.24 243.13 931.78 245.52 946.19 247.26 960.22 248.48 973.65 249.31 993.46 254.68 998.17 268.48 990.68 277.5 979.27 286.52 965.55 295.54 951.46 304.57 939.01 313.59 929.97 322.61 925.6 331.63 926.55 340.66 932.66 349.68 943.07 358.7 956.31 367.72 970.5 376.75 983.63 385.77 993.82 394.79 999.65 403.81 1000.27 412.84 995.61 421.86 986.32 430.88 973.72 439.9 959.6 448.93 945.96 457.95 934.74 466.97 927.53 476 925.34 485.02 928.5 494.04 936.55 503.06 948.35 512.09 962.23 521.11 976.22 530.13 988.33 539.16 984.9 549.97 980.3 560.85 974.45 571.53 967.3 581.75 958.85 591.25 949.16 599.82 938.33 607.26 926.49 613.44 913.8 618.28 900.47 621.75 886.7 623.88 872.72 624.76 858.75 624.54 845.02 623.41 831.72 621.61 819.05 619.39 807.15 617.06 796.16 614.91 777.7 612.76 762.33 613.52 751.61 620.84 743.04 632.53 739.63 640.84 736.46 650.36 733.33 660.9 730.09 672.21 726.56 683.99 722.6 695.95 710.53 698.56 698.35 700.58 686.22 701.74 674.3 701.81 662.73 700.59 651.63 697.97 641.1 693.86 631.21 688.27 622.01 681.25 613.53 672.93 605.74 663.48 598.62 653.11 592.11 642.1 586.13 630.71 580.59 619.24 575.36 608 570.35 597.26 565.43 587.29 560.48 578.3 555.4 570.48 544.26 559.48 531.98 552.55 517.44 551.61 501.55 553.25 492.89 554.98 483.91 556.83 468.47 554.51 458.8 541.25 455.36 532 452.44 522.74 450.45 513.49 449.67 504.24 450.21 494.98 451.99 485.73 454.77 476.48 458.15 467.22 461.64 457.97 464.76 448.72 467.06 439.46 468.21 430.21 468.06 420.96 466.61 411.7 464.09 402.45 460.84 393.2 457.33 383.94 454.05 374.69 451.48 365.44 449.96 356.18 449.73 346.93 450.81 337.68 453.05 328.42 456.13 319.17 459.62 309.92 463.01 300.66 465.84 291.41 467.69 282.16 468.31 272.91 467.6 263.65 475.03 255.31 482.06 246.81 488.72 238.31 495.03 230 501.02 222.02 506.75 214.51 517.74 201.75 528.72 191.19 540.68 184.35 553.79 179.43 569.53 176.65 587.07 174.32 596.9 173.06 607.27 171.52 618.11 169.58 629.33 167.13 640.82 164.1 652.46 160.44 664.09 156.11 675.59 151.13 686.8 145.53 697.58 139.36 707.81 132.71 717.37 125.68 730.16 114.67 734.16 110.96" stroke-dasharray="10 9" transform="rotate(68.68, 711, 400)" opacity="0.35"></path><path d="M720.02 143.46Q732.21 149.06 745.27 157.61 754.63 165.08 766.81 174.82 782.19 186.67 800.78 200.2 822.21 214.72 845.76 229.37 870.41 243.25 894.97 255.55 918.18 265.62 938.91 273.13 956.26 278.08 969.67 280.81 955.82 297.28 932.88 313.75 910.86 330.22 899.38 346.69 903.47 363.16 921.32 379.63 945.15 396.11 964.54 412.58 971.03 429.05 961.78 445.52 940.83 461.99 917.33 478.46 901.55 494.93 900.38 511.4 914.32 527.87 937.3 544.34 934.77 560.94 930.21 574.52 922.66 584.26 911.53 589.88 896.66 591.61 878.32 590.25 857.17 587.02 834.14 583.42 810.35 581.03 786.92 581.3 764.9 585.33 745.11 593.75 728.07 606.59 713.98 623.29 702.66 642.74 693.64 663.45 676.1 667.28 661.12 668.67 648.62 666.4 638.28 659.77 629.51 648.65 621.62 633.54 613.83 615.45 605.42 595.75 595.81 576.04 584.59 557.85 571.59 542.52 556.86 530.94 540.65 523.52 523.37 520.09 505.54 519.94 487.68 521.95 480.74 505.94 476.53 489.92 476.89 473.91 481.65 457.89 488.75 441.88 495.07 425.86 497.86 409.84 495.9 393.83 490.05 377.81 482.86 361.8 477.47 345.78 476.23 329.76 479.7 313.75 486.35 297.73 493.27 281.71 497.45 265.7 512.65 251.09 526.52 238.2 538.89 227.62 549.8 219.62 559.49 214.08 568.38 210.62 577.06 208.53 586.17 206.98 596.37 205.08 608.24 202.02 622.19 197.17 638.4 190.17 656.77 180.94 676.94 169.72 698.29 157 720.02 143.46 720.02 143.46 720.02 143.46" stroke-dasharray="1 10" transform="rotate(72.72, 711, 400)" opacity="0.32"></path><path d="M691.84 175.95Q700.31 177.68 710.63 179.55 723.08 182.13 737.76 185.91 754.58 191.27 773.22 198.45 793.19 207.48 813.87 218.22 834.53 230.32 854.4 243.3 872.75 256.56 888.98 269.46 902.62 281.37 913.44 291.76 921.45 300.24 926.92 306.61 907.88 321.27 888.55 335.92 875.44 350.57 872.98 365.22 882 379.87 899.45 394.52 919.45 409.18 935.25 423.83 941.51 438.48 936.12 453.13 920.91 467.78 901 482.43 883.11 497.08 873.28 511.73 874.83 526.39 887.23 541.04 875.52 555.22 861.34 553.84 850.74 551.15 837.55 549.49 821.97 549.79 804.4 552.78 785.39 558.95 765.59 568.42 745.71 581.02 726.39 596.2 708.24 613.19 691.69 630.96 678.56 634.18 666.41 630.12 659.52 622.59 651.44 611.83 641.87 598.27 630.69 582.62 617.92 565.8 603.7 548.82 588.34 532.7 572.2 518.36 555.68 506.5 539.21 497.58 523.16 491.73 507.84 488.77 503.36 475.07 502.8 461.37 506.36 447.66 512.82 433.96 520.01 420.26 525.51 406.55 527.46 392.85 525.19 379.15 519.49 365.44 512.26 351.74 505.95 338.04 502.69 324.33 503.58 310.63 508.32 296.93 515.31 283.22 522.18 269.52 537.63 259.96 552.42 252.49 566.24 247.09 578.84 243.53 590.07 241.41 599.91 240.18 615.68 237.43 629.59 231.97 636.59 226.58 644.43 219.35 653.56 210.36 664.38 199.84 677.11 188.21 691.84 175.95 691.84 175.95 691.84 175.95" stroke-dasharray="2 3" transform="rotate(76.76, 711, 400)" opacity="0.28"></path><path d="M693.48 208.46Q708.12 209.61 723.86 210.82 740.39 212.47 757.35 214.92 774.32 218.46 790.88 223.31 806.6 229.6 821.09 237.35 834.03 246.46 845.21 256.73 854.5 267.85 861.91 279.46 867.56 291.15 871.72 302.46 874.73 313.01 877.06 322.41 861.39 334.95 850.11 347.49 846.05 360.02 850.22 372.56 861.58 385.1 877.29 397.64 893.43 410.18 905.96 422.71 911.76 435.25 909.37 447.79 899.39 460.33 884.32 472.86 867.92 485.4 854.28 497.94 843.78 517.74 835.7 525.24 823.9 520.02 813.97 518.77 807.6 521.63 799.6 526.74 789.87 534.19 778.45 543.92 765.47 555.68 751.15 569.06 735.81 583.53 719.79 598.45 706.67 601.33 689.8 599.44 678.98 594.77 666.88 587.73 653.68 578.43 639.61 567.16 624.96 554.32 610.04 540.47 595.14 526.19 580.56 512.12 566.55 498.87 553.3 486.95 540.93 476.79 529.51 468.68 529.27 457 532.45 445.33 538.26 433.65 545.26 421.98 551.68 410.31 555.94 398.63 556.95 386.96 554.48 375.28 549.14 363.61 542.26 351.93 535.56 340.26 530.71 328.58 528.94 316.91 530.67 305.23 535.48 293.55 542.16 281.88 556.31 277.71 570.56 274.94 584.67 273.31 598.35 272.44 611.36 271.93 623.47 271.36 634.5 270.31 644.34 268.41 659.94 260.26 672.55 247.9 677.68 239.35 682.64 229.72 690.63 213.89 693.48 208.46" stroke-dasharray="10 5" transform="rotate(80.80000000000001, 711, 400)" opacity="0.24"></path><path d="M722.39 240.96Q735.5 241.64 748.08 242.33 759.91 243.26 770.83 244.66 780.7 246.73 789.43 249.64 802.79 259.01 812.88 271.57 816.35 279.61 819.21 288.46 821.74 297.95 824.19 307.83 826.85 317.87 830.02 327.79 822.31 338.05 819.62 348.3 822.41 358.55 830.18 368.8 841.59 379.05 854.65 389.31 867.06 399.56 876.67 409.81 881.8 420.06 881.55 430.31 875.96 440.57 866.01 450.82 853.45 461.07 840.45 471.32 829.3 481.57 821.93 491.82 803.79 489.3 789.59 486.78 775.6 492.12 767.4 503.01 763.86 510.85 759.72 520.08 754.8 530.51 748.96 541.85 742.11 553.78 734.2 565.95 723.69 567.74 712.32 568.86 700.22 568.99 687.59 567.88 674.62 565.33 661.52 561.22 648.49 555.54 635.71 548.32 623.37 539.71 611.61 529.91 600.52 519.19 590.19 507.84 580.65 496.23 571.89 484.68 563.87 473.55 556.51 463.15 560.18 453.28 565.73 443.42 572.21 433.56 578.46 423.69 583.42 413.83 586.2 403.96 586.32 394.1 583.77 384.24 578.99 374.37 572.8 364.51 566.3 354.64 560.62 344.78 556.75 334.91 555.36 325.05 564.2 309.9 583.4 304.32 595.51 304.2 607.91 303.98 620.43 303.41 632.89 302.27 645.11 300.35 656.92 297.5 668.14 293.63 678.63 288.69 688.28 282.7 696.99 275.72 704.73 267.88 711.5 259.34 719.87 245.63 722.39 240.96" stroke-dasharray="10 4" transform="rotate(84.84, 711, 400)" opacity="0.20"></path><path d="M733.56 273.46Q752.44 275.84 765.43 282.23 770.43 289.6 776.13 299.89 783.56 312.87 793.6 327.94 796.97 343.91 811.7 359.88 831.37 375.85 847.38 391.81 852.74 407.78 845.1 423.75 827.81 439.72 808.41 455.68 787.24 454.84 768.85 456.23 753.59 460.82 741.44 469.14 732.01 481.26 724.64 496.69 718.45 514.51 712.49 533.45 690.87 535.59 670.44 535.61 651.84 532.48 635.47 525.6 621.45 514.88 609.59 500.77 599.49 484.13 590.57 466.16 601.76 449.96 611.74 433.76 616.15 417.56 613.06 401.37 603.82 385.17 592.47 368.97 583.96 352.77 582.02 336.56 597.22 336.39 614.44 334.79 633.45 330.94 653.8 324.34 674.79 314.86 695.64 302.77 715.49 288.69 733.56 273.46 733.56 273.46 733.56 273.46" stroke-dasharray="5 4" transform="rotate(88.88, 711, 400)" opacity="0.16"></path><path d="M709.62 305.96Q719.1 306.63 730.32 308.92 737.86 312.01 746.95 316.67 757.76 323.05 770.34 331.16 780.08 342.89 793.54 354.61 807.36 366.34 818.09 378.06 823.06 389.79 821.01 401.51 812.47 413.23 799.56 424.96 782.01 428.18 764.91 433.37 748.66 440.64 733.6 449.92 719.97 461 707.9 473.53 697.42 487.03 688.46 500.95 677.6 502.39 668.2 502.84 653.54 497.98 641.28 487.19 635.74 478.25 630.02 467.57 638.61 455.12 644.29 442.68 645.65 430.23 642.35 417.78 635.21 405.34 626.01 392.89 617.91 372.99 628.03 361.52 638.57 355.78 650.46 348.34 663.66 339.34 678.06 329.04 693.48 317.77 709.62 305.96 709.62 305.96 709.62 305.96" stroke-dasharray="7 1" transform="rotate(92.92, 711, 400)" opacity="0.13"></path><path d="M687.81 338.45Q701.07 338.21 717.09 338.45 735.84 340.25 756.89 344.53 774.48 360.1 788.8 375.68 793.6 391.26 786.76 406.84 765.37 418.59 743.05 433.39 720.78 450.4 699.5 468.46 686.08 467.64 670.08 458.51 675.3 441.74 671.64 424.96 660.7 408.19 647.27 391.42 654.96 381.82 663.84 369.3 674.61 354.53 687.81 338.45 687.81 338.45 687.81 338.45" stroke-dasharray="3 10" transform="rotate(96.96, 711, 400)" opacity="0.09"></path></g></svg>