<svg xmlns="http://www.w3.org/2000/svg" version="1.1" xmlns:xlink="http://www.w3.org/1999/xlink" xmlns:svgjs="http://svgjs.dev/svgjs" viewBox="0 0 800 800"><defs><linearGradient x1="50%" y1="0%" x2="50%" y2="100%" id="ccchaos-grad"><stop stop-color="hsl(206, 75%, 49%)" stop-opacity="1" offset="0%"></stop><stop stop-color="hsl(331, 90%, 56%)" stop-opacity="1" offset="100%"></stop></linearGradient></defs><g stroke-width="2" stroke="url(#ccchaos-grad)" fill="none" stroke-linecap="round"><path d="M391.66 -111.15C400.24 -112.21 408.87 -112.62 417.57 -112.33 426.28 -111.55 435.05 -110.1 443.9 -108.04 452.77 -105.68 461.73 -102.93 470.78 -99.93 479.87 -96.99 489.07 -94.05 498.37 -91.23 507.72 -88.79 517.18 -86.61 526.75 -84.7 536.36 -83.26 546.07 -82.04 555.86 -80.98 565.66 -80.18 575.51 -79.32 585.37 -78.3 595.17 -77.2 604.91 -75.69 614.54 -73.69 624 -71.3 633.23 -68.29 642.17 -64.64 650.8 -60.51 659.01 -55.77 666.72 -50.5 673.97 -44.89 680.61 -38.92 686.58 -32.68 692.01 -26.41 696.72 -20.1 700.69 -13.84 705.59 -4.97 711.98 10.86 714.12 17.73 716.47 23.7 723.52 34.49 729.34 39.76 734.62 43.28 740.96 47.05 748.43 51.13 757.08 55.42 766.76 60.12 777.34 65.28 788.64 70.77 800.37 76.76 812.2 83.22 823.82 90.05 834.82 97.33 844.82 105.03 853.55 113.03 860.64 121.37 865.84 130 869.19 138.83 870.49 147.86 869.8 157.04 867.59 166.3 863.96 175.64 859.3 185.01 854.43 194.38 849.62 203.72 845.43 213.02 842.68 222.25 841.56 231.41 842.46 240.5 845.75 249.49 851.3 258.4 858.97 267.25 868.56 275.99 879.44 284.67 890.99 293.32 902.59 301.88 913.37 310.42 922.58 318.96 929.74 327.43 934.2 335.93 935.63 344.47 934.19 352.96 929.83 361.53 922.95 370.17 914.47 378.79 904.89 387.5 895.1 396.32 886.3 405.14 879.04 414.07 874.04 423.12 872.01 432.18 872.92 441.25 876.6 450.33 882.9 459.41 890.94 468.49 899.93 477.56 909.28 486.61 917.84 495.62 924.8 504.57 929.78 513.48 932.02 522.29 931.3 530.97 927.79 539.55 921.51 547.96 912.87 556.14 902.58 564.17 891.17 571.91 879.36 579.31 867.97 586.51 857.54 593.3 848.6 599.66 839.25 608.55 834.38 623.42 837.77 629.37 849.65 638.73 857.08 650.57 852.17 654.95 846.55 658.56 839.19 662.7 830.34 667.5 820.33 673.22 809.39 679.82 797.89 687.39 786.16 696.02 774.48 705.65 763.16 716.25 752.42 727.72 742.45 739.94 733.37 752.72 725.31 765.79 718.24 778.92 712.12 791.79 707.01 804.08 702.68 815.47 698.99 825.62 691.12 843.81 679.71 844.94 674.61 837.93 670.72 832.58 666.23 827.14 661.15 822.16 655.68 818.47 649.61 816.29 643 816.06 636.03 818.28 628.57 822.93 620.7 830.02 612.55 839.5 604.07 850.92 595.33 863.79 586.41 877.54 577.3 891.39 568.07 904.54 558.74 916.32 549.34 925.93 539.92 932.78 530.46 936.6 521.01 937.05 511.6 934.12 502.18 928.36 492.82 920.02 483.53 909.81 474.26 898.9 465.05 887.94 455.93 877.91 446.82 869.99 437.79 864.65 428.84 862.44 419.89 863.85 411.02 868.63 402.23 876.45 393.43 886.86 384.8 898.66 376.34 910.85 367.86 922.65 359.54 932.77 351.37 940.38 343.17 945.09 335.11 946.23 327.17 943.73 319.2 937.93 311.35 929.04 303.6 917.71 295.8 904.83 288.09 891.16 280.45 877.58 272.75 865.02 265.1 854.11 257.5 845.41 249.81 839.44 242.14 836.22 234.49 835.7 226.74 837.87 218.99 842.09 211.23 847.82 203.37 854.72 195.5 861.84 187.62 868.51 179.64 874.42 171.68 878.72 163.73 881.03 155.72 881.28 147.77 879.08 139.88 874.44 132 867.61 124.24 858.67 116.61 847.98 109.06 835.95 101.7 822.97 94.55 809.5 87.53 795.95 80.75 782.73 74.23 770.21 67.86 758.66 61.75 748.31 55.89 739.29 50.15 731.73 44.63 725.57 39.31 720.72 31.48 716.02 16.42 712.21 9.06 711.79 1.63 711.68 -13.03 709.12 -20.17 705.87 -24.9 702.87 -29.45 699 -33.79 694.26 -38.07 688.87 -42.11 682.65 -45.9 675.69 -49.6 668.14 -53.08 659.96 -56.34 651.25 -59.58 642.12 -62.68 632.6 -65.65 622.78 -68.72 612.71 -71.74 602.47 -74.71 592.14 -77.82 581.69 -80.89 571.24 -83.89 560.83 -86.96 550.41 -89.87 540.08 -92.56 529.88 -95.17 519.71 -97.43 509.68 -99.32 499.82 -100.99 490 -102.23 480.34 -103.05 470.84 -103.69 461.38 -103.99 452.06 -104.01 442.9 -104.04 433.77 -103.94 424.76 -103.8 415.89 -103.87 407.04 -103.98 398.3 -104.16 389.69 -104.59 381.07 -105.02 372.67 -105.38 364.48 -105.81 356.29 -106.02 348.3 -105.93 340.52 -105.69 332.72 -105.02 325.13 -103.92 317.74 -102.58 310.33 -100.81 303.11 -98.66 296.09 -96.37 289.03 -93.8 282.16 -91.03 275.45 -88.3 268.69 -85.48 262.07 -82.61 255.58 -79.89 249.01 -77.15 242.52 -74.38 236.1 -71.74 229.55 -69.01 223.01 -66.17 216.47 -63.35 209.73 -60.33 202.93 -57.08 196.05 -53.76 188.92 -50.18 181.66 -46.33 174.25 -42.4 166.58 -38.24 158.74 -33.86 150.73 -29.46 142.48 -24.91 134.08 -20.23 125.57 -15.61 116.9 -10.9 108.19 -6.13 99.48 -1.44 90.77 3.32 82.18 8.17 73.78 12.97 65.56 17.9 57.66 22.98 50.14 28.1 42.97 33.42 36.29 38.96 30.14 44.61 24.42 50.52 19.25 56.68 14.64 62.98 10.4 69.54 6.64 76.33 3.3 83.24 0.13 90.35 -2.76 97.64 -5.49 104.98 -8.33 112.44 -11.19 120 -14.16 127.53 -17.5 135.11 -21.08 142.72 -24.94 150.24 -29.28 157.76 -33.91 165.26 -38.8 172.64 -44.06 180 -49.44 187.35 -54.85 194.56 -60.32 201.76 -65.59 208.96 -70.55 216.05 -75.23 223.16 -79.4 230.31 -82.98 237.36 -86.09 244.48 -88.54 251.66 -90.35 258.78 -91.75 265.99 -92.63 273.31 -93.07 280.58 -93.41 287.97 -93.55 295.48 -93.62 302.96 -93.95 310.58 -94.43 318.33 -95.12 326.06 -96.28 333.93 -97.71 341.94 -99.39 349.94 -101.45 358.08 -103.6 366.36 -105.72 374.64 -107.88 383.07 -109.73 391.65 -111.15" stroke-dasharray="1 2" transform="rotate(0, 400, 400)" opacity="1.00"></path><path d="M401.98 -92.16C410.43 -93.31 418.96 -93.81 427.55 -93.6 436.15 -92.88 444.83 -91.47 453.58 -89.44 462.35 -87.06 471.19 -84.27 480.11 -81.19 489.04 -78.13 498.03 -75.04 507.08 -72.04 516.13 -69.4 525.23 -67.01 534.33 -64.9 543.41 -63.29 552.47 -61.94 561.48 -60.81 570.41 -60.03 579.23 -59.28 587.9 -58.47 596.41 -57.67 604.69 -56.58 612.68 -55.09 620.42 -53.28 627.79 -50.91 634.73 -47.94 641.34 -44.49 647.44 -40.4 653 -35.72 658.18 -30.62 662.78 -25.04 666.81 -19.07 670.51 -12.93 673.68 -6.59 676.38 -0.16 678.91 6.14 681.13 12.35 683.13 18.4 686.38 26.8 694.47 41.55 700.17 47.93 705.06 51.73 710.77 55.38 717.39 58.95 725.02 62.33 733.55 65.76 742.94 69.33 753.09 72.9 763.82 76.74 774.92 80.88 786.14 85.22 797.2 89.95 807.78 95.1 817.63 100.54 826.41 106.42 833.83 112.73 839.79 119.36 844.04 126.39 846.48 133.79 847.31 141.47 846.46 149.47 844.11 157.73 840.84 166.2 836.74 174.87 832.27 183.7 828.17 192.65 824.64 201.69 822.15 210.8 821.34 219.96 822.27 229.14 825.16 238.31 830.21 247.48 837.19 256.62 845.84 265.71 855.89 274.78 866.73 283.8 877.74 292.77 888.4 301.7 897.94 310.59 905.75 319.43 911.49 328.23 914.64 337.01 914.99 345.76 912.79 354.48 908.04 363.2 901.14 371.9 892.93 380.6 883.88 389.3 874.75 398 866.6 406.7 859.89 415.41 855.23 424.13 853.26 432.85 853.94 441.47 857.14 449.98 862.76 458.48 870.04 466.87 878.31 475.11 887.08 483.33 895.34 491.38 902.36 499.26 907.78 507.08 910.86 514.68 911.34 522.04 909.3 529.31 904.62 536.3 897.59 542.98 888.77 549.53 878.54 555.75 867.51 561.59 856.4 567.29 845.7 572.61 835.96 577.53 824.42 584.53 813.42 596.57 813.77 601.81 817.59 606.95 828.29 617.26 832.59 622.97 834.29 627.37 834.58 632.18 833.28 637.52 830.52 643.6 826.07 650.37 820.02 657.89 812.64 666.26 803.99 675.43 794.32 685.39 783.93 696.08 773.05 707.43 761.94 719.3 750.87 731.51 740.05 743.9 729.67 756.24 719.89 768.26 710.82 779.73 702.52 790.38 695.07 799.98 688.42 808.28 682.51 815.05 669.44 823.3 654.7 814.79 650.11 807.58 645.24 801.08 633.4 795.17 626.22 797.97 621.03 802.84 615.38 809.86 609.3 818.9 602.96 829.77 596.23 841.95 589.14 854.92 581.84 868.12 574.25 880.85 566.4 892.41 558.4 902.27 550.21 909.8 541.86 914.56 533.42 916.49 524.87 915.33 516.24 911.21 507.57 904.73 498.85 896.16 490.1 886.18 481.34 875.86 472.58 865.76 463.83 856.72 455.07 849.76 446.34 845.25 437.63 843.62 428.93 845.3 420.25 850.01 411.61 857.46 402.97 867.26 394.45 878.36 386.07 889.85 377.67 901.11 369.39 910.97 361.21 918.66 353.02 923.84 344.93 925.85 336.92 924.54 328.88 920.17 320.91 912.82 313.01 903 305.06 891.43 297.16 878.72 289.29 865.66 281.37 853.06 273.47 841.55 265.59 831.7 257.64 824.06 249.7 818.79 241.76 815.99 233.75 815.76 225.75 817.7 217.75 821.44 209.7 826.76 201.67 832.88 193.67 839.21 185.64 845.49 177.67 850.9 169.78 854.97 161.91 857.61 154.15 858.26 146.53 856.78 138.99 853.31 131.62 847.7 124.45 840.14 117.41 830.94 110.6 820.29 104.03 808.57 97.61 796.14 91.45 783.34 85.54 770.53 79.76 758.03 74.22 746.12 68.9 735.03 63.66 724.95 58.59 715.98 53.69 708.18 48.77 701.62 43.96 696.19 39.23 691.79 32.05 687.2 17.75 682.14 10.64 680.65 3.49 679.37 -10.27 674.94 -16.73 671.21 -20.92 668.12 -24.9 664.34 -28.64 659.89 -32.32 654.97 -35.78 649.38 -39.04 643.19 -42.29 636.57 -45.38 629.41 -48.34 621.79 -51.36 613.83 -54.29 605.51 -57.13 596.89 -60.07 588.05 -62.92 579 -65.66 569.82 -68.44 560.5 -71.04 551.11 -73.43 541.69 -75.75 532.21 -77.78 522.76 -79.49 513.36 -81.05 503.94 -82.26 494.6 -83.12 485.37 -83.87 476.13 -84.33 467.01 -84.55 458.01 -84.79 449.01 -84.89 440.14 -84.9 431.4 -85.07 422.67 -85.22 414.05 -85.35 405.57 -85.66 397.09 -85.91 388.82 -86.06 380.77 -86.27 372.71 -86.27 364.85 -86.01 357.18 -85.65 349.49 -84.95 341.99 -83.89 334.65 -82.67 327.28 -81.09 320.06 -79.18 312.98 -77.17 305.84 -74.9 298.81 -72.43 291.89 -69.98 284.87 -67.4 277.91 -64.72 271 -62.14 263.97 -59.48 256.94 -56.76 249.89 -54.12 242.68 -51.37 235.42 -48.49 228.08 -45.62 220.55 -42.57 212.91 -39.32 205.16 -36.01 197.21 -32.47 189.13 -28.69 180.92 -24.86 172.55 -20.81 164.07 -16.58 155.51 -12.33 146.85 -7.95 138.17 -3.44 129.51 0.99 120.88 5.51 112.36 10.1 104.01 14.59 95.83 19.13 87.93 23.74 80.37 28.27 73.12 32.9 66.3 37.64 59.95 42.38 54 47.29 48.57 52.38 43.65 57.55 39.11 62.95 35.06 68.59 31.46 74.37 28.08 80.41 25.04 86.7 22.25 93.13 19.45 99.81 16.74 106.71 14.03 113.72 11.05 120.92 7.91 128.27 4.55 135.67 0.76 143.19 -3.33 150.8 -7.73 158.39 -12.57 166.03 -17.65 173.7 -22.93 181.31 -28.46 188.92 -34.01 196.53 -39.46 204.05 -44.85 211.55 -49.93 219.05 -54.59 226.44 -58.89 233.82 -62.61 241.22 -65.69 248.51 -68.29 255.82 -70.25 263.16 -71.59 270.42 -72.57 277.73 -73.09 285.11 -73.25 292.41 -73.38 299.8 -73.39 307.27 -73.39 314.7 -73.71 322.23 -74.23 329.88 -75.01 337.49 -76.29 345.23 -77.85 353.1 -79.66 360.96 -81.86 368.95 -84.14 377.09 -86.39 385.23 -88.67 393.52 -90.63 401.97 -92.16" stroke-dasharray="6 5" transform="rotate(3.96, 400, 400)" opacity="0.96"></path><path d="M411.44 -73.16C419.73 -74.41 428.06 -74.98 436.41 -74.86 444.77 -74.21 453.15 -72.86 461.56 -70.88 469.97 -68.52 478.38 -65.72 486.8 -62.59 495.2 -59.45 503.59 -56.23 511.93 -53.06 520.24 -50.21 528.48 -47.6 536.62 -45.27 544.68 -43.43 552.61 -41.89 560.35 -40.62 567.97 -39.75 575.36 -39.01 582.48 -38.3 589.41 -37.72 596.01 -36.94 602.26 -35.88 611.07 -33.72 626.2 -26.14 632.49 -20.5 636.33 -16.08 639.78 -11.1 642.88 -5.62 645.9 0.14 648.7 6.25 651.33 12.59 654.12 18.97 656.94 25.41 659.9 31.81 663.29 37.99 667.03 44 671.23 49.79 676.14 55.19 681.67 60.32 687.92 65.18 694.99 69.62 702.8 73.82 711.35 77.82 720.59 81.5 730.41 85.08 740.67 88.61 751.2 91.99 761.81 95.45 772.25 99.04 782.31 102.65 791.73 106.5 800.24 110.63 807.71 114.92 813.88 119.55 818.56 124.55 821.84 129.8 823.55 135.42 823.7 141.42 822.66 147.69 820.41 154.32 817.21 161.27 813.65 168.47 809.85 175.96 806.21 183.69 803.39 191.63 801.5 199.76 800.91 208.06 802.06 216.5 804.91 225.06 809.55 233.69 816.03 242.42 824.04 251.19 833.27 259.98 843.41 268.82 853.87 277.65 864.11 286.47 873.66 295.31 881.89 304.11 888.3 312.87 892.68 321.63 894.63 330.35 894.04 339.01 891.22 347.67 886.18 356.28 879.33 364.82 871.46 373.37 862.94 381.85 854.45 390.27 846.93 398.68 840.75 407.03 836.42 415.29 834.52 423.56 834.99 431.63 837.74 439.51 842.72 447.38 849.26 455.04 856.81 462.48 864.98 469.9 872.86 477.09 879.82 484.02 885.53 490.91 889.29 497.53 890.78 503.88 890.05 510.16 886.88 516.16 881.44 521.86 874.16 527.49 865.28 532.83 855.31 537.87 844.84 542.88 834.32 547.61 824.25 552.1 815.15 556.6 807.3 560.9 800.95 565.06 794.92 571.44 793.21 584.55 796.27 591.68 799.33 596.94 802.53 602.54 805.48 608.57 808.11 615.19 809.86 622.33 810.5 630.07 810.06 638.46 808.2 647.47 804.89 657.09 800.29 667.28 794.31 677.99 787.1 689.14 778.9 700.58 769.8 712.2 760.04 723.84 749.84 735.29 739.39 746.39 728.89 756.92 718.54 766.69 708.48 775.49 698.84 783.12 689.73 789.51 681.21 794.47 673.32 797.87 666.11 799.9 659.52 800.4 653.51 799.45 645.67 795.95 632.61 784.54 626.89 778.68 621.55 774.89 610.49 776.46 604.42 783.14 600.21 790.25 595.68 799.11 590.8 809.49 585.79 821.09 580.42 833.4 574.71 845.9 568.85 858.08 562.67 869.33 556.18 879.07 549.56 886.92 542.68 892.4 535.55 895.21 528.32 895.42 520.89 892.9 513.28 887.83 505.61 880.87 497.79 872.26 489.84 862.64 481.87 853 473.79 843.79 465.64 835.73 457.47 829.69 449.23 825.95 440.94 824.86 432.65 826.75 424.31 831.38 415.94 838.47 407.56 847.68 399.24 858.09 390.98 868.91 382.71 879.61 374.51 889.16 366.35 896.85 358.18 902.4 350.06 905.15 341.98 904.92 333.88 901.88 325.82 896.02 317.78 887.7 309.71 877.52 301.66 865.96 293.63 853.68 285.57 841.4 277.51 829.68 269.48 819.09 261.41 810.19 253.36 803.22 245.33 798.39 237.28 795.9 229.27 795.53 221.3 797.07 213.35 800.43 205.45 804.99 197.65 810.29 189.89 816.13 182.24 821.76 174.73 826.72 167.31 830.88 160.05 833.63 152.98 834.72 146.05 834.2 139.32 831.76 132.82 827.42 126.47 821.39 120.36 813.7 114.49 804.57 108.75 794.31 103.25 783.13 97.97 771.36 92.77 759.27 87.77 747.16 82.93 735.29 78.11 723.86 73.41 713.08 68.82 703.09 64.16 694.01 59.55 685.88 54.99 678.71 50.31 672.57 45.66 667.33 41.03 662.88 33.92 657.79 19.84 650.83 12.99 648.17 6.28 645.77 -6.14 639.68 -11.78 635.56 -17.1 630.6 -26.69 617.61 -31.05 609.62 -33.94 603.83 -36.71 597.6 -39.36 590.97 -42.08 584.09 -44.68 576.88 -47.14 569.38 -49.64 561.7 -51.98 553.8 -54.11 545.73 -56.21 537.54 -58.06 529.22 -59.65 520.82 -61.14 512.36 -62.36 503.86 -63.3 495.33 -64.16 486.78 -64.79 478.24 -65.2 469.72 -65.62 461.2 -65.89 452.72 -66.04 444.29 -66.28 435.86 -66.45 427.49 -66.54 419.18 -66.74 410.87 -66.83 402.72 -66.8 394.72 -66.8 386.7 -66.6 378.83 -66.18 371.09 -65.69 363.33 -64.93 355.69 -63.87 348.14 -62.72 340.56 -61.27 333.05 -59.56 325.62 -57.78 318.12 -55.78 310.66 -53.59 303.22 -51.41 295.69 -49.08 288.16 -46.64 280.61 -44.25 272.94 -41.75 265.23 -39.15 257.45 -36.59 249.55 -33.9 241.57 -31.06 233.51 -28.21 225.31 -25.17 217.03 -21.93 208.68 -18.64 200.22 -15.13 191.7 -11.41 183.15 -7.63 174.56 -3.65 165.98 0.5 157.45 4.66 148.98 8.96 140.63 13.37 132.45 17.71 124.45 22.13 116.7 26.59 109.26 30.95 102.11 35.35 95.34 39.79 88.99 44.12 83 48.51 77.47 52.98 72.43 57.39 67.73 61.92 63.5 66.6 59.7 71.3 56.15 76.19 52.96 81.28 50.06 86.48 47.21 91.91 44.52 97.59 41.91 103.42 39.12 109.49 36.25 115.81 33.25 122.27 29.87 128.96 26.24 135.85 22.32 142.86 17.95 150.04 13.29 157.37 8.36 164.77 3.07 172.27 -2.37 179.87 -7.9 187.47 -13.56 195.13 -19.11 202.83 -24.44 210.5 -29.58 218.19 -34.31 225.89 -38.53 233.54 -42.33 241.18 -45.52 248.83 -48.05 256.41 -50.11 263.99 -51.56 271.59 -52.45 279.11 -53.04 286.66 -53.25 294.23 -53.18 301.75 -53.15 309.31 -53.08 316.91 -53.08 324.47 -53.45 332.1 -54.06 339.8 -54.95 347.47 -56.36 355.23 -58.06 363.09 -60.02 370.92 -62.35 378.86 -64.75 386.92 -67.12 394.96 -69.49 403.13 -71.55 411.43 -73.16" stroke-dasharray="1 2" transform="rotate(7.92, 400, 400)" opacity="0.92"></path><path d="M415.91 -54.17C423.94 -55.49 431.93 -56.15 439.88 -56.11 447.83 -55.54 455.73 -54.28 463.57 -52.37 471.39 -50.06 479.14 -47.28 486.8 -44.15 494.43 -40.94 501.95 -37.62 509.33 -34.31 516.66 -31.27 523.83 -28.43 530.8 -25.85 537.69 -23.76 544.35 -21.97 550.77 -20.49 560.07 -19.03 576.98 -17.12 584.52 -16.08 591.51 -14.63 603.76 -9.04 609.14 -4.57 612.65 -0.93 616.01 3.29 619.28 8.07 622.72 13.24 626.21 18.85 629.81 24.83 633.78 31 638.04 37.37 642.65 43.85 647.82 50.28 653.47 56.67 659.68 62.95 666.54 68.97 673.99 74.78 682.03 80.36 690.65 85.56 699.77 90.51 709.3 95.2 719.13 99.52 729.12 103.64 739.09 107.6 748.89 111.27 758.31 114.86 767.14 118.43 775.25 121.85 782.4 125.35 788.43 128.97 795.1 134.49 799.94 146.86 798.38 153.85 796.24 158.8 793.39 164.07 790.12 169.65 787 175.45 784.11 181.55 781.8 187.94 780.59 194.53 780.53 201.37 781.85 208.45 784.83 215.7 789.37 223.14 795.42 230.75 802.94 238.48 811.57 246.35 820.99 254.31 830.87 262.36 840.69 270.48 849.94 278.64 858.27 286.86 865.16 295.09 870.21 303.32 873.33 311.59 874.21 319.83 872.81 328.04 869.49 336.26 864.27 344.44 857.55 352.54 850.05 360.66 842.07 368.7 834.22 376.65 827.31 384.61 821.62 392.47 817.6 400.21 815.77 407.95 816.06 415.48 818.4 422.79 822.77 430.1 828.61 437.18 835.45 444.02 843 450.85 850.44 457.45 857.22 463.81 863.08 470.15 867.34 476.26 869.67 482.13 870.09 487.99 868.29 493.63 864.37 499.06 858.64 504.51 851.22 509.78 842.5 514.89 832.99 520.06 823.03 525.13 813.08 530.12 803.63 535.25 794.97 540.38 787.39 545.57 781.22 550.99 776.48 556.55 773.2 562.32 771.49 568.43 771.06 574.83 771.71 581.58 773.41 588.77 775.66 596.37 778.15 604.43 780.83 612.95 783.16 621.95 784.88 631.4 786 641.25 786.09 651.48 785.03 662.04 782.94 672.78 779.58 683.67 774.99 694.57 769.35 705.31 762.63 715.8 754.98 725.85 746.59 735.32 737.57 744.05 728.1 751.87 718.35 758.72 708.47 764.42 698.61 768.84 688.9 772.1 679.44 774.03 670.34 774.64 661.65 774.24 653.43 772.73 645.69 770.27 638.47 767.36 631.74 763.97 625.44 760.41 616.92 755.88 601.99 752.18 595.22 754.6 590.98 758.49 586.73 764.04 582.44 771.25 578.24 780.04 573.91 790.11 569.4 801.17 564.89 812.87 560.16 824.72 555.19 836.26 550.17 847.05 544.89 856.57 539.34 864.36 533.73 870.21 527.85 873.73 521.72 874.76 515.52 873.49 509.08 869.85 502.42 864.09 495.71 856.85 488.79 848.38 481.69 839.25 474.55 830.35 467.24 822.04 459.78 814.93 452.3 809.78 444.68 806.75 436.93 806.14 429.18 808.22 421.3 812.75 413.32 819.47 405.34 828.12 397.35 837.86 389.35 848.01 381.36 858.15 373.36 867.34 365.36 874.98 357.37 880.79 349.38 884.16 341.39 884.87 333.4 883.05 325.42 878.6 317.44 871.76 309.46 863.03 301.49 852.75 293.54 841.45 285.59 829.79 277.66 818.24 269.76 807.32 261.88 797.58 254.04 789.32 246.25 782.8 238.51 778.31 230.84 775.76 223.25 775.07 215.74 776.26 208.34 778.9 201.07 782.64 193.9 787.35 186.89 792.4 180.05 797.38 173.34 802.16 166.82 806.13 160.52 808.99 154.34 810.74 148.39 810.94 142.66 809.51 137.06 806.58 131.67 802 126.49 795.87 121.4 788.42 116.49 779.73 111.74 770.02 107.02 759.55 102.42 748.53 97.93 737.2 93.39 725.77 88.91 714.46 84.48 703.47 79.93 692.92 75.4 682.97 70.88 673.7 66.22 665.19 61.57 657.46 56.93 650.49 52.17 644.35 47.46 638.91 42.79 634.1 35.77 628.15 22.38 618.89 16.14 614.99 10.22 611.42 -0.39 603.61 -5.1 599.01 -9.55 593.92 -17.62 581.55 -21.33 574.25 -23.79 569.08 -26.14 563.55 -28.36 557.67 -30.6 551.64 -32.71 545.3 -34.64 538.69 -36.57 531.96 -38.3 525 -39.83 517.83 -41.31 510.59 -42.56 503.18 -43.59 495.64 -44.58 488.05 -45.36 480.35 -45.94 472.56 -46.52 464.75 -46.93 456.87 -47.19 448.93 -47.5 440.99 -47.68 433 -47.72 424.97 -47.82 416.94 -47.78 408.96 -47.58 401.04 -47.39 393.12 -47.02 385.24 -46.43 377.41 -45.82 369.56 -44.97 361.74 -43.89 353.95 -42.77 346.13 -41.41 338.32 -39.84 330.5 -38.24 322.64 -36.46 314.76 -34.51 306.86 -32.59 298.89 -30.52 290.88 -28.32 282.83 -26.16 274.71 -23.87 266.54 -21.44 258.31 -19.04 250.02 -16.48 241.69 -13.75 233.31 -10.99 224.91 -8.04 216.49 -4.87 208.07 -1.64 199.67 1.8 191.32 5.46 183.05 9.19 174.87 13.11 166.82 17.21 158.96 21.33 151.27 25.59 143.83 29.95 136.67 34.27 129.78 38.65 123.23 43.08 117.07 47.4 111.22 51.75 105.78 56.11 100.77 62.47 93.94 75.22 82.65 81.7 78 88.25 73.73 102.15 65.67 109.62 61.49 114.78 58.38 120.17 55.07 125.8 51.52 131.56 47.56 137.56 43.31 143.79 38.77 150.16 33.83 156.75 28.65 163.52 23.29 170.41 17.68 177.47 12.02 184.67 6.41 191.95 0.81 199.34 -4.54 206.83 -9.56 214.35 -14.29 221.94 -18.53 229.58 -22.2 237.23 -25.42 244.92 -28 252.62 -29.95 260.31 -31.47 268.02 -32.43 275.74 -32.9 283.42 -33.16 291.12 -33.11 298.83 -32.88 306.51 -32.76 314.21 -32.68 321.93 -32.73 329.62 -33.19 337.33 -33.92 345.08 -34.97 352.82 -36.52 360.59 -38.37 368.41 -40.47 376.21 -42.92 384.08 -45.43 391.99 -47.89 399.9 -50.34 407.87 -52.48 415.9 -54.17" stroke-dasharray="4 1" transform="rotate(11.879999999999999, 400, 400)" opacity="0.89"></path><path d="M413.46 -35.18C421.1 -36.56 428.63 -37.3 436.05 -37.35 443.47 -36.88 450.77 -35.71 457.93 -33.9 465.08 -31.67 472.09 -28.94 478.94 -25.83 485.75 -22.6 492.39 -19.22 498.84 -15.79 505.24 -12.58 511.43 -9.53 517.4 -6.71 526.14 -3.31 542.3 1.26 549.7 2.6 556.77 3.39 569.76 5.14 575.81 6.67 581.84 8.99 593.94 16.81 600.31 22.46 604.92 26.84 609.75 31.73 614.88 37.09 620.45 42.74 626.39 48.73 632.76 54.99 639.63 61.33 646.95 67.8 654.73 74.29 662.97 80.68 671.59 86.98 680.55 93.14 689.76 99.03 699.13 104.71 708.54 110.17 717.86 115.29 726.94 120.17 735.63 124.83 743.8 129.16 751.29 133.32 757.92 137.33 766.02 142.93 775.08 153.75 775.96 159.2 774.61 164.72 767.86 176.75 763.87 183.38 761 190.43 760.99 206.06 764.96 214.61 769.53 220.54 775.41 226.69 782.48 233.05 790.63 239.54 799.49 246.2 808.73 253.02 818.06 259.95 826.99 267 835.12 274.16 842.18 281.39 847.74 288.7 851.5 296.06 853.47 303.48 853.41 310.93 851.34 318.39 847.64 325.88 842.34 333.36 835.81 340.81 828.71 348.29 821.29 355.72 814.05 363.1 807.72 370.48 802.51 377.8 798.79 385.04 797.03 392.27 797.16 399.34 799.12 406.23 802.92 413.13 808.09 419.84 814.24 426.38 821.14 432.93 828.1 439.3 834.62 445.52 840.5 451.75 845.09 457.83 848.08 463.78 849.46 469.77 848.89 475.65 846.37 481.46 842.14 487.33 836.22 493.17 828.88 498.99 820.55 504.95 811.47 510.94 802.04 517.02 792.69 523.29 783.71 529.7 775.39 536.3 768.08 543.15 761.87 550.25 756.89 557.62 753.29 565.3 750.94 573.3 749.74 581.63 749.72 590.27 750.52 599.24 751.91 608.53 753.87 618.07 755.94 627.87 757.86 637.86 759.65 647.95 760.85 658.1 761.32 668.22 761.1 678.18 759.89 687.91 757.63 697.27 754.47 706.16 750.25 714.45 745.02 722 738.96 728.79 732.06 734.64 724.43 739.47 716.26 743.34 707.61 746.1 698.63 747.72 689.45 748.45 680.17 748.14 670.91 746.91 661.75 745.12 652.78 742.72 644.06 739.91 635.65 737.17 627.58 734.49 619.86 732.14 612.53 730.6 605.56 729.87 598.92 730.19 592.65 731.91 586.67 734.98 580.92 739.49 575.48 745.56 570.2 753.02 565.04 761.74 560.08 771.58 555.17 782.21 550.24 793.29 545.44 804.5 540.57 815.41 535.59 825.59 530.67 834.72 525.6 842.36 520.37 848.18 512.45 852.96 495.6 848.55 486.67 840.08 480.62 832.77 474.37 824.59 467.93 816.05 461.46 807.93 454.81 800.53 447.97 794.34 441.13 790.01 434.11 787.64 426.93 787.46 419.74 789.71 412.39 794.12 404.9 800.48 397.41 808.57 389.87 817.66 382.29 827.16 374.72 836.73 367.11 845.54 359.48 853.04 351.86 859.03 344.22 862.9 336.57 864.43 328.94 863.71 321.3 860.56 313.68 855.15 306.08 847.88 298.5 838.95 290.94 828.82 283.43 818.02 275.96 806.95 268.54 796.1 261.18 785.95 253.89 776.83 246.7 769.03 239.58 762.87 232.57 758.39 225.69 755.61 218.9 754.63 212.25 755.17 205.78 757 199.41 760.09 193.21 763.92 187.21 768.15 181.32 772.7 175.63 776.99 170.14 780.72 162.14 784.91 147.2 785.63 140.18 781.58 135.57 777.12 131.07 771.32 126.68 764.3 122.23 756.27 117.85 747.33 113.51 737.67 109.07 727.49 104.64 716.95 100.21 706.25 95.64 695.54 91.06 684.98 86.47 674.72 81.74 664.83 77.02 655.43 72.32 646.58 67.52 638.32 62.78 630.67 58.11 623.63 53.43 617.22 48.87 611.37 44.46 606.01 38.01 599 26.3 587.2 21.09 581.99 16.24 577.18 7.72 567.36 3.95 562.09 0.34 556.57 -6.27 544.08 -9.32 537.04 -12.32 529.58 -17.73 513.1 -20.07 504.13 -21.57 498 -22.89 491.64 -24.02 485.05 -25.13 478.43 -26.05 471.61 -26.78 464.61 -27.49 457.59 -28.02 450.4 -28.38 443.05 -28.73 435.7 -28.91 428.2 -28.91 420.57 -28.92 412.94 -28.75 405.26 -28.41 397.55 -28.06 389.84 -27.51 382.1 -26.78 374.32 -26.04 366.54 -25.1 358.72 -23.97 350.87 -22.83 343 -21.52 335.1 -20.04 327.15 -18.58 319.19 -16.97 311.19 -15.23 303.14 -13.52 295.08 -11.69 286.98 -9.73 278.85 -7.81 270.72 -5.75 262.57 -3.55 254.41 -1.35 246.28 1 238.16 3.55 230.08 6.14 222.06 8.95 214.11 11.96 206.27 15.07 198.55 18.4 190.97 21.95 183.58 25.59 176.36 29.43 169.38 33.46 162.67 37.53 156.19 41.75 150.03 46.09 144.2 50.41 138.65 54.8 133.46 59.25 128.64 65.78 122 78.72 110.8 85.09 106.11 91.28 101.76 103.69 93.66 110.01 89.58 116.42 85.03 130.05 74.49 137.36 68.31 142.4 63.69 147.66 58.82 153.13 53.72 158.73 48.3 164.55 42.75 170.57 37.12 176.73 31.39 183.08 25.74 189.61 20.26 196.25 14.94 203.06 9.96 210 5.41 217.03 1.24 224.18 -2.38 231.42 -5.42 238.73 -7.99 246.11 -9.95 253.55 -11.33 261.03 -12.32 268.55 -12.84 276.1 -12.96 283.67 -12.94 291.26 -12.72 298.87 -12.39 306.48 -12.26 314.11 -12.22 321.74 -12.37 329.37 -12.96 337.01 -13.85 344.65 -15.07 352.29 -16.78 359.93 -18.78 367.57 -21.01 375.22 -23.57 382.87 -26.17 390.51 -28.71 398.16 -31.22 405.81 -33.42 413.45 -35.18" stroke-dasharray="3 3" transform="rotate(15.84, 400, 400)" opacity="0.85"></path><path d="M405.14 -16.19C412.3 -17.62 419.31 -18.43 426.18 -18.58 433.04 -18.2 439.74 -17.15 446.29 -15.45 452.82 -13.32 459.18 -10.69 465.37 -7.64 471.53 -4.43 477.51 -1.02 483.3 2.47 489.07 5.82 494.64 9.05 500.02 12.1 507.97 15.94 522.95 21.4 530.05 23.1 537.07 24.06 550.82 25.51 557.71 26.51 564.91 28.01 580.25 33.58 588.63 37.91 594.63 41.39 600.92 45.41 607.53 49.94 614.51 54.83 621.83 60.16 629.48 65.86 637.46 71.79 645.72 77.97 654.23 84.33 662.91 90.73 671.71 97.19 680.54 103.65 689.29 109.97 697.88 116.2 706.16 122.28 714.07 128.12 721.44 133.77 728.17 139.21 734.22 144.35 739.43 149.29 743.7 154.04 748.34 160.65 751.51 172.85 750.36 178.62 747.94 184.16 741.79 195.38 739.34 201.23 738.68 207.23 743.76 220.21 750.07 227.24 755.89 232.07 762.73 237.11 770.41 242.36 778.78 247.68 787.5 253.21 796.24 258.91 804.77 264.69 812.66 270.63 819.57 276.72 825.34 282.87 829.61 289.16 832.18 295.55 833.13 301.99 832.26 308.52 829.66 315.13 825.69 321.77 820.41 328.46 814.13 335.2 807.45 341.95 800.58 348.73 793.95 355.53 788.17 362.33 783.41 369.14 779.98 375.96 778.3 382.77 778.28 389.5 779.89 396.15 783.17 402.8 787.71 409.37 793.18 415.87 799.43 422.37 805.86 428.82 812.05 435.22 817.82 441.64 822.59 448.04 826.07 454.42 828.23 460.86 828.71 467.32 827.45 473.81 824.62 480.4 820.17 487.07 814.28 493.83 807.27 500.72 799.32 507.76 790.74 514.95 781.9 522.31 773.05 529.87 764.48 537.65 756.51 545.61 749.3 553.8 743 562.22 737.83 570.82 733.74 579.64 730.72 588.66 728.88 597.8 727.96 607.08 727.83 616.46 728.51 625.83 729.62 635.19 730.98 644.47 732.59 653.56 734.04 662.42 735.16 670.94 735.99 679.04 736.19 686.65 735.65 693.64 733.44 702.81 723.46 715.93 715.79 719.61 709.75 721.01 703.03 721.51 695.75 721.18 688.03 720.33 679.92 718.86 671.53 716.9 662.97 714.85 654.3 712.67 645.62 710.55 636.98 708.93 628.45 707.77 620.08 707.28 611.9 707.83 603.94 709.39 596.24 712.07 588.79 716.1 581.6 721.37 574.66 727.87 567.98 735.6 561.52 744.35 555.25 753.93 549.21 764.14 543.31 774.68 537.52 785.2 531.91 795.44 526.35 805.01 520.83 813.55 515.42 820.85 509.98 826.57 504.51 830.49 499.1 832.62 493.61 832.75 488.03 830.92 482.48 827.44 476.81 822.34 471.01 815.89 465.21 808.69 459.27 800.93 453.19 793.06 447.11 785.76 440.87 779.26 434.48 773.95 428.09 770.39 421.55 768.63 414.86 768.83 408.16 771.2 401.32 775.48 394.35 781.49 387.38 789.05 380.35 797.5 373.3 806.36 366.24 815.36 359.16 823.75 352.06 831.07 344.98 837.14 337.89 841.39 330.8 843.62 323.74 843.86 316.7 841.9 309.68 837.85 302.7 832 295.76 824.47 288.88 815.62 282.05 805.88 275.3 795.58 268.63 785.13 262.02 774.98 255.52 765.43 249.14 756.78 242.83 749.38 236.65 743.32 230.62 738.7 221.79 734.93 205.04 736.19 197.16 740.15 192.03 743.75 187.06 747.55 182.25 751.28 175.17 756.46 161.66 762.11 155.15 761.67 150.78 759.94 146.47 756.95 142.19 752.76 137.81 747.54 133.43 741.23 129.06 733.98 124.54 725.96 120.01 717.24 115.46 707.98 110.76 698.34 106.05 688.44 101.34 678.43 96.51 668.41 91.7 658.51 86.94 648.84 82.12 639.44 77.39 630.41 72.77 621.79 68.17 613.61 63.72 605.88 59.46 598.62 55.28 591.83 51.31 585.47 47.58 579.5 42.27 571.36 33 556.95 28.99 550.4 25.27 544.26 18.65 532.16 15.66 525.97 12.7 519.72 7.12 506.32 4.52 499.08 1.93 491.59 -2.65 475.39 -4.58 466.69 -5.81 460.8 -6.85 454.68 -7.71 448.34 -8.53 441.99 -9.16 435.42 -9.58 428.66 -9.96 421.89 -10.14 414.93 -10.1 407.78 -10.03 400.63 -9.75 393.38 -9.28 386.05 -8.78 378.72 -8.09 371.31 -7.23 363.83 -6.35 356.36 -5.31 348.82 -4.12 341.23 -2.95 333.64 -1.65 326.01 -0.22 318.33 1.15 310.67 2.63 302.98 4.23 295.26 5.76 287.59 7.39 279.91 9.13 272.24 10.83 264.63 12.65 257.05 14.6 249.54 16.56 242.11 18.69 234.77 21 227.55 23.37 220.45 25.95 213.5 28.75 206.74 31.65 200.14 34.79 193.76 38.16 187.63 41.64 181.69 45.34 176.04 49.24 170.68 53.22 165.54 57.36 160.71 61.66 156.21 68.15 149.92 81.45 139.08 88.13 134.41 94.63 130.03 107.37 121.81 113.61 117.7 119.67 113.2 131.81 103.02 138 97.13 142.13 92.75 146.39 88.13 150.78 83.26 155.21 78.07 159.8 72.69 164.57 67.18 169.42 61.48 174.46 55.77 179.7 50.12 185.03 44.5 190.56 39.09 196.28 33.98 202.1 29.12 208.11 24.7 214.28 20.78 220.55 17.27 226.97 14.33 233.53 11.98 240.17 10.06 246.92 8.71 253.77 7.87 260.69 7.34 267.69 7.19 274.75 7.36 281.87 7.56 289.03 7.88 296.22 8.22 303.46 8.3 310.71 8.23 317.98 7.93 325.27 7.18 332.57 6.11 339.86 4.71 347.17 2.84 354.47 0.69 361.75 -1.66 369.04 -4.31 376.31 -6.98 383.54 -9.58 390.78 -12.14 397.98 -14.38 405.13 -16.18" stroke-dasharray="3 1" transform="rotate(19.8, 400, 400)" opacity="0.81"></path><path d="M394.59 2.8C401.23 1.31 407.75 0.44 414.13 0.2 420.5 0.47 426.74 1.4 432.83 2.97 438.91 4.96 444.86 7.48 450.65 10.43 456.45 13.58 462.1 16.98 467.62 20.51 473.14 23.94 478.53 27.33 483.81 30.58 491.71 34.82 507.16 41.25 514.8 43.4 522.59 44.72 538.53 46.32 546.85 47.03 552.63 47.56 558.57 48.33 564.71 49.42 571.08 50.74 577.68 52.49 584.51 54.7 591.59 57.27 598.9 60.35 606.45 63.93 614.21 67.9 622.15 72.35 630.24 77.23 638.44 82.43 646.68 87.99 654.91 93.85 663.07 99.88 671.06 106.11 678.8 112.48 686.23 118.86 693.24 125.28 699.72 131.68 705.67 137.97 710.96 144.16 715.49 150.23 720.85 158.93 726.38 175.12 726.69 182.6 725.65 189.56 721.32 202.55 718.97 208.73 717.57 214.64 718.96 226.42 722.53 232.42 726.34 236.4 731.14 240.5 736.88 244.74 743.56 248.97 750.93 253.35 758.8 257.9 767.03 262.45 775.28 267.18 783.27 272.08 790.81 277 797.55 282.09 803.21 287.34 809.26 295.33 811.58 312.09 807.8 320.83 803.68 326.71 798.49 332.71 792.5 338.82 786.28 344.93 779.96 351.15 773.9 357.46 768.65 363.78 764.32 370.18 761.17 376.68 759.56 383.17 759.42 389.69 760.71 396.21 763.51 402.74 767.45 409.29 772.27 415.86 777.89 422.45 783.76 429.08 789.54 435.75 795.1 442.46 799.92 449.23 803.73 456.08 806.48 462.98 807.82 469.97 807.65 477.07 806.1 484.25 803.03 491.56 798.57 499 792.96 506.54 786.29 514.22 778.8 522.07 770.81 530 762.5 538.09 754.13 546.33 746 554.64 738.28 563.08 731.14 571.62 724.82 580.17 719.33 588.78 714.74 597.4 711.18 605.94 708.53 614.41 706.71 622.74 705.8 630.87 705.51 638.75 705.72 646.31 706.45 653.5 707.38 660.25 708.32 666.48 707.84 686.96 695.1 693.22 687.61 691.65 681.88 690.32 675.59 688.79 668.83 687.18 661.72 685.89 654.26 684.84 646.55 684.22 638.66 684.34 630.65 685.18 622.57 686.87 614.48 689.63 606.41 693.41 598.43 698.24 590.54 704.22 582.78 711.2 575.18 719.1 567.72 727.85 560.44 737.2 553.33 746.97 546.38 756.93 539.6 766.8 532.97 776.29 526.49 785.16 520.13 793.11 513.87 799.86 507.74 805.3 501.68 809.16 495.67 811.3 489.74 811.84 483.84 810.63 477.94 807.76 472.09 803.57 466.22 798.1 460.3 791.62 454.42 784.7 448.49 777.47 442.48 770.32 436.49 763.86 430.41 758.23 424.26 753.76 418.11 750.92 411.86 749.7 405.53 750.24 399.19 752.7 392.77 756.84 386.25 762.5 379.74 769.53 373.22 777.38 366.7 785.61 360.18 794.03 353.67 801.98 347.18 809.07 340.7 815.13 334.24 819.67 327.82 822.46 321.43 823.53 315.08 822.65 308.8 819.84 302.54 815.36 296.36 809.23 290.26 801.72 284.2 793.19 278.24 783.87 272.39 774.12 266.59 764.33 260.9 754.76 255.35 745.71 249.84 737.5 244.47 730.28 239.24 724.2 231.53 717.74 216.86 713.1 209.88 714.39 203.04 717.83 189.83 727 183.4 731.43 176.93 734.94 163.97 736.99 157.41 735 152.91 732.44 148.38 728.84 143.82 724.25 139.14 718.82 134.42 712.53 129.69 705.49 124.84 697.83 120 689.62 115.17 680.98 110.28 672.02 105.45 662.84 100.69 653.54 95.94 644.2 91.31 634.92 86.82 625.78 82.41 616.81 78.18 608.08 74.17 599.64 70.26 591.49 66.59 583.67 63.17 576.18 59.87 569.02 56.81 562.19 54 555.66 51.28 549.45 48.78 543.5 46.48 537.77 43.19 529.65 37.3 514.38 34.61 507.03 31.89 499.88 26.63 485.47 24.09 478.09 21.51 470.63 16.76 454.98 14.69 446.74 13.37 441.19 12.22 435.46 11.26 429.54 10.35 423.62 9.66 417.52 9.19 411.23 8.79 404.94 8.63 398.46 8.7 391.82 8.84 385.17 9.21 378.43 9.79 371.61 10.42 364.79 11.23 357.9 12.22 350.96 13.21 344.02 14.35 337.04 15.62 330.02 16.84 323.03 18.16 316.01 19.58 308.99 20.92 302.01 22.33 295.04 23.82 288.09 25.22 281.21 26.7 274.38 28.26 267.62 29.76 260.94 31.36 254.36 33.08 247.9 34.8 241.55 36.67 235.35 38.71 229.33 40.81 223.44 43.12 217.74 45.65 212.27 49.71 204.41 59.23 190.18 64.67 183.84 70.46 177.97 83.02 167.6 89.65 163.01 96.34 158.59 109.8 150.17 116.47 145.93 122.94 141.35 135.55 131.16 141.72 125.38 145.7 121.12 149.7 116.63 153.72 111.93 157.66 106.9 161.67 101.69 165.74 96.31 169.78 90.72 173.92 85.06 178.18 79.39 182.46 73.68 186.87 68.07 191.43 62.66 196.05 57.4 200.82 52.47 205.76 47.92 210.77 43.71 215.95 39.98 221.29 36.78 226.72 34.01 232.3 31.78 238.02 30.11 243.83 28.83 249.77 28.02 255.83 27.66 261.96 27.51 268.2 27.65 274.54 28 280.93 28.3 287.4 28.63 293.94 28.91 300.52 28.88 307.15 28.66 313.82 28.17 320.53 27.22 327.25 25.95 333.99 24.36 340.75 22.33 347.52 20.05 354.27 17.58 361.04 14.86 367.79 12.13 374.51 9.49 381.24 6.91 387.93 4.64 394.58 2.8" stroke-dasharray="5 6" transform="rotate(23.759999999999998, 400, 400)" opacity="0.77"></path><path d="M386.38 21.79C392.57 20.27 398.68 19.33 404.7 19.01 410.71 19.17 416.64 19.97 422.49 21.38 428.33 23.23 434.09 25.6 439.78 28.42 445.47 31.47 451.1 34.8 456.67 38.32 462.27 41.8 467.82 45.29 473.34 48.7 478.91 51.83 484.47 54.76 490.04 57.44 495.69 59.71 501.38 61.69 507.12 63.38 512.96 64.66 518.9 65.7 524.94 66.55 531.11 67.1 537.42 67.57 543.86 68.04 550.47 68.4 557.23 68.89 564.15 69.58 571.22 70.37 578.45 71.48 585.81 72.95 593.29 74.69 600.86 76.87 608.51 79.51 616.17 82.49 623.84 85.95 631.44 89.85 638.94 94.11 646.27 98.78 653.36 103.83 660.18 109.14 666.65 114.76 672.68 120.64 678.28 126.66 683.33 132.84 687.77 139.14 691.68 145.46 694.91 151.81 697.43 158.15 699.41 164.41 700.71 170.59 701.35 176.69 701.42 185.51 699.09 202.21 697.36 210.07 696.05 217.48 695.93 231.51 697.88 238.22 700.32 242.53 703.58 246.81 707.69 251.1 712.72 255.28 718.52 259.49 725 263.76 732.1 267.95 739.6 272.22 747.29 276.59 755.04 280.91 762.56 285.35 769.6 289.91 776.04 294.44 781.58 299.11 786.01 303.92 790.31 311.2 790.13 326.47 785.81 334.48 781.64 339.86 776.6 345.39 770.96 351.07 765.2 356.75 759.42 362.58 753.92 368.55 749.17 374.52 745.25 380.64 742.36 386.91 740.83 393.17 740.58 399.52 741.59 405.95 743.94 412.39 747.32 418.9 751.53 425.51 756.51 432.13 761.81 438.84 767.13 445.64 772.41 452.47 777.15 459.41 781.12 466.45 784.29 473.52 786.29 480.7 787.03 488 786.59 495.32 784.79 502.76 781.68 510.3 777.47 517.86 772.16 525.52 765.91 533.26 759.01 541 751.56 548.79 743.79 556.6 735.96 564.37 728.21 572.12 720.73 579.81 713.74 587.39 707.31 594.85 701.54 602.13 696.58 609.2 692.4 616.02 688.97 622.54 685.47 631.64 682.59 647.08 682.61 653.16 680.68 663.28 667.37 660.91 660.41 660.21 655.17 660.39 649.46 661.08 643.36 662.39 636.95 664.55 630.24 667.49 623.27 671.3 616.13 676.07 608.83 681.73 601.44 688.25 593.97 695.61 586.48 703.67 578.99 712.3 571.52 721.37 564.1 730.68 556.76 740.01 549.49 749.17 542.31 757.91 535.24 765.99 528.27 773.25 521.4 779.43 514.63 784.35 507.96 787.98 501.38 790.11 494.89 790.69 488.48 789.88 482.14 787.6 475.86 783.95 469.63 779.3 463.45 773.69 457.31 767.37 451.2 760.85 445.1 754.24 439.02 747.86 432.95 742.24 426.88 737.45 420.8 733.77 414.74 731.59 408.65 730.86 402.54 731.69 396.43 734.2 390.3 738.19 384.14 743.5 377.98 750.04 371.87 757.29 365.82 764.92 359.76 772.76 353.76 780.26 347.82 787.05 341.89 793.04 336.03 797.76 330.23 800.99 324.45 802.76 318.75 802.81 313.14 801.14 307.54 797.93 302.03 793.16 296.63 787 291.25 779.77 285.97 771.6 280.81 762.78 275.66 753.66 270.63 744.44 265.71 735.4 260.81 726.84 256.02 718.91 251.34 711.8 244.37 703.19 230.91 693.15 224.38 691.61 217.84 692.47 204.9 698.15 198.43 701.94 191.81 705.78 178.34 710.99 171.45 711.66 164.36 710.58 149.9 703.01 142.59 696.58 137.66 691.36 132.76 685.44 127.93 678.9 123.08 671.85 118.34 664.34 113.72 656.46 109.15 648.28 104.75 639.89 100.54 631.36 96.43 622.74 92.53 614.11 88.87 605.53 85.34 597.02 82.06 588.65 79.01 580.46 76.1 572.42 73.42 564.6 70.96 557.02 68.59 549.63 66.42 542.48 64.42 535.56 62.44 528.84 60.6 522.33 58.88 516.01 57.11 509.86 55.42 503.87 53.79 498 51.23 489.45 46.13 472.85 43.59 464.68 40.97 456.59 36.03 440.26 33.83 431.95 32.43 426.39 31.2 420.75 30.16 415 29.2 409.25 28.46 403.4 27.96 397.43 27.55 391.46 27.4 385.38 27.51 379.19 27.72 372.99 28.16 366.76 28.83 360.5 29.56 354.25 30.48 347.97 31.58 341.69 32.68 335.43 33.91 329.16 35.25 322.92 36.54 316.7 37.91 310.51 39.35 304.37 40.69 298.27 42.07 292.24 43.5 286.29 45.51 277.51 49.67 260.65 51.9 252.64 54.2 244.94 59.6 230.61 62.82 224.03 66.41 217.81 74.96 206.52 79.94 201.43 85.34 196.56 97.29 187.5 103.74 183.17 110.36 178.71 123.93 169.45 130.78 164.46 135.25 160.83 139.72 157.05 144.17 153.09 148.5 148.83 152.79 144.38 157.06 139.72 161.2 134.79 165.31 129.67 169.42 124.4 173.4 118.92 177.39 113.34 181.4 107.71 185.32 102.01 189.29 96.36 193.31 90.82 197.28 85.38 201.34 80.16 205.48 75.24 211.74 68.43 224.86 57.55 231.77 53.65 238.87 50.86 253.81 48.17 261.65 48.01 269.68 48.3 286.38 49.33 295.01 49.61 300.83 49.42 306.72 48.99 312.68 48.28 318.67 47.12 324.72 45.64 330.81 43.88 336.92 41.69 343.06 39.29 349.22 36.73 355.4 33.95 361.59 31.18 367.79 28.52 373.99 25.93 380.18 23.66 386.37 21.79" stroke-dasharray="3 5" transform="rotate(27.720000000000002, 400, 400)" opacity="0.73"></path><path d="M384.11 40.78C392.84 38.74 410.2 38.22 418.82 39.8 424.57 41.49 430.31 43.69 436.04 46.34 441.79 49.25 447.54 52.47 453.31 55.92 464.94 62.8 476.7 69.63 488.67 75.87 500.92 80.68 513.51 84.41 526.47 87.13 539.78 88.5 553.48 89.49 567.49 90.54 581.64 91.55 595.81 93.56 609.72 96.89 623.11 101.31 635.63 107.44 646.82 115.22 656.63 124.21 664.49 134.54 670.13 145.9 674.04 157.82 675.83 170.2 675.76 182.74 675.11 195.08 673.85 207.2 672.85 218.99 673.61 230.17 676.27 240.95 681.45 251.37 689.83 261.18 700.85 270.78 713.95 280.29 728.38 289.36 742.6 298.55 755.08 307.95 764.8 317.12 770.31 326.66 770.93 336.64 769.63 341.59 767.19 346.66 763.73 351.87 759.59 357.06 754.77 362.39 749.51 367.86 744.22 373.33 738.96 378.94 734 384.7 729.73 390.47 726.18 396.39 723.55 402.47 722.1 408.55 721.76 414.72 722.52 420.99 724.46 427.25 727.32 433.62 730.94 440.07 735.31 446.52 740.03 453.07 744.87 459.71 749.77 466.35 754.33 473.07 758.32 479.87 764.41 493.47 766.32 507.32 763.6 521.29 756.86 535.12 746.24 548.85 732.94 562.26 718.51 575.17 704 587.37 690.6 598.52 679.41 608.66 670.66 617.32 664.4 624.21 659.2 633.95 653.13 635.49 645.42 637.88 638.24 642.64 629.26 650.03 618.77 660.34 607.26 673.68 594.75 689.32 581.6 706.41 568.06 723.87 554.31 740.21 540.56 753.87 526.83 763.9 513.3 769.05 500.03 768.77 486.92 764 474.08 754.99 461.5 743.23 455.26 737.23 449.06 731.3 442.92 725.71 436.81 720.91 430.73 716.93 424.69 713.98 418.67 712.39 412.67 712.1 406.71 713.17 400.76 715.71 394.83 719.54 388.93 724.51 383.03 730.56 377.22 737.25 371.51 744.28 365.8 751.55 360.18 758.57 354.65 765.04 349.12 770.89 343.69 775.69 338.36 779.24 333.02 781.58 327.78 782.42 322.65 781.75 312.36 776.33 302.47 765.56 292.98 750.85 283.44 734.15 274.25 716.98 265.39 701.07 256.37 687.96 247.57 678.26 238.93 672.23 229.97 670.16 221.03 670.93 212.08 673.57 202.69 677.75 193.21 681.65 183.66 684.28 173.75 685.66 163.88 684.45 154.16 680.44 144.41 674.14 135.08 665.15 126.35 653.9 118 640.99 110.48 626.65 103.9 611.47 97.86 595.74 92.73 579.9 88.46 564.3 84.43 548.93 80.95 534.1 77.89 519.89 74.54 506.14 71.33 492.98 68.18 480.32 64.54 468.03 61 456.06 57.68 444.32 55.94 438.51 54.31 432.73 52.83 426.97 51.36 421.23 50.07 415.49 48.99 409.74 47.6 401.12 46.25 383.78 46.32 375.04 46.83 366.32 49.15 349.1 50.84 340.63 52.69 332.24 56.84 315.85 59.03 307.91 61.65 297.46 64.36 287.48 67.16 278.08 69.54 268.84 72.2 260.24 75.27 252.32 78.4 244.55 82.27 237.42 86.99 230.88 92.2 224.27 98.39 218.04 105.49 212.04 113.07 205.55 121.38 198.93 130.24 191.99 139.16 184.13 148.33 175.67 157.59 166.55 166.51 156.46 175.35 145.81 184.09 134.82 192.34 123.5 200.53 112.44 208.72 102.08 216.56 92.51 224.55 84.37 232.76 78 240.84 73.09 249.29 70.08 258.14 68.83 267 68.43 276.33 68.98 286.08 69.94 295.91 70.14 306.16 69.69 316.78 68.23 322.11 66.84 327.52 65.17 333 63.22 338.5 60.91 344.06 58.4 349.68 55.77 355.31 52.95 361 50.17 366.74 47.51 372.48 44.93 378.27 42.66 384.1 40.78" stroke-dasharray="4 5" transform="rotate(31.68, 400, 400)" opacity="0.70"></path><path d="M388.75 59.77C399.89 57.03 411.14 56.5 422.49 58.24 433.89 61.62 445.44 66.83 457.17 73.34 469.01 80.15 481.08 87.13 493.4 93.77 505.86 99.23 518.58 103.73 531.49 107.24 544.46 109.34 557.49 110.79 570.39 111.97 583 112.69 595.14 113.94 606.49 116.07 617.01 118.88 626.26 123.1 633.96 128.8 640.38 135.64 645.02 143.93 647.85 153.46 649.66 163.85 650.15 175.08 649.75 186.89 649.69 198.94 649.95 211.17 651.22 223.37 654.6 235.35 660.01 247.11 667.72 258.6 677.97 269.67 690.04 280.48 703.21 291.09 716.75 301.31 729.28 311.45 739.56 321.6 746.98 331.49 750.44 341.52 749.58 351.78 745.29 361.91 737.74 372.37 728.15 383.22 718.77 394.02 710.48 405.28 704.73 417.01 703.1 428.75 705.21 440.71 710.52 452.84 718.62 464.97 727.44 477.24 735.44 489.55 741.92 501.76 745.09 513.89 744.36 525.76 740.1 537.35 732.08 548.45 721.11 558.83 708.41 568.62 694.74 577.41 681.19 584.96 668.83 591.67 658.08 596.97 649.3 600.79 636.96 606.3 629.32 613.55 624.8 621.26 620.49 629.6 614.64 640.26 607.33 653.18 599.06 668.05 589.55 684.1 579.06 700.34 567.96 715.85 556.22 729.33 544.08 739.62 531.7 746.24 519.17 748.32 506.65 745.73 494.1 739.63 481.66 730.36 469.4 719.29 457.18 708.86 445.15 700.04 433.33 694.38 421.54 693.54 409.94 697.35 398.53 705.52 387.13 717.42 376.16 730.59 365.62 743.05 355.05 753.66 344.87 760.18 335.08 761.71 325.21 758.5 315.68 750.3 306.46 738.09 297.1 723.4 287.96 707.36 279.02 691.49 269.83 677.23 260.72 665.34 251.65 656.36 242.25 650.82 232.81 648.18 223.32 647.85 213.5 649.76 203.65 652.45 193.85 655.06 183.9 657.59 174.16 658.64 164.76 657.76 155.56 655.34 146.94 650.58 139.07 643.62 131.68 634.99 125.16 624.55 119.57 612.71 114.46 599.86 110.15 586.22 106.57 572.16 103.07 557.8 99.97 543.45 97.14 529.33 93.92 515.3 90.72 501.65 87.51 488.42 83.79 475.39 80.13 462.76 76.68 450.51 73.08 438.4 70.04 426.58 67.74 415.02 65.83 403.51 64.93 392.2 65.14 381.08 65.86 369.96 67.54 359.28 69.99 349.06 72.51 338.84 75.44 329.09 78.59 319.86 81.31 310.65 84.05 301.99 86.8 293.88 89.06 285.78 91.48 278.21 94.17 271.16 96.8 263.99 100.05 257.21 104.03 250.71 108.41 243.85 113.74 237.03 119.98 230.11 126.76 222.51 134.37 214.56 142.67 206.14 151.23 196.88 160.23 187.08 169.49 176.8 178.62 165.91 187.79 154.85 196.94 143.87 205.7 133.05 214.38 122.92 222.98 113.86 231.18 105.85 239.39 99.42 247.66 94.75 255.66 91.39 263.85 89.67 272.27 89.36 280.57 89.52 289.2 90.24 298.18 91.05 307.12 90.89 316.45 89.94 326.15 87.97 335.85 84.38 345.93 79.83 356.37 74.69 366.81 68.97 377.6 63.77 388.74 59.78" stroke-dasharray="6 2" transform="rotate(35.64, 400, 400)" opacity="0.66"></path><path d="M398.28 78.77C409.01 75.99 419.92 75.27 431.01 76.69 442.12 79.68 453.43 84.46 464.91 90.61 476.44 97.22 488.13 104.22 499.93 111.11 511.73 117.1 523.55 122.33 535.27 126.65 546.8 129.61 558.03 131.8 568.75 133.45 578.96 134.34 588.35 135.34 596.69 136.77 604.18 138.44 610.38 141.14 615.14 145.01 619.02 149.75 621.59 155.86 622.98 163.24 624.11 171.53 624.73 180.91 625.28 191.14 626.82 201.94 629.27 213.27 633.08 224.92 638.97 236.7 646.7 248.56 656.22 260.36 667.5 272.02 679.77 283.53 692.28 294.87 704.38 305.98 714.93 316.94 722.97 327.79 728.24 338.45 729.91 349.08 727.86 359.73 723.09 370.27 715.75 380.93 706.9 391.72 698.47 402.49 691.09 413.45 685.92 424.62 684.31 435.79 685.89 446.9 690.27 457.9 697.23 468.87 705.06 479.68 712.53 490.2 719.12 500.6 723.16 510.58 724.03 520.01 721.95 529.13 716.43 537.53 707.93 545.03 697.38 552.08 685.26 558.1 672.46 563.02 659.94 567.47 648.18 570.89 637.67 573.36 625.41 576.68 610.96 583.15 607.09 588.51 605.38 594.15 603.42 601.38 600.88 610.44 598.1 621.54 594.28 634.34 589.35 648.5 583.78 663.55 577.04 678.71 569.27 693.05 560.9 705.87 551.67 716.15 541.78 723.07 531.52 726.57 520.81 726.09 509.81 721.77 498.66 714.88 487.37 705.75 476.04 695.63 464.68 686.59 453.35 679.3 442.12 674.97 430.89 674.92 419.77 678.87 408.78 686.53 397.79 697.43 387.16 709.5 376.89 721.09 366.59 731.35 356.6 738.29 346.9 741.06 337.11 739.79 327.54 734 318.16 724.31 308.63 711.91 299.21 697.55 289.87 682.49 280.31 668.01 270.76 654.86 261.2 643.75 251.41 635.33 241.6 629.46 231.81 625.94 221.87 624.87 212.04 625.26 202.42 626.42 192.87 628.41 183.71 629.97 175.07 630.57 166.79 630.5 159.21 628.78 152.43 625.31 146.16 620.56 140.72 614.05 136.12 605.98 131.88 596.81 128.29 586.44 125.24 575.19 122.13 563.31 119.25 550.95 116.5 538.34 113.27 525.53 109.99 512.72 106.65 500.07 102.81 487.43 99.03 475.03 95.47 462.96 91.82 450.93 88.74 439.22 86.43 427.86 84.55 416.53 83.7 405.51 83.95 394.83 84.75 384.14 86.51 374.01 89.05 364.43 91.69 354.82 94.74 345.74 98 337.18 100.85 328.56 103.68 320.42 106.46 312.73 108.71 304.9 111 297.43 113.44 290.24 115.7 282.77 118.41 275.42 121.71 268.09 125.29 260.27 129.71 252.28 134.99 244.01 140.79 235.09 147.47 225.78 154.92 216.07 162.78 205.76 171.23 195.16 180.12 184.38 189.1 173.45 198.3 162.73 207.62 152.51 216.73 142.85 225.83 134.19 234.88 126.83 243.61 120.61 252.29 115.94 260.95 112.9 269.31 110.9 277.72 110.2 286.25 110.53 294.56 110.96 303.06 111.62 311.81 112.09 320.44 111.45 329.37 109.96 338.62 107.48 347.82 103.51 357.38 98.74 367.32 93.51 377.23 87.84 387.55 82.72 398.27 78.77" stroke-dasharray="3 6" transform="rotate(39.6, 400, 400)" opacity="0.62"></path><path d="M408.57 97.76C418.86 94.97 429.29 94.08 439.81 95.18 450.34 97.75 460.96 102.06 471.62 107.76 482.26 114.06 492.87 120.93 503.37 127.92 513.75 134.29 523.89 140.11 533.66 145.2 543.12 149.06 552.01 152.12 560.17 154.52 571.17 156.58 587.29 160.44 592.25 163.81 594.85 166.84 596.71 170.98 598.06 176.23 599.77 182.29 601.61 189.46 603.97 197.6 607.61 206.43 612.4 216.03 618.56 226.22 626.47 236.81 635.79 247.75 646.28 258.89 657.74 270.17 669.44 281.49 680.68 292.77 690.98 304.03 699.41 315.19 705.28 326.23 708.6 337.2 708.78 348.06 705.86 358.8 700.84 369.51 693.84 380.14 685.77 390.69 678.26 401.24 671.74 411.74 667.11 422.18 665.53 432.61 666.65 442.71 670.18 452.44 676.06 462.14 682.89 471.4 689.69 480.15 696.11 488.78 700.67 496.81 702.75 504.16 702.48 511.3 699.2 517.67 693.13 523.22 684.95 528.55 674.85 533.08 663.51 536.86 651.75 540.6 639.97 543.8 628.73 546.65 618.56 549.93 609.55 553.3 601.78 557.07 595.52 561.93 590.35 567.71 586.03 574.67 582.73 583.21 579.75 593.16 576.78 604.51 574.1 617.16 570.96 630.73 567.18 644.75 563.18 658.72 558.32 671.94 552.61 683.65 546.51 693.4 539.56 700.43 531.87 704.22 523.85 705.07 515.2 702.59 506.06 697.12 496.72 689.94 487.01 681.31 477.04 672.31 466.99 664.69 456.76 658.87 446.42 655.74 436.07 656.36 425.65 660.38 415.2 667.53 404.74 677.49 394.49 688.47 384.45 699.17 374.38 708.97 364.48 716.12 354.75 719.84 344.94 720.22 335.24 716.61 325.63 709.37 315.91 699.38 306.22 687.09 296.57 673.48 286.78 659.61 277.01 646.16 267.26 633.86 257.44 623.4 247.69 614.91 238.08 608.46 228.52 604.29 219.23 601.81 210.3 600.6 201.62 600.77 193.47 601.31 185.95 601.74 175.67 602.17 159.57 596.85 153.65 590.3 150.12 584.61 147.06 577.65 144.36 569.61 141.45 560.89 138.63 551.35 135.81 541.21 132.48 530.69 129.04 519.81 125.53 508.76 121.56 497.55 117.68 486.32 114.05 475.19 110.41 464.02 107.35 453.02 105.07 442.24 103.26 431.47 102.46 420.94 102.76 410.68 103.62 400.42 105.43 390.66 108.02 381.37 110.74 372.04 113.87 363.15 117.23 354.65 120.21 346.05 123.17 337.78 126.05 329.77 128.38 321.56 130.67 313.5 133 305.52 135.02 297.21 137.34 288.84 140.09 280.32 142.97 271.36 146.53 262.16 150.85 252.67 155.6 242.75 161.2 232.55 167.59 222.16 174.44 211.53 181.99 200.92 190.12 190.49 198.51 180.3 207.3 170.68 216.36 161.88 225.43 153.87 234.63 147.03 243.88 141.55 252.96 137.13 262.04 134.11 271.09 132.45 279.92 131.51 288.74 131.51 297.6 132.16 306.25 132.59 314.99 132.96 323.85 132.94 332.58 131.74 341.5 129.69 350.64 126.71 359.7 122.43 369.05 117.48 378.69 112.22 388.31 106.64 398.26 101.64 408.56 97.76" stroke-dasharray="4 2" transform="rotate(43.56, 400, 400)" opacity="0.58"></path><path d="M415.12 116.75C424.87 113.97 434.6 112.93 444.27 113.71 453.92 115.85 463.49 119.65 472.89 124.83 482.24 130.72 491.35 137.31 500.14 144.22 508.77 150.78 516.96 157.04 524.61 162.76 531.97 167.46 538.68 171.43 544.62 174.72 552.6 177.93 564.2 182.29 568.17 184.73 571.93 187.98 580.5 199.41 586.78 207.89 592.51 214.47 599.32 221.91 607.26 230.07 616.44 238.73 626.49 247.95 637.07 257.58 647.95 267.52 658.46 277.72 668 288.06 676.3 298.54 682.62 309.05 686.5 319.53 688.16 330.06 687.15 340.5 683.63 350.8 678.57 361.13 672.03 371.3 664.76 381.29 658.14 391.3 652.42 401.11 648.3 410.68 646.76 420.26 647.48 429.35 650.25 437.93 655.12 446.48 660.95 454.48 666.98 461.89 673.02 469.25 677.77 475.99 680.66 482.1 681.79 488.14 680.42 493.58 676.57 498.44 670.76 503.33 662.92 507.78 653.52 511.89 643.25 516.29 632.35 520.62 621.34 525.08 610.74 530.24 600.7 535.87 591.47 542.2 583.33 549.61 576.13 557.99 569.8 567.41 564.52 577.98 559.84 589.51 555.55 601.81 551.86 614.65 548.19 627.63 544.33 640.28 540.63 652.2 536.47 662.78 531.78 671.47 526.97 678.1 521.51 682.1 515.41 683.21 509.12 681.97 502.21 678.11 494.74 672.04 487.11 665 478.99 657.17 470.45 649.42 461.82 643.2 452.85 638.74 443.58 636.68 434.29 637.86 424.75 641.9 415 648.54 405.24 657.58 395.51 667.52 385.83 677.31 376.15 686.55 366.49 693.72 356.88 698.13 347.25 699.84 337.63 698.14 328.04 693.17 318.41 685.6 308.8 675.59 299.23 663.87 289.65 651.31 280.14 638.43 270.75 625.9 261.42 614.38 252.29 604.14 243.43 595.41 234.77 588.53 226.5 583.23 218.71 579.31 211.26 576.95 204.4 575.44 198.2 574.42 189.83 573.89 176.91 570.9 172.08 567.25 169.03 564.02 166.28 559.74 163.72 554.45 160.82 548.64 157.9 541.93 154.91 534.44 151.4 526.56 147.77 518.08 144.08 509.15 140.01 500 136.08 490.55 132.44 480.91 128.84 471.19 125.86 461.38 123.67 451.56 121.95 441.72 121.23 431.92 121.57 422.18 122.47 412.44 124.3 403 126.88 393.83 129.64 384.64 132.82 375.68 136.25 366.92 139.36 358.08 142.47 349.36 145.49 340.71 147.97 331.89 150.36 323.06 152.69 314.16 154.64 305.01 156.74 295.71 159.11 286.25 161.45 276.51 164.3 266.59 167.75 256.53 171.51 246.29 176.01 236.02 181.24 225.82 186.91 215.74 193.31 205.97 200.35 196.7 207.75 187.95 215.68 180 224.03 173.04 232.55 166.94 241.36 162.01 250.35 158.35 259.35 155.55 268.44 153.9 277.58 153.28 286.62 153.04 295.68 153.37 304.76 154.02 313.7 154.19 322.68 154.09 331.71 153.47 340.63 151.68 349.64 149.08 358.76 145.65 367.82 141.11 377.04 136.06 386.42 130.82 395.79 125.38 405.35 120.54 415.11 116.75" stroke-dasharray="1 5" transform="rotate(47.519999999999996, 400, 400)" opacity="0.54"></path><path d="M415.08 135.74C424.14 132.99 433.01 131.81 441.65 132.29 450.26 134.01 458.62 137.28 466.66 141.88 474.63 147.25 482.22 153.42 489.38 160.08 496.4 166.63 502.92 173.11 508.87 179.28 514.65 184.66 519.85 189.47 524.43 193.67 530.84 198.27 541.31 204.41 545.98 206.86 551.31 209.28 564.83 216.96 573.92 222.75 581.28 227.28 589.45 232.6 598.35 238.63 607.95 245.11 617.87 252.23 627.77 259.88 637.44 267.88 646.32 276.29 653.93 285.01 660.2 293.95 664.54 303.08 666.69 312.31 666.99 321.66 665.11 331.03 661.26 340.35 656.33 349.72 650.33 358.99 643.87 368.09 638.11 377.21 633.13 386.14 629.49 394.83 628.01 403.51 628.39 411.72 630.48 419.44 634.41 427.15 639.27 434.37 644.48 441.11 649.96 447.84 654.61 454.1 657.95 459.94 660.07 465.84 660.2 471.4 658.25 476.69 654.62 482.19 649.04 487.59 641.83 493.01 633.5 498.88 624.16 505 614.22 511.51 604.14 518.72 594.09 526.53 584.34 535.05 575.19 544.38 566.64 554.44 558.75 565.2 551.7 576.53 545.26 588.28 539.35 600.16 534.12 611.93 529.18 623.21 524.39 633.6 519.99 642.86 515.48 650.5 510.77 656.14 503.7 660.6 487.5 655.27 478.2 646.79 471.76 640.26 464.85 633.42 457.49 626.99 450.07 622.14 442.24 618.91 434.02 617.79 425.78 619.42 417.19 623.42 408.27 629.55 399.35 637.71 390.33 646.64 381.26 655.52 372.19 664.12 363.08 671.14 353.94 675.97 344.82 678.71 335.69 678.6 326.58 675.66 317.51 670.38 308.49 662.72 299.56 653.17 290.72 642.42 282.02 630.82 273.54 618.93 265.23 607.33 257.21 596.33 249.57 586.25 242.19 577.42 235.26 569.82 228.86 563.45 220.03 556.49 205.73 548.23 200.2 545.56 195.31 543.37 187 536.81 183.03 531.78 179.99 527.93 176.87 523.3 173.63 517.93 169.91 512.3 166.1 505.99 162.27 499.09 158.15 492 154.22 484.42 150.62 476.43 147.15 468.36 144.3 459.95 142.22 451.29 140.64 442.6 140.01 433.7 140.38 424.63 141.31 415.56 143.12 406.53 145.66 397.55 148.41 388.56 151.6 379.6 155.05 370.65 158.26 361.64 161.5 352.6 164.67 343.5 167.35 334.31 169.91 325.01 172.37 315.62 174.38 306.1 176.44 296.47 178.61 286.75 180.63 276.97 182.98 267.17 185.76 257.41 188.68 247.75 192.19 238.29 196.32 229.17 200.8 220.4 205.95 212.18 211.73 204.67 217.88 197.78 224.61 191.79 231.85 186.81 239.36 182.59 247.27 179.43 255.49 177.32 263.86 175.78 272.44 175.1 281.17 175.11 289.93 175.16 298.78 175.48 307.68 175.84 316.56 175.55 325.47 174.85 334.4 173.57 343.29 171.19 352.2 168.08 361.14 164.28 370.05 159.55 379.01 154.47 388 149.31 396.98 144.06 406.01 139.41 415.07 135.75" stroke-dasharray="5 6" transform="rotate(51.480000000000004, 400, 400)" opacity="0.51"></path><path d="M408.48 154.74C416.72 152.03 424.66 150.74 432.28 150.93 439.88 152.23 447.12 154.96 453.99 158.95 460.82 163.72 467.23 169.35 473.21 175.59 479.13 181.93 484.6 188.39 489.62 194.77 494.61 200.62 499.19 206.08 503.4 211.07 509.69 217.09 521.76 225.8 528.14 229.02 532.98 230.71 538.18 232.51 543.85 234.54 550.25 236.5 557.23 238.89 564.8 241.79 573.03 244.86 581.72 248.53 590.7 252.79 599.9 257.34 608.97 262.49 617.57 268.17 625.62 274.14 632.63 280.58 638.28 287.43 642.64 294.49 645.23 301.86 645.95 309.47 645.22 317.21 642.77 325.1 638.81 333.08 634.17 341.12 628.78 349.19 623.12 357.21 618.16 365.26 613.87 373.23 610.67 381.07 609.27 388.92 609.37 396.45 610.86 403.66 613.95 410.86 617.88 417.77 622.23 424.39 627.04 431.05 631.37 437.49 634.83 443.76 637.52 450.15 638.72 456.47 638.27 462.8 636.49 469.39 633 476.13 627.94 483.1 621.76 490.5 614.38 498.26 606.1 506.47 597.33 515.19 588.15 524.4 578.83 534.11 569.65 544.24 560.67 554.74 552.03 565.48 543.9 576.29 536.21 586.98 528.97 597.29 522.29 607.04 515.98 615.91 509.96 623.56 501.65 632.35 485.73 638.66 477.66 635.93 472.32 632.35 466.71 627.45 460.79 621.63 454.89 615.88 448.63 610.19 442.02 605.08 435.39 601.5 428.4 599.39 421.05 599.06 413.68 601.04 405.97 604.93 397.94 610.56 389.9 617.87 381.74 625.84 373.5 633.82 365.29 641.71 357.01 648.42 348.72 653.46 340.48 656.92 332.25 658.07 324.08 656.85 316 653.64 308.02 648.24 300.21 640.94 292.53 632.31 285.07 622.5 277.91 611.95 270.93 601.16 264.3 590.37 258.09 579.92 252.11 570.13 246.59 561.11 241.55 552.95 236.75 545.85 232.44 539.65 228.61 534.27 223.28 527.94 214.41 518.46 210.48 514.38 206.25 510.52 197.02 501 191.83 494.95 187.92 490.65 183.97 485.76 180.06 480.31 175.97 474.76 172.11 468.67 168.64 462.08 165.34 455.42 162.67 448.32 160.76 440.79 159.32 433.24 158.79 425.32 159.19 417.03 160.13 408.75 161.89 400.32 164.36 391.77 167.05 383.23 170.19 374.56 173.63 365.79 176.89 357.01 180.23 348.11 183.53 339.11 186.41 330.11 189.18 321.01 191.83 311.86 194.03 302.73 196.19 293.58 198.36 284.49 200.27 275.52 202.36 266.69 204.71 258.11 207.05 249.81 209.81 241.89 213.04 234.49 216.47 227.54 220.45 221.26 225 215.75 229.84 210.82 235.24 206.75 241.15 203.59 247.35 200.97 254.01 199.2 261.05 198.2 268.31 197.49 275.88 197.3 283.69 197.51 291.62 197.49 299.73 197.5 307.96 197.34 316.25 196.44 324.62 195.07 333.01 193.13 341.44 190.2 349.88 186.66 358.31 182.58 366.74 177.75 375.16 172.71 383.53 167.7 391.91 162.68 400.23 158.25 408.47 154.74" stroke-dasharray="5 3" transform="rotate(55.440000000000005, 400, 400)" opacity="0.47"></path><path d="M398.19 173.73C405.56 171.1 412.63 169.72 419.39 169.65 426.13 170.55 432.55 172.73 438.63 176.09 444.7 180.2 450.44 185.2 455.85 190.87 461.27 196.79 466.39 203.01 471.24 209.33 476.17 215.37 480.9 221.22 485.48 226.78 490.26 231.73 495.01 236.28 499.81 240.43 504.96 243.91 510.29 247.06 515.88 249.95 521.95 252.33 528.39 254.61 535.2 256.9 542.52 258.9 550.2 261.09 558.17 263.53 566.45 265.91 574.81 268.67 583.09 271.84 591.21 275.09 598.88 278.82 605.82 283 612.05 287.32 617.17 292.1 620.97 297.29 623.64 302.62 624.8 308.32 624.43 314.34 622.99 320.46 620.24 326.85 616.37 333.46 612.13 340.11 607.39 346.94 602.51 353.89 598.3 360.85 594.65 367.91 591.86 375.03 590.55 382.16 590.41 389.19 591.39 396.1 593.72 403.04 596.79 409.89 600.3 416.69 604.36 423.54 608.19 430.4 611.5 437.29 614.41 444.32 616.25 451.47 616.87 458.78 616.52 466.31 614.77 474.09 611.66 482.14 607.54 490.48 602.23 499.13 595.91 508.09 588.93 517.3 581.28 526.76 573.16 536.4 564.85 546.1 556.38 555.79 547.92 565.3 539.62 574.51 531.51 583.23 523.64 591.22 516.11 598.45 508.85 604.61 501.87 609.49 495.24 613.23 488.82 615.48 482.55 616.16 476.55 615.68 470.62 613.76 464.69 610.51 458.92 606.64 453.08 601.96 447.11 596.81 441.22 592.03 435.15 587.54 428.87 583.71 422.62 581.29 416.13 580.14 409.4 580.47 402.68 582.7 395.7 586.45 388.5 591.56 381.3 598.07 374.04 605.11 366.76 612.2 359.51 619.35 352.26 625.63 345.05 630.66 337.9 634.56 330.82 636.64 323.88 636.8 317.01 635.36 310.32 632 303.86 626.89 297.51 620.46 291.43 612.72 285.68 603.99 280.07 594.68 274.81 584.92 269.94 575.04 265.22 565.31 260.88 555.87 256.96 546.89 253.13 538.53 249.66 530.79 246.54 523.69 241.96 514.47 233.63 499.58 229.56 493.36 224.99 487.87 214.94 476.89 209.41 470.95 205.38 466.94 201.37 462.56 197.47 457.76 193.49 452.95 189.79 447.71 186.51 442.01 183.45 436.3 181 430.14 179.27 423.55 178.01 416.94 177.57 409.92 178.01 402.49 178.93 395.06 180.62 387.41 182.98 379.58 185.57 371.77 188.61 363.8 191.97 355.71 195.23 347.64 198.61 339.47 202.01 331.24 205.06 323.07 208.04 314.89 210.91 306.75 213.35 298.74 215.72 290.83 218.04 283.12 220.03 275.63 222.09 268.42 224.27 261.6 227.47 252.11 235.44 236.51 240.49 230.71 246.25 226.28 260.44 221.33 268.77 220.49 274.67 220.1 280.92 219.98 287.47 219.98 294.17 219.59 301.12 219.05 308.26 218.22 315.5 216.66 322.87 214.62 330.33 212.07 337.86 208.68 345.43 204.81 353.01 200.54 360.62 195.72 368.22 190.8 375.76 186 383.32 181.25 390.8 177.07 398.18 173.73" stroke-dasharray="5 5" transform="rotate(59.4, 400, 400)" opacity="0.43"></path><path d="M388.68 192.72C395.23 190.19 401.57 188.76 407.68 188.45 413.79 188.97 419.69 190.63 425.37 193.35 431.06 196.78 436.56 201.07 441.88 206.05 447.26 211.39 452.51 217.14 457.67 223.14 462.94 229.07 468.19 235 473.46 240.82 478.94 246.25 484.52 251.43 490.24 256.32 496.25 260.68 502.47 264.74 508.92 268.53 515.69 271.82 522.69 274.91 529.9 277.88 537.33 280.48 544.88 283.07 552.43 285.72 559.98 288.15 567.32 290.76 574.3 293.6 583.91 297.88 598.16 308.03 602.04 313.99 603.37 320.37 599.02 334.9 594.01 342.99 590.24 348.49 586.17 354.28 582.04 360.32 578.52 366.36 575.45 372.65 573.05 379.17 571.83 385.69 571.51 392.3 572.07 398.98 573.74 405.67 576.03 412.47 578.73 419.37 582 426.32 585.23 433.41 588.17 440.65 590.99 447.98 593.11 455.5 594.36 463.21 594.99 471.04 594.55 479.07 593.01 487.3 590.68 495.62 587.29 504.11 582.93 512.68 577.91 521.25 572.11 529.82 565.68 538.26 558.86 546.49 551.65 554.42 544.17 561.88 536.6 568.86 528.95 575.14 521.31 580.56 513.77 585.22 506.34 588.82 499.05 591.26 491.95 592.8 485.01 593.14 478.22 592.27 471.63 590.66 465.15 588.05 458.78 584.58 452.54 580.9 446.35 576.8 440.19 572.55 434.1 568.85 427.99 565.54 421.83 562.9 415.71 561.51 409.51 561.17 403.22 562.03 396.93 564.4 390.55 567.96 384.07 572.57 377.59 578.31 371.17 584.47 364.83 590.69 358.51 597.06 352.28 602.82 346.18 607.65 337.15 613.08 320.07 614.78 312.14 610.82 307.01 606.51 302.15 600.91 297.59 594.23 293.11 586.81 288.92 578.68 285.06 570.1 281.23 561.32 277.7 552.42 274.46 543.59 271.19 534.99 268.16 526.68 265.33 518.73 262.37 511.23 259.54 504.16 256.8 497.51 253.82 491.35 250.85 485.54 247.86 480.05 244.55 474.95 241.17 470.04 237.73 465.25 233.95 460.72 230.13 456.19 226.3 451.59 222.26 447.14 218.3 442.52 214.52 437.7 210.74 432.94 207.28 427.92 204.26 422.6 201.49 417.3 199.3 411.68 197.79 405.74 196.7 399.8 196.36 393.52 196.82 386.92 197.71 380.33 199.31 373.57 201.52 366.69 203.97 359.83 206.86 352.87 210.09 345.86 213.28 338.9 216.63 331.91 220.06 324.97 223.22 318.12 226.36 311.36 229.43 304.75 232.14 298.3 234.76 292.07 237.32 286.13 240.64 277.73 247.07 263.43 250.46 257.75 258.22 249.97 273.37 244.01 279.83 243.42 286.86 242.7 302.7 240.39 311.36 238.24 317.32 236.02 323.47 233.38 329.76 230.32 336.11 226.59 342.58 222.51 349.11 218.18 355.68 213.45 362.28 208.73 368.89 204.2 375.51 199.76 382.12 195.87 388.67 192.72" stroke-dasharray="3 4" transform="rotate(63.36, 400, 400)" opacity="0.39"></path><path d="M384.1 211.71C392.8 208.58 409.76 208.11 418.04 210.79 429.11 216.83 440.04 225.72 450.95 236.44 462.31 247.49 474.04 258.81 486.21 269.72 499.06 279.26 512.41 287.95 525.92 295.87 539.46 302.37 552.27 308.63 563.39 315.03 572.77 320.73 579.09 327.14 581.65 334.49 581.57 341.67 578.03 350.02 571.78 359.57 568.55 364.33 565.13 369.4 561.72 374.77 558.82 380.14 556.28 385.81 554.24 391.79 553.12 397.78 552.68 403.94 552.88 410.26 553.99 416.58 555.59 423.08 557.55 429.74 562.95 443.13 567.89 457.2 571.11 471.76 573.01 486.36 571.6 501.23 566.87 515.82 559.92 529.74 550.22 542.51 538.58 553.2 525.97 561.9 512.52 567.46 498.87 569.3 485.33 568.77 472.01 564.97 459.09 558.67 446.49 552.63 434.15 546.77 422.09 542.67 416.11 542.14 410.16 542.47 404.24 543.71 398.33 546.14 392.44 549.46 386.57 553.58 380.7 558.59 375 563.91 369.46 569.29 363.92 574.87 358.56 580.02 353.39 584.52 343.06 591.93 333.56 594.78 325.01 592.71 316.51 586.88 308.95 576.78 302.34 563.65 295.56 548.91 289.45 533.13 283.85 517.39 277.55 502.26 271.29 488.05 264.95 474.92 257.55 462.89 249.99 451.63 242.52 440.85 234.61 430.69 227.54 420.44 221.94 409.87 218.54 401.95 215.28 385.38 215.63 376.69 216.48 370.85 217.96 364.98 220 359.12 222.27 353.27 224.96 347.45 227.99 341.7 234.04 330.3 240.62 319.39 247.27 309.33 252.8 299.75 258.11 291.4 263.25 284.62 267.41 278.51 271.88 274.07 276.9 271.3 281.7 268.69 287.51 267.12 294.41 266.1 301.54 263.85 309.83 261.03 319.11 257.19 328.65 251.06 339.01 243.68 349.95 235.49 355.45 230.96 361.07 226.52 366.77 222.31 372.47 218.22 378.25 214.64 384.09 211.72" stroke-dasharray="2 0" transform="rotate(67.32000000000001, 400, 400)" opacity="0.35"></path><path d="M386.44 230.71C396.86 226.71 407.39 225.98 417.96 228.46 428.63 233.08 439.5 240.34 450.57 249.51 461.91 259.41 473.57 270.07 485.43 280.86 497.48 290.97 509.51 300.66 521.07 309.8 532.1 317.85 541.89 325.54 549.74 333.05 555.96 339.82 559.5 346.84 560.05 354.33 558.86 361.5 555.22 369.45 549.74 378.3 544.59 387.06 539.51 396.87 535.43 407.76 534.15 418.65 534.73 430.18 536.77 442.15 540.73 454.11 544.61 466.43 547.54 478.8 549.98 490.92 550.16 502.7 547.86 513.6 544.01 523.63 537.7 532.1 529.43 538.39 520.07 543.11 509.41 545.2 498.03 544.51 486.34 542.57 474.4 538.59 462.54 533.3 450.73 528.92 439.1 525.15 427.79 523.01 416.55 524.23 405.56 528.15 394.92 534.59 384.28 543.76 374.43 553.13 365.41 561.35 356.36 568.55 348.09 572.45 340.64 572.64 333.07 570.03 326.18 563.74 319.92 554.49 313.29 543.39 307.01 530.59 300.95 516.99 294.19 503.14 287.39 489.37 280.54 476.12 272.93 463.35 265.36 451.19 258.14 439.64 250.82 428.52 244.46 417.72 239.58 407.17 235.66 396.75 233.85 386.34 234.44 375.96 236.33 365.58 240.27 355.7 245.71 346.48 251.37 337.34 257.73 329.01 264.34 321.72 270.18 314.67 275.94 308.8 281.54 304.24 288.62 298.27 303.15 290.82 311.6 287.6 317.39 284.12 324.09 279.96 331.65 274.91 339.27 268.09 347.74 260.48 356.92 252.51 366.13 243.99 376 236.4 386.43 230.71" stroke-dasharray="6 2" transform="rotate(71.28, 400, 400)" opacity="0.32"></path><path d="M394.68 249.7C403.99 245.95 413.59 244.87 423.41 246.41 433.27 249.69 443.41 255.29 453.69 262.71 464.03 271.03 474.47 280.4 484.77 290.3 494.91 300.08 504.6 309.87 513.43 319.43 521.54 328.38 528.26 337.05 533.15 345.48 536.77 353.34 538.27 361.2 537.56 369.17 535.86 376.82 532.5 384.86 527.96 393.37 523.91 401.79 519.93 410.84 516.62 420.55 515.38 430.27 515.39 440.21 516.43 450.19 519.06 460.1 521.79 469.91 524.05 479.29 526.38 488.35 527.27 496.63 526.48 503.76 524.79 510.13 521.19 514.94 515.89 517.87 509.69 519.84 502.12 519.89 493.55 518.11 484.53 515.95 474.9 512.68 464.98 508.9 454.95 506.3 444.83 504.43 434.84 503.9 424.85 505.96 415.02 509.92 405.47 515.59 395.93 523.32 387.08 531.16 378.93 538.21 370.72 544.83 363.11 549.17 356.09 550.84 348.89 550.63 342.11 547.5 335.69 541.81 328.89 534.46 322.24 525.23 315.7 514.76 308.62 503.58 301.54 491.86 294.53 480.08 287.1 468.28 279.93 456.7 273.29 445.56 266.79 434.59 261.31 424.02 257.23 413.92 254.01 403.9 252.62 394.25 253.25 385.04 254.96 375.82 258.43 367.46 263.25 359.98 268.4 352.51 274.32 345.97 280.64 340.42 286.52 334.88 292.48 330.31 298.4 326.67 303.61 322.86 308.84 319.73 314.15 317.1 318.93 313.83 324.04 310.58 329.57 307.12 334.85 302.46 340.75 297.21 347.3 291.33 353.77 284.24 360.97 276.74 368.88 269.26 376.77 261.55 385.37 254.8 394.68 249.7" stroke-dasharray="1 2" transform="rotate(75.24, 400, 400)" opacity="0.28"></path><path d="M405.24 268.69C413.41 265.26 421.84 263.93 430.39 264.67 438.96 266.75 447.64 270.75 456.26 276.35 464.82 282.85 473.2 290.48 481.16 298.85 488.82 307.47 495.8 316.42 501.8 325.44 507.16 334.28 511.25 343.05 513.84 351.65 515.62 359.96 515.85 368.18 514.56 376.31 512.82 384.25 510.02 392.25 506.46 400.34 503.44 408.36 500.44 416.58 497.8 424.96 496.65 433.34 496.25 441.48 496.51 449.25 498 456.95 499.61 464.13 501.03 470.6 502.7 485.25 492.01 493.5 483.68 491.48 477.4 489.96 470.35 487.95 462.77 485.85 455.02 484.91 446.91 484.63 438.65 485.32 430.36 487.9 421.98 491.71 413.65 496.6 405.31 502.96 397.39 509.35 389.91 515.18 382.38 520.94 375.2 525.19 368.36 527.62 361.37 528.94 354.58 528.12 347.99 525.3 341.13 521.25 334.35 515.48 327.66 508.38 320.67 500.52 313.78 491.78 307.11 482.55 300.31 473.05 293.91 463.37 288.15 453.81 282.68 444.21 278.18 434.83 274.93 425.84 272.42 416.87 271.41 408.29 272.06 400.21 273.56 392.13 276.53 384.91 280.67 378.53 285.16 372.12 290.44 366.51 296.22 361.67 301.81 356.71 307.65 352.41 313.57 348.66 319.04 344.59 324.57 340.84 330.14 337.26 335.28 333.03 340.6 328.67 346.14 324.07 351.4 318.58 357.05 312.7 363.11 306.49 369.04 299.55 375.51 292.53 382.52 285.77 389.49 279.01 397.06 273.15 405.24 268.69" stroke-dasharray="6 5" transform="rotate(79.2, 400, 400)" opacity="0.24"></path><path d="M413.51 287.68C420.46 284.64 427.44 283.18 434.36 283.29 441.26 284.35 448.05 286.91 454.59 290.78 461.01 295.4 467.06 301.07 472.55 307.52 477.78 314.36 482.29 321.71 485.9 329.34 489.11 337.05 491.31 344.89 492.41 352.71 493.1 360.47 492.75 368.17 491.42 375.74 489.99 383.24 487.88 390.65 485.29 397.91 483.18 405.14 481.01 412.26 478.99 419.19 477.64 429.31 477.91 446.52 478.79 453.29 476.72 464.73 461.88 465.25 454.07 464.43 448.53 464.84 442.49 465.74 436.07 467.25 429.62 470.02 422.85 473.52 415.87 477.61 408.89 482.7 402.03 487.71 395.33 492.32 388.6 497.05 382 500.81 375.54 503.39 368.99 505.42 362.53 506 356.17 505.16 349.7 503.57 343.29 500.61 337.04 496.5 330.69 491.79 324.53 486.15 318.69 479.84 312.91 473.21 307.61 466.14 302.96 458.87 298.63 451.48 295.16 444.03 292.74 436.7 290.89 429.35 290.23 422.18 290.87 415.29 292.14 408.41 294.58 402.12 297.99 396.43 301.73 390.69 306.2 385.46 311.19 380.71 316.18 375.82 321.5 371.27 327.03 366.99 332.33 362.4 337.78 357.91 343.3 353.45 348.56 348.5 353.94 343.43 359.44 338.2 364.73 332.43 370.24 326.49 375.97 320.49 381.59 314.13 387.52 307.91 393.77 302.08 399.98 296.38 406.57 291.47 413.51 287.68" stroke-dasharray="2 1" transform="rotate(83.16, 400, 400)" opacity="0.20"></path><path d="M415.9 306.68C427.07 302.07 437.53 302.14 446.63 306.3 455.39 312.58 462.24 321.98 466.44 333.12 469.88 345.02 470.54 357.71 468.52 370.13 466.75 382.65 463.71 394.72 460.18 405.58 459.08 416.44 458.32 424.94 457.6 430.9 457.92 438.45 449.54 443.57 439.51 444.77 431.83 448.12 422.24 452.79 411.19 458.62 400.14 466.92 388.76 473.98 377.57 478.58 366.31 482.46 355.14 482.49 344.66 478.91 334.32 473.96 325.08 466.1 317.97 456.45 311.96 446.35 308.92 435.3 309.69 424.14 312.13 412.98 317.85 402.74 325.75 393.45 333.98 383.75 343.5 374.29 353.55 364.97 363.18 354.61 373.33 343.92 383.74 333.54 393.92 322.72 404.73 313.24 415.9 306.68" stroke-dasharray="5 1" transform="rotate(87.12, 400, 400)" opacity="0.16"></path><path d="M411.37 325.67C419.66 321.87 426.88 321.14 432.72 323.14 438.41 326.37 442.54 331.91 444.84 338.95 446.96 346.64 447.37 355.27 446.2 364.03 445.42 372.97 443.72 381.74 441.37 389.7 439.71 400.8 436.32 415.11 433.12 419.07 430.84 422 427.06 424.5 421.82 426.9 416.53 430.77 409.74 435.1 401.63 439.62 393.52 445.51 384.93 450.38 376.37 453.68 367.88 456.95 359.51 457.94 351.85 456.61 344.47 454.75 338.12 450.71 333.45 444.92 329.54 438.89 327.72 431.49 328.5 423.14 330.28 414.78 334.38 406.28 340.12 397.92 346.25 389.39 353.58 380.69 361.49 372.1 369.38 363.14 377.75 354.21 386.17 345.91 394.54 337.67 403.07 330.61 411.37 325.67" stroke-dasharray="1 6" transform="rotate(91.08, 400, 400)" opacity="0.13"></path><path d="M401.88 344.66C412.69 339.75 419.97 341.83 422.93 348.61 426.04 356.72 425.81 367.59 422.56 378.01 421.54 388.42 418.46 396.31 413.58 401.71 409.44 408.52 401.91 415.11 391.36 420.63 380.81 428.5 369.42 432.45 360.12 431.52 351.62 430.25 346.46 423.67 347.31 412.7 350.02 401.72 358.07 388.63 368.34 376.05 378.98 363.4 391.06 351.66 401.88 344.66" stroke-dasharray="4 5" transform="rotate(95.03999999999999, 400, 400)" opacity="0.09"></path></g></svg>